<?xml version="1.0" encoding="UTF-8"?>
<svg version="1.1" xmlns="http://www.w3.org/2000/svg" width="2346" height="2048">
<path d="M0 0 C7.54479064 5.37595174 11.88103608 12.58308472 16.4296875 20.4453125 C17.22802002 21.81187988 17.22802002 21.81187988 18.04248047 23.20605469 C21.54549335 29.20816229 25.0134688 35.229775 28.46327209 41.26260376 C31.93511788 47.33331445 35.43209044 53.38941537 38.9296875 59.4453125 C40.17980032 61.61191408 41.42980013 63.77858086 42.6796875 65.9453125 C43.2984375 67.0178125 43.9171875 68.0903125 44.5546875 69.1953125 C125.17968749 208.94531249 125.17968749 208.94531249 127.05493164 212.19580078 C128.30404268 214.36088321 129.55322879 216.52592232 130.80249023 218.69091797 C133.94171059 224.13146956 137.07959313 229.57278466 140.21484375 235.015625 C146.23716079 245.46737449 152.27638087 255.90830798 158.3671875 266.3203125 C163.44244119 274.99793912 168.45199082 283.71152763 173.4296875 292.4453125 C178.45410293 301.25929364 183.50430718 310.05721671 188.6171875 318.8203125 C189.17937988 319.78404785 189.74157227 320.7477832 190.32080078 321.74072266 C193.25536605 326.75990547 196.21171791 331.7652782 199.19140625 336.7578125 C199.79766846 337.77568848 200.40393066 338.79356445 201.02856445 339.84228516 C202.18845055 341.78706737 203.35218457 343.72956123 204.52026367 345.66943359 C205.03435791 346.53133301 205.54845215 347.39323242 206.078125 348.28125 C206.53364746 349.03970215 206.98916992 349.7981543 207.45849609 350.57958984 C208.4296875 352.4453125 208.4296875 352.4453125 208.4296875 354.4453125 C208.96295654 354.19064209 209.49622559 353.93597168 210.0456543 353.67358398 C290.30554177 315.58855838 376.82657062 289.18876619 1115.4296875 315.4453125 C1116.11703979 315.68338623 1116.80439209 315.92145996 1117.51257324 316.16674805 C1149.05304848 327.11765197 1179.93126091 339.87493456 1210.4296875 353.4453125 C1214.52556564 348.79090552 1217.31998116 343.52749652 1220.3046875 338.1328125 C1224.87307853 329.96076371 1229.50510907 321.83326827 1234.2421875 313.7578125 C1239.36236408 305.01938736 1244.41615625 296.24516387 1249.4296875 287.4453125 C1254.96937649 277.72397151 1260.56343813 268.03636158 1266.21313477 258.37841797 C1272.36735492 247.85446625 1278.45338746 237.29151113 1284.53857422 226.72753906 C1287.66648898 221.29871308 1290.79827198 215.87211969 1293.9296875 210.4453125 C1295.17970629 208.27865667 1296.42970628 206.11199 1297.6796875 203.9453125 C1325.1796875 156.27864583 1352.6796875 108.61197917 1380.1796875 60.9453125 C1381.10865845 59.33474976 1381.10865845 59.33474976 1382.05639648 57.69165039 C1383.29989129 55.53672397 1384.54418785 53.38225998 1385.78930664 51.22827148 C1388.68145921 46.22281231 1391.56622853 41.2136162 1394.42086792 36.18667603 C1395.42046918 34.42731831 1396.42272948 32.66950181 1397.42578125 30.91210938 C1398.67453438 28.72239437 1399.91843017 26.52989837 1401.15625 24.33398438 C1408.27906353 11.87306228 1415.95475674 -0.94060579 1430.625 -5.1171875 C1444.1135654 -7.22125341 1456.42915946 -6.19429402 1467.6796875 2.0078125 C1476.68181019 9.73618492 1481.37982836 19.4427704 1482.7421875 31.125 C1483.33918584 43.99777678 1477.46240211 55.0031251 1471.0546875 65.7578125 C1470.33804275 66.98284169 1469.62265256 68.20860557 1468.90844727 69.43505859 C1467.45711237 71.92246926 1465.99852286 74.4053684 1464.53271484 76.88427734 C1462.60598053 80.1429204 1460.69648303 83.41131941 1458.79296875 86.68359375 C1456.50756007 90.61229699 1454.21711457 94.53796971 1451.921875 98.4609375 C1446.34539594 108.00354183 1440.83757259 117.58589043 1435.32080078 127.16308594 C1432.19288602 132.59191192 1429.06110302 138.01850531 1425.9296875 143.4453125 C1424.67966871 145.61196833 1423.42966872 147.778635 1422.1796875 149.9453125 C1389.6796875 206.27864583 1357.1796875 262.61197917 1324.6796875 318.9453125 C1324.06085693 320.01797363 1323.44202637 321.09063477 1322.80444336 322.19580078 C1321.55533232 324.36088321 1320.30614621 326.52592232 1319.05688477 328.69091797 C1315.91766441 334.13146956 1312.77978187 339.57278466 1309.64453125 345.015625 C1309.01933594 346.10029053 1308.39414063 347.18495605 1307.75 348.30249023 C1306.5053159 350.46277248 1305.26180555 352.62373148 1304.01953125 354.78540039 C1300.83439581 360.31847664 1297.61503488 365.82836836 1294.33984375 371.30859375 C1293.6837915 372.41251465 1293.02773926 373.51643555 1292.35180664 374.65380859 C1291.09524458 376.76473072 1289.83043149 378.87076878 1288.55639648 380.97119141 C1287.99895752 381.9101123 1287.44151855 382.8490332 1286.8671875 383.81640625 C1286.37089844 384.64068115 1285.87460938 385.46495605 1285.36328125 386.31420898 C1284.09557837 388.5601947 1284.09557837 388.5601947 1285.4296875 391.4453125 C1287.70092495 392.7913456 1289.93967392 393.97252969 1292.3046875 395.1328125 C1318.47954812 408.49972506 1344.17124583 424.47353969 1368.40917969 441.06396484 C1370.80948729 442.70496779 1373.2172896 444.33472244 1375.625 445.96484375 C1402.83831144 464.41775423 1429.26681952 483.66496688 1454.74609375 504.44921875 C1457.68572158 506.84527303 1460.64498759 509.2147116 1463.6171875 511.5703125 C1469.07670317 515.92698778 1474.39639361 520.44561345 1479.70898438 524.97900391 C1481.44074667 526.45473665 1483.17710944 527.9249137 1484.9140625 529.39453125 C1491.90346478 535.32561052 1498.71982657 541.40689269 1505.42578125 547.65625 C1508.00229563 550.05666875 1510.61355486 552.41442381 1513.2421875 554.7578125 C1525.78350005 566.02131075 1537.87781785 577.72871091 1549.77856445 589.66381836 C1552.01853936 591.9092283 1554.26391446 594.14914089 1556.50976562 596.38867188 C1557.96386292 597.84342896 1559.41765053 599.29849568 1560.87109375 600.75390625 C1561.52848038 601.40926865 1562.185867 602.06463104 1562.86317444 602.73985291 C1566.69621643 606.59211799 1570.33878242 610.55873749 1573.89122009 614.67103577 C1575.66643851 616.71835163 1577.49979584 618.70064523 1579.3671875 620.6640625 C1580.03492188 621.36917969 1580.70265625 622.07429687 1581.390625 622.80078125 C1582.06351563 623.50847656 1582.73640625 624.21617187 1583.4296875 624.9453125 C1588.55922642 630.3401724 1593.57120669 635.80465691 1598.4296875 641.4453125 C1599.16928711 642.30165283 1599.16928711 642.30165283 1599.92382812 643.17529297 C1601.34560657 644.82512001 1602.76350697 646.47817857 1604.1796875 648.1328125 C1604.94394043 649.02564941 1604.94394043 649.02564941 1605.72363281 649.93652344 C1607.29335374 651.77190436 1608.86179452 653.60836988 1610.4296875 655.4453125 C1611.16638672 656.30793701 1611.16638672 656.30793701 1611.91796875 657.18798828 C1617.88003007 664.17653657 1623.74556096 671.22754427 1629.4296875 678.4453125 C1630.23664062 679.46753906 1631.04359375 680.48976563 1631.875 681.54296875 C1634.20949646 684.50426863 1636.53589044 687.47184306 1638.85986328 690.44140625 C1639.94803876 691.83048002 1641.03765684 693.21842442 1642.12841797 694.60546875 C1648.91692141 703.23889862 1655.60341292 711.90750875 1661.91796875 720.89453125 C1663.63520628 723.33717113 1665.38427341 725.75201556 1667.16015625 728.15234375 C1704.86399831 779.28349777 1736.80213486 834.81820696 1765.4296875 891.4453125 C1765.73283875 892.04476685 1766.03598999 892.64422119 1766.34832764 893.26184082 C1784.6908031 929.61529377 1800.3618074 967.25056776 1814.4296875 1005.4453125 C1814.69569763 1006.16662354 1814.96170776 1006.88793457 1815.23577881 1007.63110352 C1845.5427769 1089.98437575 1866.34841928 1175.55807301 1881.4296875 1290.4453125 C1881.54602539 1291.42854492 1881.66236328 1292.41177734 1881.78222656 1293.42480469 C1882.38040782 1298.85428958 1882.4296875 1303.92098383 1882.4296875 1309.4453125 C1108.5796875 1309.4453125 334.7296875 1309.4453125 -462.5703125 1309.4453125 C-461.41329895 1290.93309572 -461.41329895 1290.93309572 -460.66015625 1284.63671875 C-460.52882294 1283.5065181 -460.52882294 1283.5065181 -460.39483643 1282.35348511 C-460.10630353 1279.9040071 -459.80858336 1277.45581671 -459.5078125 1275.0078125 C-459.40215973 1274.1427005 -459.29650696 1273.2775885 -459.18765259 1272.38626099 C-449.58911913 1194.52718799 -432.06014647 1117.94140361 -407.5703125 1043.4453125 C-407.31421204 1042.66369751 -407.05811157 1041.88208252 -406.79425049 1041.07678223 C-383.9027988 971.27661807 -354.51323698 901.54967879 -317.18066406 838.20410156 C-315.30857821 834.99691992 -313.47993356 831.76607804 -311.65625 828.53125 C-304.41153487 815.69779457 -296.9861517 803.02901324 -288.98388672 790.64892578 C-287.55707925 788.42468325 -286.1558556 786.18625208 -284.76171875 783.94140625 C-265.06172397 752.26723487 -243.23327335 721.83289374 -220.19140625 692.51171875 C-218.66585291 690.56709774 -217.14794482 688.61680796 -215.6328125 686.6640625 C-210.30847637 679.81702038 -204.82958425 673.1330678 -199.1953125 666.5390625 C-196.73115286 663.6497993 -194.3337025 660.71012792 -191.9453125 657.7578125 C-188.32196755 653.30627442 -184.55067378 649.02148795 -180.6875 644.77734375 C-178.78980081 642.68707361 -176.92297835 640.57545135 -175.0703125 638.4453125 C-167.90058763 630.22315095 -160.54769142 622.16011505 -153.14404297 614.1484375 C-152.07920561 612.99604759 -151.01576714 611.84236375 -149.95361328 610.6875 C-140.72205871 600.66999778 -131.19171509 590.96134862 -121.5703125 581.3203125 C-120.98604492 580.73345673 -120.40177734 580.14660095 -119.79980469 579.54196167 C-114.06089431 573.78299011 -108.33429809 568.08106278 -102.14453125 562.80126953 C-100.18273172 561.11146888 -98.3682045 559.30741493 -96.5703125 557.4453125 C-93.4205122 554.25269938 -90.15811761 551.27369971 -86.7578125 548.3515625 C-84.21519851 546.13585602 -81.73921052 543.85432658 -79.2578125 541.5703125 C-74.7185629 537.42605285 -70.03572954 533.51952852 -65.25390625 529.66015625 C-62.62322693 527.48898423 -60.09088826 525.24289893 -57.5703125 522.9453125 C-52.39516434 518.24063235 -47.0082841 513.84094907 -41.5703125 509.4453125 C-40.33911163 508.43448483 -39.10868632 507.42271201 -37.87890625 506.41015625 C-29.33763634 499.39373492 -20.63722849 492.64966922 -11.75537109 486.07128906 C-9.40023521 484.31875219 -7.05664893 482.55155693 -4.71484375 480.78125 C-3.87083008 480.14429199 -3.02681641 479.50733398 -2.15722656 478.85107422 C-0.55762187 477.64348097 1.04083019 476.43435814 2.63769531 475.22314453 C16.8826862 464.49591666 31.64841191 454.5059317 46.4921875 444.6328125 C47.34241486 444.06671265 48.19264221 443.50061279 49.06863403 442.9173584 C70.4430284 428.69661525 92.16051506 415.22559387 114.4296875 402.4453125 C115.4501416 401.85959473 116.4705957 401.27387695 117.52197266 400.67041016 C123.48504958 397.25120168 129.45401877 393.84246509 135.4296875 390.4453125 C134.08513052 386.90096823 132.51740406 383.63732057 130.6640625 380.33203125 C130.11113525 379.34404541 129.55820801 378.35605957 128.98852539 377.33813477 C128.39160889 376.28037842 127.79469238 375.22262207 127.1796875 374.1328125 C126.55634521 373.02413818 125.93300293 371.91546387 125.29077148 370.77319336 C119.95095445 361.30590373 114.48845725 351.91231285 108.9921875 342.53515625 C105.2975544 336.22960831 101.64116069 329.90236814 97.9921875 323.5703125 C97.36965088 322.49015869 96.74711426 321.41000488 96.10571289 320.29711914 C94.84391924 318.10734916 93.58228216 315.91748895 92.32080078 313.72753906 C89.19288602 308.29871308 86.06110302 302.87211969 82.9296875 297.4453125 C81.67966871 295.27865667 80.42966872 293.11199 79.1796875 290.9453125 C78.2515625 289.3365625 78.2515625 289.3365625 77.3046875 287.6953125 C40.4296875 223.77864583 3.5546875 159.86197917 -33.3203125 95.9453125 C-33.9400293 94.871604 -34.55974609 93.79789551 -35.19824219 92.69165039 C-36.44011359 90.53813395 -37.68036505 88.38368248 -38.91894531 86.22827148 C-41.81306064 81.19633612 -44.72133768 76.1747058 -47.69042969 71.18667603 C-48.73452622 69.43085248 -49.77329505 67.67198366 -50.81054688 65.91210938 C-52.10869701 63.713202 -53.41663054 61.52002777 -54.73632812 59.33398438 C-61.59908758 47.65604288 -64.60953228 36.27424262 -61.4453125 22.8828125 C-58.24553464 12.4500484 -52.45395771 4.43658269 -42.9765625 -1.05859375 C-29.45584314 -8.03767095 -13.09425239 -7.92023169 0 0 Z M98.1171875 816.8203125 C78.62121026 839.06531733 72.85135349 865.68259994 74.4296875 894.4453125 C77.21905764 919.96181869 91.87072412 942.15024752 110.9921875 958.57421875 C131.38433274 974.2278046 157.23326248 982.30759631 182.89892578 979.140625 C210.84288872 974.92023067 233.44041888 961.7387552 251.08203125 939.765625 C266.24253685 919.10082578 272.29841906 893.21614218 269.10888672 867.89892578 C264.63679864 840.98488903 250.64745719 817.37451147 228.4296875 801.4453125 C213.37562473 791.53493784 195.61977842 784.25827746 177.4296875 783.4453125 C176.28306641 783.36796875 176.28306641 783.36796875 175.11328125 783.2890625 C145.05278716 782.18760928 118.46433077 795.47911032 98.1171875 816.8203125 Z M1172.73828125 818.5078125 C1155.39329196 840.57791732 1147.68481933 867.11423527 1150.71386719 895.06787109 C1154.53550508 921.11750741 1168.72225589 944.10705529 1189.36328125 960.28515625 C1211.6075129 975.95529651 1238.04907891 982.75636894 1264.9921875 978.3203125 C1283.04778598 974.95510392 1299.74819988 966.69476036 1313.4296875 954.4453125 C1314.32300781 953.64609375 1315.21632813 952.846875 1316.13671875 952.0234375 C1333.85688011 935.2698304 1344.64467414 912.51232436 1345.80859375 888.12109375 C1346.57416495 860.06925476 1338.32049241 835.47975485 1319.4296875 814.4453125 C1318.80578125 813.73890625 1318.181875 813.0325 1317.5390625 812.3046875 C1299.78992371 793.36232929 1273.64533847 784.03808294 1248.1796875 783.1328125 C1219.13705379 783.86643029 1191.79118199 796.48278438 1172.73828125 818.5078125 Z " fill="#31DE84" transform="translate(463.5703125,5.5546875)"/>
<path d="M0 0 C25.41 0 50.82 0 77 0 C77 168.63 77 337.26 77 511 C14.05263158 511 14.05263158 511 6.5625 505.0703125 C6.046875 504.42835938 5.53125 503.78640625 5 503.125 C4.46375 502.48820312 3.9275 501.85140625 3.375 501.1953125 C-0.56057083 494.91181588 -0.41236357 488.31919919 -0.625 481.125 C-0.66367188 480.05507812 -0.70234375 478.98515625 -0.7421875 477.8828125 C-0.83602452 475.25537592 -0.92171557 472.62793829 -1 470 C-1.62003906 470.72703125 -2.24007813 471.4540625 -2.87890625 472.203125 C-21.38245276 493.41363886 -46.42860843 508.13259056 -74 514 C-75.00063477 514.22429687 -75.00063477 514.22429687 -76.02148438 514.453125 C-117.8423735 523.52931422 -161.45387111 513.86821537 -197.19189453 491.19189453 C-201.39150478 488.42353142 -205.23160217 485.32274383 -209 482 C-209.79277344 481.31550781 -210.58554687 480.63101562 -211.40234375 479.92578125 C-213.97766818 477.65965849 -216.4956668 475.3443238 -219 473 C-219.96035156 472.10539062 -220.92070313 471.21078125 -221.91015625 470.2890625 C-254.85391869 438.90565345 -270.93654756 392.21232124 -272.22265625 347.45703125 C-273.00364597 304.09393914 -263.1464938 262.16252615 -237 227 C-236.42378906 226.19949219 -235.84757813 225.39898438 -235.25390625 224.57421875 C-209.85870943 190.921341 -171.33240614 169.5507461 -130 163 C-90.98885854 157.79555358 -52.57937983 166.27967133 -21.16796875 190.15234375 C-13.88858126 195.94531086 -6.193419 202.20987149 -1 210 C-0.67 140.7 -0.34 71.4 0 0 Z M-156 254 C-156.84175781 254.67675781 -157.68351563 255.35351562 -158.55078125 256.05078125 C-179.85518158 274.1744313 -190.470396 300.84572086 -193.6875 328.125 C-196.16723636 359.58665508 -187.78751779 390.32155648 -167.203125 414.51171875 C-166.47609375 415.33285156 -165.7490625 416.15398437 -165 417 C-164.37609375 417.70769531 -163.7521875 418.41539062 -163.109375 419.14453125 C-146.62356227 436.70399985 -121.94742212 446.82419539 -98.22265625 448.22265625 C-71.07753671 448.83655768 -46.34839513 439.20699674 -26.58691406 420.56005859 C-6.43042705 400.74468136 5.85409936 372.66872651 6.29248047 344.43066406 C6.36149231 331.74258499 5.87429128 320.12116549 2 308 C1.78569336 307.3208252 1.57138672 306.64165039 1.35058594 305.94189453 C-7.69004662 278.14227842 -24.92821277 255.6903157 -50.98803711 241.85253906 C-84.73084522 224.83260808 -126.92018314 230.55137309 -156 254 Z " fill="#000000" transform="translate(1069,1531)"/>
<path d="M0 0 C25.08 0 50.16 0 76 0 C76 168.63 76 337.26 76 511 C13.69655172 511 13.69655172 511 6.6875 504.6875 C6.05199219 504.13449219 5.41648437 503.58148437 4.76171875 503.01171875 C-0.78029637 496.68325359 -0.52874375 490.16260224 -0.6875 482.125 C-0.72166016 480.9596875 -0.75582031 479.794375 -0.79101562 478.59375 C-0.87319354 475.72926282 -0.94244421 472.86507015 -1 470 C-1.556875 470.64066406 -2.11375 471.28132813 -2.6875 471.94140625 C-24.19333371 496.31710628 -52.93357344 511.10148596 -85 516 C-86.16402344 516.18304687 -87.32804687 516.36609375 -88.52734375 516.5546875 C-131.24995494 521.67343154 -174.32380575 509.62302081 -208.10546875 483.17578125 C-218.16942275 475.07895264 -227.24203734 466.36282603 -235 456 C-235.59458008 455.21786133 -235.59458008 455.21786133 -236.20117188 454.41992188 C-258.45238251 425.01777615 -271.97506747 387.62963793 -272.203125 350.58203125 C-272.21371445 349.42516815 -272.21371445 349.42516815 -272.22451782 348.24493408 C-272.59993674 295.1434948 -258.97715238 247.2420616 -221.43066406 208.37548828 C-212.83162877 199.71406251 -203.1250484 192.76167334 -193 186 C-192.15308594 185.41605469 -191.30617188 184.83210938 -190.43359375 184.23046875 C-158.3696474 163.40897944 -114.47288389 156.81268972 -77.40771484 164.4609375 C-46.50357869 171.38005458 -22.13445474 186.51727251 -1 210 C-0.67 140.7 -0.34 71.4 0 0 Z M-164.1875 260.75 C-185.06798718 282.72946019 -194.61818632 312.22552657 -194.35131836 342.15600586 C-193.64839917 368.68814363 -185.33175101 395.31368611 -167 415 C-166.12214844 415.94617187 -165.24429688 416.89234375 -164.33984375 417.8671875 C-146.77105248 436.32904343 -122.51056294 447.49821205 -96.97412109 448.28344727 C-72.05095281 448.61842095 -48.13222235 440.28090077 -30.00170898 422.94213867 C-28.66266855 421.63332799 -27.33106234 420.31692359 -26 419 C-25.34644531 418.40703125 -24.69289063 417.8140625 -24.01953125 417.203125 C-5.06832234 399.68301425 5.04762289 370.9501102 6.3203125 345.734375 C7.27157505 314.6653128 -3.18594206 285.14698212 -24 262 C-41.89259696 243.26415841 -66.05180381 232.98587559 -91.8359375 231.96875 C-119.59864234 231.86232852 -143.95969943 241.85456953 -164.1875 260.75 Z " fill="#000000" transform="translate(2270,1531)"/>
<path d="M0 0 C4.82270037 4.32603421 9.12194519 8.65536117 13.19140625 13.7421875 C13.52140625 0.8721875 13.85140625 -11.9978125 14.19140625 -25.2578125 C39.60140625 -25.2578125 65.01140625 -25.2578125 91.19140625 -25.2578125 C91.19140625 87.2721875 91.19140625 199.8021875 91.19140625 315.7421875 C29.14938944 315.7421875 29.14938944 315.7421875 21.88671875 309.8828125 C21.36851562 309.25890625 20.8503125 308.635 20.31640625 307.9921875 C19.78273438 307.37859375 19.2490625 306.765 18.69921875 306.1328125 C14.4315486 299.36645464 13.70265984 293.05604293 13.50390625 285.2421875 C13.46974609 284.324375 13.43558594 283.4065625 13.40039062 282.4609375 C13.31874361 280.2214766 13.24933087 277.982366 13.19140625 275.7421875 C12.79050781 276.16927002 12.38960938 276.59635254 11.9765625 277.03637695 C-12.42612578 302.80514544 -44.81252546 320.42596503 -80.92382812 321.86645508 C-96.74487425 322.2203469 -112.27886288 322.09426256 -127.80859375 318.7421875 C-128.8133374 318.5253833 -128.8133374 318.5253833 -129.83837891 318.30419922 C-170.76432718 309.09050406 -205.80880036 283.58540224 -228.80859375 248.7421875 C-240.07305021 230.7817291 -247.94951899 211.35124066 -252.80859375 190.7421875 C-253.02032227 189.85515137 -253.23205078 188.96811523 -253.45019531 188.05419922 C-259.85465356 159.7619213 -259.53653392 126.92887747 -252.80859375 98.7421875 C-252.59428711 97.8332373 -252.37998047 96.92428711 -252.15917969 95.98779297 C-244.64265057 65.18315291 -229.917952 39.14637716 -208.80859375 15.7421875 C-207.79539062 14.61876953 -207.79539062 14.61876953 -206.76171875 13.47265625 C-184.30776546 -10.0848033 -152.44159932 -25.20881842 -120.80859375 -31.2578125 C-119.66003906 -31.48339844 -118.51148438 -31.70898438 -117.328125 -31.94140625 C-75.56977801 -38.78316932 -32.00388589 -27.84613034 0 0 Z M-149.49609375 65.9921875 C-163.6843067 80.85602964 -172.0476048 98.92425275 -176.80859375 118.7421875 C-177.05480469 119.75796875 -177.30101562 120.77375 -177.5546875 121.8203125 C-183.33434907 151.63539424 -176.98389807 183.43934384 -160.78515625 208.92578125 C-151.43248995 222.01603724 -139.95685329 233.05585485 -125.80859375 240.7421875 C-124.90971436 241.23090332 -124.90971436 241.23090332 -123.99267578 241.72949219 C-101.06784316 253.8837374 -75.16492488 255.81963276 -50.4140625 248.48828125 C-24.84845205 240.35065614 -4.28117724 221.45336664 8.43066406 198.07202148 C22.42747497 171.00137778 25.09847049 139.96013792 16.24145508 110.89135742 C11.52592553 96.35141775 4.93552115 83.54589329 -4.80859375 71.7421875 C-5.42089844 70.96617188 -6.03320312 70.19015625 -6.6640625 69.390625 C-21.87949734 51.02828786 -44.87726899 40.07009529 -68.3203125 37.33203125 C-99.29222388 34.65088071 -126.95058285 44.74737915 -149.49609375 65.9921875 Z " fill="#000000" transform="translate(256.80859375,1726.2578125)"/>
<path d="M0 0 C3.3379994 2.90789304 6.55052004 5.93055047 9.70947266 9.03125 C11.15204955 10.44382282 12.61730412 11.83311829 14.08300781 13.22167969 C41.45689488 39.63843784 57.64922829 76.20365598 63.18847656 113.47949219 C63.29160156 114.16229248 63.39472656 114.84509277 63.50097656 115.54858398 C69.02007293 157.59719944 58.75694477 202.27277142 35.18847656 237.47949219 C34.80224121 238.0648877 34.41600586 238.6502832 34.01806641 239.25341797 C28.29075691 247.85962065 21.85448945 255.54272947 14.66015625 262.95654297 C13.25994567 264.40553328 11.88364977 265.8775209 10.50878906 267.35058594 C-19.3013186 298.53178164 -63.80225319 314.64454557 -106.31152344 315.71777344 C-159.75003395 316.55460299 -206.49303096 300.48766661 -245.31152344 263.35449219 C-278.31412924 229.58214631 -294.40169439 182.70134162 -294.04589844 135.92529297 C-292.93424869 86.53793687 -274.84411792 43.60257422 -240.04589844 8.70605469 C-176.24540083 -52.13103182 -67.86552659 -56.96314011 0 0 Z M-180.81152344 56.47949219 C-181.82214844 57.24261719 -182.83277344 58.00574219 -183.87402344 58.79199219 C-205.9752914 79.01230117 -214.7330523 107.05381106 -217.09667969 135.96777344 C-217.9580948 164.84390623 -207.29862345 193.20731367 -187.54394531 214.21826172 C-172.63223001 229.41976332 -154.55725757 238.95733093 -133.81152344 243.47949219 C-133.04066406 243.65383789 -132.26980469 243.82818359 -131.47558594 244.0078125 C-106.66226452 248.40108019 -81.13499329 242.26786445 -60.40136719 228.36230469 C-55.69133665 224.93811959 -51.20130849 221.30418717 -46.81152344 217.47949219 C-46.18632813 216.939375 -45.56113281 216.39925781 -44.91699219 215.84277344 C-24.98302621 197.30932029 -14.98751015 168.75320425 -13.52636719 142.15917969 C-12.63803586 114.88740807 -21.45811641 88.49434502 -38.81152344 67.47949219 C-39.43542969 66.691875 -40.05933594 65.90425781 -40.70214844 65.09277344 C-55.43943629 47.35229878 -78.68252055 35.44563539 -101.47558594 32.69042969 C-130.60232382 30.06025603 -158.50733583 37.13229915 -180.81152344 56.47949219 Z " fill="#000000" transform="translate(1739.8115234375,1732.5205078125)"/>
<path d="M0 0 C0.721875 0.16628906 1.44375 0.33257813 2.1875 0.50390625 C22.78072194 5.46834368 41.8462248 16.24764931 57 31 C57.81984375 31.75796875 58.6396875 32.5159375 59.484375 33.296875 C81.68945938 54.39860115 95.84817207 86.66040381 97.0914346 117.24965858 C97.12510201 119.74419711 97.12855465 122.23693587 97.12025452 124.73168945 C97.12153615 126.15689344 97.12153615 126.15689344 97.12284368 127.61088943 C97.1244841 130.77837287 97.11900074 133.94580274 97.11352539 137.11328125 C97.11324318 139.39029438 97.11340191 141.6673076 97.1139679 143.94432068 C97.11425456 150.11514574 97.10837898 156.28595132 97.10139394 162.45677185 C97.0951386 168.90965679 97.09455487 175.36254218 97.09336853 181.81542969 C97.09061454 192.64274472 97.08437022 203.47005177 97.07543945 214.29736328 C97.0662526 225.44677698 97.059178 236.59618874 97.05493164 247.74560547 C97.05453756 248.77744675 97.05453756 248.77744675 97.05413551 249.83013332 C97.05283042 253.28128869 97.05156672 256.73244408 97.05032361 260.18359947 C97.03996632 288.78907113 97.02228677 317.39453529 97 346 C89.7236244 346.06983572 82.44732233 346.12298025 75.17067814 346.15543652 C71.79099156 346.17102226 68.41153606 346.19212856 65.03198242 346.22631836 C61.13714597 346.2628795 57.24263355 346.27976767 53.34765625 346.29296875 C51.54712547 346.31619453 51.54712547 346.31619453 49.71022034 346.33988953 C41.70246882 346.34148049 35.00964633 345.5839943 28.1875 341.1875 C22.44928565 335.44928565 19.79786781 329.40887809 19.72965056 321.30104077 C19.7356222 320.22887053 19.7356222 320.22887053 19.74171448 319.13504028 C19.73803877 318.36124429 19.73436307 317.58744829 19.73057598 316.79020393 C19.72062484 314.20658511 19.72474116 311.62318275 19.72875977 309.03955078 C19.72437076 307.18287427 19.71906797 305.32619972 19.71292114 303.4695282 C19.70142883 299.47375409 19.69596224 295.47803295 19.69503975 291.48224258 C19.69309521 285.15118872 19.67501809 278.82024377 19.65428162 272.48922729 C19.60513389 256.75593051 19.57427976 241.02260401 19.55297852 225.28924561 C19.53641202 213.07500804 19.51345847 200.86086368 19.46995777 188.64668834 C19.44830039 182.36721141 19.44011256 176.08791205 19.44235051 169.80840039 C19.44067038 165.8797615 19.4265395 161.95123604 19.40913773 158.02263832 C19.40359105 156.21684796 19.40300348 154.41103354 19.40807533 152.60524178 C19.46716922 129.07621435 15.07335869 105.9171825 -1.73046875 88.27734375 C-2.47941406 87.52582031 -3.22835937 86.77429687 -4 86 C-4.61488281 85.36191406 -5.22976563 84.72382812 -5.86328125 84.06640625 C-18.82491411 71.60436523 -35.68074559 68.47491988 -53.00341797 68.58227539 C-71.80018664 69.04832305 -89.11475952 76.3064033 -103 89 C-103.6084375 89.52851562 -104.216875 90.05703125 -104.84375 90.6015625 C-119.1287682 103.78273839 -128.34639688 124.18299741 -132 143 C-132.24745751 144.26614655 -132.24745751 144.26614655 -132.49991417 145.55787182 C-134.22351 155.37255436 -134.30744853 164.98915494 -134.31884766 174.91723633 C-134.32816395 176.79105554 -134.3383351 178.66487067 -134.34928894 180.53868103 C-134.37641134 185.58732835 -134.39168523 190.63594805 -134.40471697 195.68464875 C-134.42042585 200.97507508 -134.44719104 206.26544564 -134.4727478 211.55583191 C-134.51939896 221.55684703 -134.55620891 231.5578728 -134.58942068 241.55894059 C-134.627739 252.95204663 -134.67712352 264.34509646 -134.72740483 275.73815501 C-134.83052131 299.15872827 -134.91984724 322.57933768 -135 346 C-142.40676057 346.0698268 -149.81344896 346.12297582 -157.22047329 346.15543652 C-160.66069184 346.17102416 -164.10068348 346.19213408 -167.54077148 346.22631836 C-171.50501697 346.26546007 -175.46917387 346.27976629 -179.43359375 346.29296875 C-180.65582138 346.30845261 -181.87804901 346.32393646 -183.13731384 346.33988953 C-191.21009515 346.34146574 -197.87969247 345.56374691 -204.8125 341.25 C-210.14720915 335.76287059 -212.12597122 330.00575995 -212.12304783 322.46339798 C-212.1260344 320.76374653 -212.1260344 320.76374653 -212.12908131 319.02975869 C-212.12616847 317.78463376 -212.12325563 316.53950882 -212.12025452 315.25665283 C-212.12069052 313.92088989 -212.12156597 312.58512702 -212.12284368 311.24936461 C-212.1250829 307.57568276 -212.12107516 303.90202998 -212.11606562 300.22835183 C-212.11175311 296.26792161 -212.11320812 292.30749307 -212.1139679 288.34706116 C-212.11449262 281.48430237 -212.11135117 274.62155309 -212.10573006 267.75879669 C-212.09760812 257.83636411 -212.09499912 247.91393613 -212.09374207 237.99150059 C-212.09155264 221.89358242 -212.08489551 205.79566932 -212.07543945 189.69775391 C-212.06626251 174.05875677 -212.05918306 158.419761 -212.05493164 142.78076172 C-212.05466892 141.81701304 -212.05440619 140.85326436 -212.05413551 139.86031118 C-212.05283049 135.02553871 -212.05156677 130.19076623 -212.05032361 125.35599375 C-212.0399544 85.23732467 -212.02151792 45.11866495 -212 5 C-186.59 5 -161.18 5 -135 5 C-134.67 17.87 -134.34 30.74 -134 44 C-130.535 39.545 -130.535 39.545 -127 35 C-107.76449321 13.19795789 -78.47751778 -0.95750398 -49.37646484 -2.88720703 C-32.76189873 -3.67577592 -16.27085872 -3.7570892 0 0 Z " fill="#000000" transform="translate(643,1696)"/>
<path d="M0 0 C1.67449219 -0.01160156 1.67449219 -0.01160156 3.3828125 -0.0234375 C11.78565148 -0.00407612 19.1421708 1.03816726 27.625 2.25 C27.625 28.65 27.625 55.05 27.625 82.25 C22.015 80.93 16.405 79.61 10.625 78.25 C-11.10841396 74.62776434 -32.89321606 76.63787956 -51.375 89.25 C-55.71263564 92.57911367 -59.56317972 96.33999647 -63.375 100.25 C-64.04015625 100.90613281 -64.7053125 101.56226563 -65.390625 102.23828125 C-81.05163839 118.71056335 -89.50217457 144.83041325 -89.53321838 167.15306091 C-89.53815636 167.91858263 -89.54309434 168.68410434 -89.54818195 169.47282368 C-89.56346161 172.02151257 -89.57189153 174.57017645 -89.58032227 177.11889648 C-89.5899083 178.95242022 -89.5999188 180.78594177 -89.61032104 182.61946106 C-89.63729761 187.58581634 -89.65834632 192.55218105 -89.67832303 197.51856875 C-89.70022741 202.71292246 -89.72759428 207.90724734 -89.75437927 213.10157776 C-89.80424604 222.93280136 -89.84920715 232.76404103 -89.89240164 242.59529597 C-89.94182548 253.78994392 -89.99672449 264.98456294 -90.05208123 276.17918289 C-90.16580891 299.20276158 -90.27266794 322.22636804 -90.375 345.25 C-97.8948085 345.34316446 -105.41455626 345.41399844 -112.93481255 345.45724869 C-116.42777947 345.47801927 -119.92034814 345.50614006 -123.41308594 345.55175781 C-127.43948939 345.60400946 -131.46548227 345.62303198 -135.4921875 345.640625 C-136.73112762 345.66127014 -137.97006775 345.68191528 -139.24655151 345.70318604 C-147.26871092 345.70523919 -155.1023612 345.10918801 -161.31295776 339.49957275 C-165.74562119 334.71210573 -167.62615064 330.1179536 -167.62109566 323.55911541 C-167.62507775 322.41705661 -167.62905985 321.2749978 -167.63316262 320.09833115 C-167.62733693 318.84833716 -167.62151125 317.59834318 -167.61550903 316.31047058 C-167.61638131 314.96559436 -167.61813271 313.62071847 -167.62068737 312.2758444 C-167.62516052 308.58158611 -167.61715766 304.88744374 -167.60713124 301.19320023 C-167.59849859 297.20892918 -167.60141677 293.22466473 -167.60293579 289.24038696 C-167.60398476 282.33780047 -167.59770691 275.43525177 -167.58646011 268.53267479 C-167.57020969 258.55269841 -167.56499758 248.57274031 -167.56248413 238.59275214 C-167.55810631 222.40109848 -167.54479484 206.20946498 -167.52587891 190.01782227 C-167.50752236 174.28865662 -167.49336475 158.55949645 -167.48486328 142.83032227 C-167.48433783 141.86086232 -167.48381239 140.89140237 -167.48327102 139.89256486 C-167.48066095 135.0290949 -167.47813353 130.16562491 -167.47564721 125.3021549 C-167.454912 84.95141871 -167.41804077 44.60071977 -167.375 4.25 C-141.965 4.25 -116.555 4.25 -90.375 4.25 C-90.045 20.75 -89.715 37.25 -89.375 54.25 C-86.735 49.63 -84.095 45.01 -81.375 40.25 C-78.44021802 36.41847908 -75.58175063 32.82063722 -72.375 29.25 C-71.75109375 28.54359375 -71.1271875 27.8371875 -70.484375 27.109375 C-52.33618294 7.74113642 -25.91334649 -0.17830284 0 0 Z " fill="#000000" transform="translate(1396.375,1696.75)"/>
<path d="M0 0 C25.41 0 50.82 0 77 0 C77 112.53 77 225.06 77 341 C13.48796296 341 13.48796296 341 5.47265625 333.60546875 C0.42792865 328.10577898 -0.12584842 321.41686515 -0.12304783 314.26415443 C-0.12503888 313.13752156 -0.12702993 312.01088868 -0.12908131 310.85011542 C-0.12616847 309.62248901 -0.12325563 308.39486261 -0.12025452 307.1300354 C-0.12110894 305.8181721 -0.12196337 304.50630879 -0.12284368 303.15469205 C-0.12507727 299.51973346 -0.1210829 295.88480439 -0.11606562 292.24984956 C-0.11174501 288.327628 -0.11320869 284.40540809 -0.1139679 280.48318481 C-0.11449211 273.68976065 -0.11135602 266.89634609 -0.10573006 260.10292435 C-0.09760117 250.28079103 -0.09499841 240.45866235 -0.09374207 230.63652603 C-0.09155373 214.70055248 -0.08489957 198.76458405 -0.07543945 182.82861328 C-0.06625969 167.34879583 -0.05918161 151.86897978 -0.05493164 136.38916016 C-0.05453756 134.95776679 -0.05453756 134.95776679 -0.05413551 133.49745639 C-0.05283047 128.7101774 -0.05156676 123.9228984 -0.05032361 119.1356194 C-0.0399578 79.42374172 -0.02152315 39.71187351 0 0 Z " fill="#000000" transform="translate(1862,1701)"/>
<path d="M0 0 C10.67389256 8.13487586 18.59320764 19.39525041 20.49609375 32.90234375 C21.95516254 48.89941185 18.6886342 62.86572593 8.37890625 75.49609375 C-0.48441015 85.1440316 -12.58280921 91.51832869 -25.80078125 92.23828125 C-41.19695719 92.54962614 -52.10946962 88.53371078 -64.69140625 79.65234375 C-74.20789926 70.34732836 -80.49120817 57.76729884 -80.79638672 44.40405273 C-80.92045043 28.90062778 -76.74804357 16.7847898 -66.50390625 4.90234375 C-47.33973809 -11.74022333 -21.20381102 -14.55646242 0 0 Z " fill="#000000" transform="translate(1930.50390625,1536.09765625)"/>
</svg>
