<?xml version="1.0" encoding="UTF-8"?>
<svg version="1.1" xmlns="http://www.w3.org/2000/svg" width="640" height="640">
<path d="M0 0 C211.2 0 422.4 0 640 0 C640 211.2 640 422.4 640 640 C428.8 640 217.6 640 0 640 C0 428.8 0 217.6 0 0 Z " fill="#FEFEFE" transform="translate(0,0)"/>
<path d="M0 0 C3.70016395 1.23338798 4.54703034 2.63820444 6.9375 5.6875 C10.54078891 10.2047939 14.22111886 14.6286824 18 19 C22.32019064 24.01239838 26.55099728 29.08540533 30.72265625 34.22265625 C33.28204217 37.34396567 35.88601545 40.42443239 38.5 43.5 C43.40558215 49.27542044 48.21701736 55.12253304 53 61 C54.43738792 62.75009206 55.87488992 64.50009043 57.3125 66.25 C58.8757442 68.16605974 60.43818654 70.08277386 62 72 C62.67869141 72.82709473 62.67869141 72.82709473 63.37109375 73.67089844 C89.52907846 105.58860201 106.27328707 135.68712816 104 178 C103.32730828 184.18548237 101.86570415 190.07549579 100 196 C99.79101074 196.680625 99.58202148 197.36125 99.36669922 198.0625 C91.11852466 224.160095 72.2113903 247.53009406 47.8515625 260.23046875 C19.19668933 274.45791979 -11.40368141 277.56020378 -41.98779297 267.33544922 C-57.86639551 261.74675046 -71.30808116 251.89043029 -83 240 C-83.83273438 239.16597656 -84.66546875 238.33195313 -85.5234375 237.47265625 C-91.40173519 231.28339059 -95.92747728 224.48291149 -100 217 C-100.34450195 216.36707031 -100.68900391 215.73414063 -101.04394531 215.08203125 C-113.85321372 191.00107974 -117.75235304 162.46006528 -110.2734375 135.921875 C-108.24532139 129.45382903 -105.87913963 123.13976525 -103 117 C-102.77183594 116.37013184 -102.54367188 115.74026367 -102.30859375 115.09130859 C-101.4098729 112.98832351 -100.63143526 111.612443 -99 110 C-91.79326335 107.22853521 -83.42364902 107.69208384 -75.8125 107.75 C-74.78447266 107.74226563 -73.75644531 107.73453125 -72.69726562 107.7265625 C-66.7806488 107.74170419 -61.66819429 108.28935933 -56 110 C-55.99742187 109.20722656 -55.99484375 108.41445312 -55.9921875 107.59765625 C-55.34553774 88.0903886 -49.81405641 69.31946653 -41 52 C-40.43410156 50.845 -39.86820312 49.69 -39.28515625 48.5 C-34.98099997 40.07398111 -29.69339015 32.52332763 -24 25 C-23.30261719 24.06414062 -22.60523438 23.12828125 -21.88671875 22.1640625 C-15.44697578 13.89305552 -7.75776688 7.00141017 0 0 Z " fill="#DD2C00" transform="translate(325,117)"/>
<path d="M0 0 C1.5628842 1.35083459 3.10469212 2.72642035 4.625 4.125 C5.45386719 4.86234375 6.28273438 5.5996875 7.13671875 6.359375 C21.1132514 19.45836119 31.27434147 38.3834262 31.92578125 57.76171875 C31.94529956 59.77855517 31.94871301 61.7956003 31.9375 63.8125 C31.93186035 64.8739624 31.9262207 65.9354248 31.92041016 67.02905273 C31.68694059 82.16643367 27.59539098 95.71783648 20.625 109.125 C31.74417684 119.95638638 44.19917215 127.78032354 58.1640625 134.43359375 C61.09686164 135.86689175 63.86127142 137.39369876 66.625 139.125 C63.65875284 142.09124716 60.12075212 142.83205138 56.1875 144.125 C55.43017578 144.38539063 54.67285156 144.64578125 53.89257812 144.9140625 C28.78846261 153.26102282 -0.07488849 151.03555252 -23.984375 139.90234375 C-36.25835442 133.46840293 -46.65599622 126.00901805 -56.375 116.125 C-57.20773438 115.29097656 -58.04046875 114.45695313 -58.8984375 113.59765625 C-64.77673519 107.40839059 -69.30247728 100.60791149 -73.375 93.125 C-73.71950195 92.49207031 -74.06400391 91.85914063 -74.41894531 91.20703125 C-87.22821372 67.12607974 -91.12735304 38.58506528 -83.6484375 12.046875 C-81.62032139 5.57882903 -79.25413963 -0.73523475 -76.375 -6.875 C-76.14683594 -7.50486816 -75.91867188 -8.13473633 -75.68359375 -8.78369141 C-74.78437122 -10.8878504 -74.00881293 -12.26289527 -72.375 -13.875 C-49.38083534 -22.60587624 -18.78301391 -14.49813886 0 0 Z " fill="#FFC300" transform="translate(298.375,240.875)"/>
<path d="M0 0 C2.0499201 0.60348557 4.09767974 1.21431222 6.14453125 1.828125 C7.28510986 2.1674707 8.42568848 2.50681641 9.60083008 2.85644531 C28.28418827 9.14193334 43.90135196 24.81811838 53 42 C58.65434176 53.72033606 61.38470654 64.69960706 61.3125 77.6875 C61.30404053 79.2796936 61.30404053 79.2796936 61.29541016 80.90405273 C61.07629422 95.11079262 58.01274562 109.98088157 50 122 C31.56396851 114.39078889 18.22013038 86.65600306 10.94042969 69.50341797 C3.52665932 51.11225332 -0.39681011 33.08190938 -0.125 13.1875 C-0.11597656 11.91068359 -0.10695313 10.63386719 -0.09765625 9.31835938 C-0.07438789 6.21203284 -0.04170155 3.10612428 0 0 Z " fill="#FE9000" transform="translate(269,227)"/>
<path d="M0 0 C3.3 0 6.6 0 10 0 C10.33 7.92 10.66 15.84 11 24 C12.65 22.68 14.3 21.36 16 20 C20.71513169 17.64243416 26.89921074 18.41769255 32 19 C37.98667515 21.59083314 41.63418159 26.59429165 45 32 C47.41272245 39.23816736 47.16017156 48.60588072 44 55.5625 C40.75133467 61.13164057 36.10943312 64.96352229 30 67 C23.05942984 67.78487869 18.17000502 67.26882108 12.36328125 63.2890625 C11.91339844 62.86367188 11.46351563 62.43828125 11 62 C11 61.34 11 60.68 11 60 C10.34 60 9.68 60 9 60 C9 61.98 9 63.96 9 66 C6.03 66 3.06 66 0 66 C0 44.22 0 22.44 0 0 Z " fill="#5D5D5D" transform="translate(302,457)"/>
<path d="M0 0 C7.16558357 5.28411749 7.16558357 5.28411749 10.08984375 7.79296875 C20.92883325 17.03182623 34.12261788 24.00821038 47 30 C44.03375284 32.96624716 40.49575212 33.70705138 36.5625 35 C35.42651367 35.39058594 35.42651367 35.39058594 34.26757812 35.7890625 C15.82262526 41.92189318 -5.14542772 42.24102403 -24 37.75 C-24.85899902 37.54560303 -25.71799805 37.34120605 -26.60302734 37.13061523 C-31.09109142 35.92060244 -34.02420154 34.78443935 -37 31 C-35.87464844 30.48953125 -35.87464844 30.48953125 -34.7265625 29.96875 C-20.45981073 23.21270634 -9.00105212 12.9544554 0 0 Z " fill="#FE9101" transform="translate(318,350)"/>
<path d="M0 0 C4.5963148 2.60544398 7.18423486 6.2680476 9.26171875 11.11328125 C9.75952222 13.91359594 9.73263747 16.61611301 9.65234375 19.453125 C9.64668396 20.22008194 9.64102417 20.98703888 9.63519287 21.77723694 C9.61298369 24.20241439 9.56282137 26.62605819 9.51171875 29.05078125 C9.49163355 30.70505663 9.47338633 32.35935541 9.45703125 34.01367188 C9.41317034 38.04745673 9.34425512 42.08010991 9.26171875 46.11328125 C5.96171875 46.11328125 2.66171875 46.11328125 -0.73828125 46.11328125 C-1.06828125 44.79328125 -1.39828125 43.47328125 -1.73828125 42.11328125 C-2.19976562 42.47421875 -2.66125 42.83515625 -3.13671875 43.20703125 C-8.6517404 47.13076207 -13.03304271 48.12751901 -19.73828125 47.11328125 C-25.01925529 45.3197429 -27.53723376 42.50328923 -30.73828125 38.11328125 C-32.32949579 33.33963763 -32.5370721 28.9631127 -30.55078125 24.36328125 C-26.9562037 19.90104705 -23.34340049 17.38236485 -17.73828125 16.11328125 C-11.66790624 15.63086734 -6.48294797 16.11513631 -0.73828125 18.11328125 C-1.74539091 13.05390804 -1.74539091 13.05390804 -4.92578125 9.17578125 C-9.70395284 7.37069421 -13.26833015 7.45036213 -17.92578125 9.55078125 C-18.85390625 10.06640625 -19.78203125 10.58203125 -20.73828125 11.11328125 C-22.80078125 12.05078125 -22.80078125 12.05078125 -24.73828125 12.11328125 C-27.48828125 10.17578125 -27.48828125 10.17578125 -29.73828125 8.11328125 C-28.00775501 4.20078715 -26.21311967 2.27158028 -22.546875 0.10546875 C-15.62667465 -2.33921955 -6.96994375 -2.25702886 0 0 Z " fill="#5E5E5E" transform="translate(383.73828125,476.88671875)"/>
<path d="M0 0 C5.99000559 2.70478934 10.08508527 7.35652771 12.890625 13.22265625 C13.515625 16.34765625 13.515625 16.34765625 13.515625 25.34765625 C1.965625 25.34765625 -9.584375 25.34765625 -21.484375 25.34765625 C-19.31220892 32.95056501 -19.31220892 32.95056501 -15.796875 35.84765625 C-11.800074 37.6575284 -8.79645422 38.22732041 -4.484375 37.34765625 C-1.22748506 35.56557064 -1.22748506 35.56557064 1.515625 33.34765625 C3.453125 31.91015625 3.453125 31.91015625 5.515625 31.34765625 C9.265625 32.72265625 9.265625 32.72265625 12.515625 34.34765625 C11.36810485 39.22461687 8.53271809 41.1939265 4.68359375 44.015625 C-1.52375201 47.82950771 -7.34155788 48.18380172 -14.484375 47.34765625 C-21.67780723 45.27514291 -25.64611654 41.70676045 -29.42578125 35.3359375 C-32.84808947 28.9080597 -32.58238931 19.79262983 -30.8359375 12.72265625 C-25.19443337 0.37885234 -12.58429865 -3.30436773 0 0 Z " fill="#5E5E5E" transform="translate(282.484375,476.65234375)"/>
<path d="M0 0 C4.58323988 2.99313625 8.59205175 7.0591035 11.0625 12 C11.0625 16.29 11.0625 20.58 11.0625 25 C-0.1575 25 -11.3775 25 -22.9375 25 C-20.76533392 32.60290876 -20.76533392 32.60290876 -17.25 35.5 C-13.253199 37.30987215 -10.24957922 37.87966416 -5.9375 37 C-2.68061006 35.21791439 -2.68061006 35.21791439 0.0625 33 C2 31.5625 2 31.5625 4.0625 31 C7.8125 32.375 7.8125 32.375 11.0625 34 C9.91883045 38.86059559 7.11783796 40.9703295 3.19921875 43.70703125 C-2.65930233 47.25213267 -9.24594822 47.84955438 -15.9375 47 C-23.23718198 44.64731504 -28.44435271 39.81163722 -31.9375 33 C-34.12278461 26.23020224 -34.33115606 17.01870311 -31.375 10.5 C-24.72020342 -0.53606835 -12.15986744 -4.30314943 0 0 Z " fill="#5E5E5E" transform="translate(472.9375,477)"/>
<path d="M0 0 C13.2 0 26.4 0 40 0 C40 3.3 40 6.6 40 10 C30.1 10 20.2 10 10 10 C10 15.94 10 21.88 10 28 C18.91 28 27.82 28 37 28 C37 31.3 37 34.6 37 38 C28.09 38 19.18 38 10 38 C10 46.91 10 55.82 10 65 C6.7 65 3.4 65 0 65 C0 43.55 0 22.1 0 0 Z " fill="#5D5D5D" transform="translate(157,457)"/>
<path d="M0 0 C0.69480469 -0.02449219 1.38960938 -0.04898437 2.10546875 -0.07421875 C8.54355842 -0.11059214 11.96886808 2.3323487 16.5 6.625 C17.03625 7.2025 17.5725 7.78 18.125 8.375 C17.125 11.375 17.125 11.375 14.8125 12.625 C11.89685167 13.4386693 10.8834491 13.49561995 8.125 12.375 C7.0421875 11.570625 7.0421875 11.570625 5.9375 10.75 C1.87030156 8.76159187 -1.52495641 9.58839081 -5.875 10.375 C-6.205 12.025 -6.535 13.675 -6.875 15.375 C-4.03122271 17.27085153 -1.91264821 17.92487401 1.36865234 18.66845703 C8.32463734 20.25128642 13.21460345 21.99694664 18.125 27.375 C19.88879404 30.90258807 19.77882198 34.53379585 19.125 38.375 C16.74867822 42.81362962 13.03377506 46.23621616 8.23828125 47.9375 C1.29673869 49.37456611 -5.86985392 49.40412201 -12.1171875 45.796875 C-15.36032356 43.17353828 -17.63895334 39.86458796 -19.875 36.375 C-16.5071661 33.70970349 -14.28617361 32.375 -9.875 32.375 C-7.0625 34.75 -7.0625 34.75 -4.875 37.375 C-3.29539731 38.95460269 -1.67963184 38.54486544 0.5 38.5625 C1.29148437 38.57667969 2.08296875 38.59085938 2.8984375 38.60546875 C5.41231333 38.52007509 5.41231333 38.52007509 8.125 36.375 C8.25940778 33.94580135 8.25940778 33.94580135 7.125 31.375 C4.41366492 30.11975228 1.9653008 29.22844492 -0.875 28.375 C-12.76869847 24.57631527 -12.76869847 24.57631527 -16.875 19.375 C-18.50790762 16.10918475 -18.55286532 12.89103041 -17.875 9.375 C-13.44693482 1.94681248 -8.42412064 0.0154571 0 0 Z " fill="#5E5E5E" transform="translate(416.875,475.625)"/>
<path d="M0 0 C1.60875 0.020625 3.2175 0.04125 4.875 0.0625 C4.875 3.6925 4.875 7.3225 4.875 11.0625 C3.66263672 10.95808594 3.66263672 10.95808594 2.42578125 10.8515625 C0.82283203 10.77035156 0.82283203 10.77035156 -0.8125 10.6875 C-1.86824219 10.61789062 -2.92398438 10.54828125 -4.01171875 10.4765625 C-7.38565032 11.11155589 -9.12687899 11.9779656 -11.18041992 14.77587891 C-13.44315019 20.25345237 -12.91510403 26.58604509 -12.9375 32.4375 C-12.96066369 33.85550688 -12.98603293 35.27347954 -13.01367188 36.69140625 C-13.07628026 40.14841045 -13.10880753 43.60493093 -13.125 47.0625 C-14.77074566 47.08938151 -16.41661413 47.10884123 -18.0625 47.125 C-18.97902344 47.13660156 -19.89554688 47.14820313 -20.83984375 47.16015625 C-23.125 47.0625 -23.125 47.0625 -24.125 46.0625 C-24.2178726 44.65024954 -24.24246772 43.23341066 -24.23852539 41.81811523 C-24.23844986 40.91725693 -24.23837433 40.01639862 -24.23829651 39.08824158 C-24.23313522 38.10908279 -24.22797394 37.12992401 -24.22265625 36.12109375 C-24.2212413 35.12368668 -24.21982635 34.1262796 -24.21836853 33.09864807 C-24.21275114 29.89906876 -24.20019571 26.69955831 -24.1875 23.5 C-24.18248724 21.33658955 -24.17792395 19.17317801 -24.17382812 17.00976562 C-24.16277606 11.69398371 -24.14549979 6.37825354 -24.125 1.0625 C-20.825 1.0625 -17.525 1.0625 -14.125 1.0625 C-13.795 2.7125 -13.465 4.3625 -13.125 6.0625 C-12.17625 5.258125 -11.2275 4.45375 -10.25 3.625 C-6.6906336 0.60727631 -4.70882488 -0.06036955 0 0 Z " fill="#646464" transform="translate(246.125,475.9375)"/>
<path d="M0 0 C4.38544865 2.19272433 7.23315916 4.38658225 9 9 C9.89331384 16.11342503 9.41341405 21.27448988 5 27 C1.58143305 29.94376599 -1.49211711 30.53900646 -6.0078125 30.3515625 C-10.33809403 29.58739517 -13.1268527 27.20498475 -15.64453125 23.73046875 C-17.20591065 20.58521168 -17.4017455 18.49474555 -17.375 15 C-17.38273437 13.989375 -17.39046875 12.97875 -17.3984375 11.9375 C-16.8003342 7.52795413 -14.83766176 4.91157309 -11.875 1.6875 C-7.85912736 -0.66964264 -4.55027496 -0.79449245 0 0 Z " fill="#FBFBFB" transform="translate(329,485)"/>
<path d="M0 0 C3.3 0 6.6 0 10 0 C10 14.85 10 29.7 10 45 C6.7 45 3.4 45 0 45 C0 30.15 0 15.3 0 0 Z " fill="#5A5A5A" transform="translate(203,477)"/>
<path d="M0 0 C2.37109375 1.02734375 2.37109375 1.02734375 4 2 C3.76001446 8.11963135 3.76001446 8.11963135 1.66796875 10.54296875 C-2.74465628 14.2040518 -5.31154685 15.34130719 -11 15 C-14.34265205 13.79293121 -14.94704566 13.07943151 -17 10 C-17.64261656 6.5115101 -17.13954734 5.22427251 -15.25 2.1875 C-10.42233163 -1.06189217 -5.66849131 -0.74072445 0 0 Z " fill="#F8F8F8" transform="translate(379,501)"/>
<path d="M0 0 C2.76911812 1.62273462 5.09432507 3.40351791 7 6 C7 7.32 7 8.64 7 10 C-0.92 10 -8.84 10 -17 10 C-13.33253396 2.66506792 -8.78568868 -2.25965889 0 0 Z " fill="#FAFAFA" transform="translate(467,484)"/>
<path d="M0 0 C2.76911812 1.62273462 5.09432507 3.40351791 7 6 C7 7.32 7 8.64 7 10 C-0.92 10 -8.84 10 -17 10 C-13.33253396 2.66506792 -8.78568868 -2.25965889 0 0 Z " fill="#FAFAFA" transform="translate(278,484)"/>
<path d="M0 0 C2.4375 1.5625 2.4375 1.5625 4 4 C3.9375 7.625 3.9375 7.625 3 11 C-0.49124017 13.32749345 -1.89222251 13.50299316 -6 13 C-8.4375 11.4375 -8.4375 11.4375 -10 9 C-9.9375 5.375 -9.9375 5.375 -9 2 C-5.50875983 -0.32749345 -4.10777749 -0.50299316 0 0 Z " fill="#626262" transform="translate(211,456)"/>
</svg>
