<?xml version="1.0" encoding="UTF-8"?>
<svg version="1.1" xmlns="http://www.w3.org/2000/svg" width="225" height="225">
<path d="M0 0 C74.25 0 148.5 0 225 0 C225 74.25 225 148.5 225 225 C150.75 225 76.5 225 0 225 C0 150.75 0 76.5 0 0 Z " fill="#CF0000" transform="translate(0,0)"/>
<path d="M0 0 C1.8253125 -0.01546875 1.8253125 -0.01546875 3.6875 -0.03125 C7.62073581 0.59955197 8.55052575 1.44059152 11 4.5 C11.51898193 6.87921143 11.51898193 6.87921143 11.54589844 9.54394531 C11.56561707 10.54468079 11.58533569 11.54541626 11.60565186 12.57647705 C11.60688049 13.64952087 11.60810913 14.7225647 11.609375 15.828125 C11.63417938 17.48433868 11.63417938 17.48433868 11.65948486 19.17401123 C11.70805626 22.69939689 11.7293569 26.22435089 11.75 29.75 C11.7781519 32.14064682 11.80807822 34.53127346 11.83984375 36.921875 C11.91381769 42.7811714 11.96540665 48.64034594 12 54.5 C18.76562088 47.75751977 25.52855967 41.01236424 32.2880621 34.26375008 C35.42664081 31.1303964 38.56614566 27.99798238 41.70776367 24.86767578 C44.73791076 21.84837096 47.76562919 18.82665051 50.7916584 15.80321884 C51.94825107 14.64847799 53.10572546 13.49461959 54.26408195 12.3416481 C55.88272312 10.73023509 57.49823904 9.11575114 59.11303711 7.50048828 C60.03459091 6.58115509 60.95614471 5.6618219 61.90562439 4.71463013 C64.02887614 2.68361389 64.02887614 2.68361389 65 0.5 C68.10367497 0.35484323 71.20648027 0.26599147 74.3125 0.1875 C75.19357422 0.14560547 76.07464844 0.10371094 76.98242188 0.06054688 C79.41335342 0.01433145 81.61224758 0.03827992 84 0.5 C86.16796875 2.70703125 86.16796875 2.70703125 87 5.5 C86.63289883 9.90316884 85.13089355 11.86022159 82.03100586 14.9230957 C80.76981178 16.18383659 80.76981178 16.18383659 79.48313904 17.470047 C78.56960159 18.3629393 77.65606415 19.2558316 76.71484375 20.17578125 C75.78402481 21.1009404 74.85320587 22.02609955 73.8941803 22.97929382 C71.42543803 25.43280023 68.94491957 27.87405455 66.46173096 30.31292725 C63.92753232 32.80612896 61.40468971 35.31076396 58.88085938 37.81445312 C53.93161028 42.72086764 48.96982274 47.61442854 44 52.5 C44.77566374 53.91940785 45.5542332 55.337228 46.33398438 56.75439453 C46.76723022 57.54411652 47.20047607 58.3338385 47.64685059 59.14749146 C49.70433683 62.72451993 52.07924625 66.03773686 54.5 69.375 C55.5689319 70.86891693 56.63659574 72.36374184 57.703125 73.859375 C58.24904297 74.62443359 58.79496094 75.38949219 59.35742188 76.17773438 C62.57650084 80.72884602 65.6993295 85.34581055 68.83496094 89.95458984 C71.97489643 94.56126748 75.14394002 99.14559457 78.34375 103.7109375 C79.07561523 104.75620605 79.80748047 105.80147461 80.56152344 106.87841797 C81.99920123 108.92908154 83.43986725 110.97765398 84.88378906 113.02392578 C85.8617041 114.41973877 85.8617041 114.41973877 86.859375 115.84375 C87.73287598 117.08415039 87.73287598 117.08415039 88.62402344 118.34960938 C90 120.5 90 120.5 91 123.5 C89.5625 126.6875 89.5625 126.6875 88 129.5 C71.78456685 131.90686709 71.78456685 131.90686709 66.08795166 128.28399658 C61.89208986 124.22276644 59.1627663 119.1033337 56.3125 114.0625 C55.36259752 112.50995055 54.40522816 110.96194641 53.44067383 109.41845703 C51.50464086 106.30457575 49.60465082 103.17304807 47.73144531 100.02099609 C43.80864879 93.46322844 39.50573466 87.17598787 35.1875 80.875 C34.12946167 79.28667358 34.12946167 79.28667358 33.05004883 77.66625977 C32.4083374 76.71162842 31.76662598 75.75699707 31.10546875 74.7734375 C30.55012451 73.94247559 29.99478027 73.11151367 29.42260742 72.25537109 C28.71841675 71.3864624 28.71841675 71.3864624 28 70.5 C25.85644463 70.27596949 25.85644463 70.27596949 24.265625 72.07421875 C23.60046875 72.77160156 22.9353125 73.46898438 22.25 74.1875 C19.87066058 76.67456542 17.79128811 78.63760718 14.89990234 80.54394531 C12.95450564 82.16570935 12.11274939 83.07289528 11.46118164 85.54109192 C11.27601519 88.05678278 11.27394313 90.51339331 11.3359375 93.03515625 C11.329608 94.40866493 11.329608 94.40866493 11.32315063 95.80992126 C11.31229751 98.72827634 11.340349 101.64435615 11.375 104.5625 C11.39904646 107.48390478 11.41423927 110.40429223 11.40542603 113.32579041 C11.40084924 115.14108672 11.41556329 116.95655829 11.45175171 118.77149963 C11.44914483 124.86886887 11.44914483 124.86886887 9.18212891 128.05444336 C6.07403445 130.11340815 3.69743419 130.03133419 0 130 C-1.8253125 130.01546875 -1.8253125 130.01546875 -3.6875 130.03125 C-7.62022469 129.40053 -8.55275562 128.5609152 -11 125.5 C-11.50336456 123.12928009 -11.50336456 123.12928009 -11.50793457 120.45227051 C-11.51921387 119.43443985 -11.53049316 118.41660919 -11.54211426 117.36793518 C-11.53401733 116.2571611 -11.52592041 115.14638702 -11.51757812 114.00195312 C-11.52809204 112.24044167 -11.52809204 112.24044167 -11.53881836 110.44334412 C-11.55340485 107.22625004 -11.54998943 104.00981449 -11.53730202 100.79273033 C-11.52716841 97.42467245 -11.53656868 94.05665826 -11.54284668 90.68859863 C-11.55012209 85.03271598 -11.54053839 79.37704232 -11.52148438 73.72119141 C-11.49971556 67.1840447 -11.50676702 60.64739701 -11.52879 54.11026239 C-11.54694724 48.49568491 -11.54950083 42.88125757 -11.53903532 37.26666021 C-11.53280206 33.91414556 -11.53195981 30.56186539 -11.54518127 27.20936584 C-11.55531706 23.4719142 -11.53988539 19.73542655 -11.51757812 15.99804688 C-11.52567505 14.8872728 -11.53377197 13.77649872 -11.54211426 12.63206482 C-11.53083496 11.61423416 -11.51955566 10.5964035 -11.50793457 9.54772949 C-11.50642647 8.66431633 -11.50491837 7.78090317 -11.50336456 6.87071991 C-10.17418048 0.61059873 -5.66905279 -0.04804282 0 0 Z " fill="#FEFCFC" transform="translate(74,46.5)"/>
<path d="M0 0 C74.25 0 148.5 0 225 0 C225 74.25 225 148.5 225 225 C150.75 225 76.5 225 0 225 C0 150.75 0 76.5 0 0 Z M4 4 C4 75.61 4 147.22 4 221 C75.61 221 147.22 221 221 221 C221 149.39 221 77.78 221 4 C149.39 4 77.78 4 4 4 Z " fill="#FCF5F5" transform="translate(0,0)"/>
</svg>
