<?xml version="1.0" encoding="UTF-8"?>
<svg version="1.1" xmlns="http://www.w3.org/2000/svg" width="225" height="225">
<path d="M0 0 C74.25 0 148.5 0 225 0 C225 74.25 225 148.5 225 225 C150.75 225 76.5 225 0 225 C0 150.75 0 76.5 0 0 Z " fill="#577ADE" transform="translate(0,0)"/>
<path d="M0 0 C73.92 0 147.84 0 224 0 C220.0694988 4.58558473 216.18466828 8.95894597 211.92124939 13.19900513 C211.33978623 13.78132271 210.75832308 14.36364029 210.15923983 14.96360385 C208.22953425 16.89494348 206.29630061 18.82271064 204.36303711 20.75048828 C202.97105277 22.14219026 201.57928917 23.53411304 200.18772888 24.92623901 C196.42150909 28.69274501 192.65221957 32.45616527 188.88236308 36.21903086 C184.93243859 40.16268636 180.98536271 44.10919088 177.03797913 48.0553894 C169.56274553 55.52751788 162.084968 62.99709508 154.60626656 70.46575248 C146.11041409 78.95044023 137.61738812 87.43795481 129.12460697 95.92571664 C114.60758501 110.43406004 100.08845075 124.94028673 85.56695557 139.44415283 C84.95384649 140.05652231 84.34073742 140.66889179 83.70904928 141.29981792 C82.58405473 142.4234437 81.45904514 143.54705442 80.33401626 144.67064583 C78.88923186 146.11365144 77.44461155 147.55682135 76 149 C75.09091668 149.89734297 74.18183336 150.79468594 73.24520206 151.71922112 C70.96566563 153.94246438 70.96566563 153.94246438 69.125 156.4375 C67.33993347 158.59008023 65.69449777 160.16927723 63.5625 161.9375 C61.22345042 163.87925878 59.47368458 165.6315785 57.5 168 C55.0791758 170.90498904 52.58413236 173.15905637 49.6953125 175.56640625 C46.34622849 178.39846577 43.43392319 181.46052793 40.6875 184.875 C38.07543463 188.08034205 35.04428366 190.66851511 31.91015625 193.3515625 C27.31803706 197.31449563 23.42452578 201.77900566 19.55078125 206.42578125 C19.03902344 206.94527344 18.52726562 207.46476563 18 208 C17.34 208 16.68 208 16 208 C16 208.66 16 209.32 16 210 C12.61168704 213.68728175 8.84034635 216.79971138 5 220 C3.35 221.65 1.7 223.3 0 225 C0 150.75 0 76.5 0 0 Z " fill="#E97940" transform="translate(0,0)"/>
<path d="M0 0 C0 74.25 0 148.5 0 225 C-1.485 224.01 -1.485 224.01 -3 223 C-3 222.34 -3 221.68 -3 221 C-3.8353125 220.6596875 -3.8353125 220.6596875 -4.6875 220.3125 C-9.82591917 217.39609993 -13.27057021 212.47531575 -17 208 C-18.65510367 206.3203185 -20.32329668 204.65789928 -22 203 C-23.34003269 201.66135263 -24.6792947 200.32193358 -26.01802063 198.98197937 C-26.78216782 198.21783218 -27.546315 197.453685 -28.33361816 196.66638184 C-56.22241211 168.77758789 -84.11120605 140.88879395 -112 113 C-110.47832481 109.41689893 -108.37012987 107.12102609 -105.62815857 104.38092041 C-104.70971161 103.45827896 -103.79126465 102.53563751 -102.84498596 101.58503723 C-101.82440663 100.56994099 -100.80372762 99.55494495 -99.78295898 98.54003906 C-98.70998602 97.465993 -97.6374462 96.39151409 -96.56530762 95.31663513 C-93.65472995 92.40121185 -90.73794359 89.49207389 -87.81987262 86.58415318 C-84.77011029 83.54317117 -81.72561794 80.49692159 -78.68043518 77.45135498 C-73.56843654 72.34029267 -68.45258001 67.23311794 -63.33422852 62.12841797 C-57.4084871 56.21842273 -51.48800942 50.30319624 -45.5705027 44.3849566 C-39.8843824 38.69822706 -34.1954155 33.01435475 -28.50483894 27.33208466 C-26.07942324 24.91020821 -23.65486659 22.48747646 -21.23095512 20.06409454 C-18.38108402 17.21522426 -15.52868956 14.36890484 -12.67427826 11.52458382 C-11.62405165 10.47729004 -10.57468189 9.42913625 -9.52620888 8.3800869 C-8.10140206 6.9547931 -6.67323091 5.53286479 -5.24485779 4.11114502 C-4.44457374 3.31253681 -3.64428968 2.5139286 -2.8197546 1.69112015 C-1 -0 -1 -0 0 0 Z " fill="#FEFEFD" transform="translate(225,0)"/>
<path d="M0 0 C36.96 0 73.92 0 112 0 C108.37931034 6.03448276 108.37931034 6.03448276 106 8 C105.34 8 104.68 8 104 8 C103.66935547 8.80630859 103.66935547 8.80630859 103.33203125 9.62890625 C101.54948697 12.80193962 99.1640849 15.30304514 96.6875 17.9375 C96.21376953 18.44990234 95.74003906 18.96230469 95.25195312 19.49023438 C91.76158062 23.2479952 88.15152639 26.87374852 84.50366211 30.47875977 C75.86278211 39.01764216 75.86278211 39.01764216 67.73828125 48.04296875 C65.58739361 50.46452989 63.30388485 52.72374795 61 55 C58.15136993 57.81456574 55.39470688 60.62735252 52.8125 63.6875 C49.26193167 67.84818986 45.3832148 71.65390693 41.5 75.5 C35.64129888 81.30807213 29.96720566 87.13364111 24.9375 93.6875 C23.02836756 95.96614194 20.95421796 97.6987384 18.640625 99.55078125 C16.05601826 101.83385053 13.89813558 104.46141071 11.66015625 107.078125 C8.07416136 111.22944144 4.29421639 114.56462689 0 118 C0 79.06 0 40.12 0 0 Z " fill="#2789DA" transform="translate(0,0)"/>
<path d="M0 0 C6.47243666 5.28879802 12.31646398 11.16418357 18.20922852 17.07885742 C19.95409718 18.82914876 21.70432783 20.57395326 23.45507812 22.31835938 C24.56282133 23.42676228 25.6702549 24.53547476 26.77734375 25.64453125 C27.30222885 26.16739212 27.82711395 26.69025299 28.36790466 27.22895813 C32 30.885009 32 30.885009 32 32 C26.72 32 21.44 32 16 32 C16 29.36 16 26.72 16 24 C13.36 24 10.72 24 8 24 C8 21.36 8 18.72 8 16 C5.36 16 2.72 16 0 16 C0 10.72 0 5.44 0 0 Z " fill="#806EE1" transform="translate(120,120)"/>
<path d="M0 0 C1.32 0.33 2.64 0.66 4 1 C2.02 1.99 2.02 1.99 0 3 C0 5.97 0 8.94 0 12 C-0.99 12.33 -1.98 12.66 -3 13 C-3.66 12.67 -4.32 12.34 -5 12 C-4.67 13.32 -4.34 14.64 -4 16 C-5.98 16.99 -5.98 16.99 -8 18 C-8 18.99 -8 19.98 -8 21 C-9.59643088 23.07536015 -10.4410317 23.91530783 -13.0625 24.3125 C-13.701875 24.539375 -14.34125 24.76625 -15 25 C-15.433125 26.4540625 -15.433125 26.4540625 -15.875 27.9375 C-16.24625 28.948125 -16.6175 29.95875 -17 31 C-20.125 32.375 -20.125 32.375 -23 33 C-23.33 35.31 -23.66 37.62 -24 40 C-26.31 40 -28.62 40 -31 40 C-31.9375 37.4375 -31.9375 37.4375 -32 34 C-29.99941094 31.29297147 -27.51773583 29.21618192 -25 27 C-21.36204523 23.45092035 -17.91071793 19.7642097 -14.5 16 C-11.08794589 12.23431563 -7.59439965 8.59439965 -4 5 C-2.64444707 3.35135455 -1.30368347 1.68996005 0 0 Z " fill="#F6880B" transform="translate(112,0)"/>
<path d="M0 0 C1.32 0.66 2.64 1.32 4 2 C4 8.00897561 0.87005852 11.57707598 -3 16 C-4.44764704 17.19028756 -5.89626437 18.3795538 -7.359375 19.55078125 C-9.94398174 21.83385053 -12.10186442 24.46141071 -14.33984375 27.078125 C-17.88338817 31.18029878 -21.71275594 34.69269744 -26 38 C-26.78095685 30.03424015 -26.78095685 30.03424015 -23.6875 25.9375 C-21 24 -21 24 -18 24 C-18 21.36 -18 18.72 -18 16 C-16.783125 15.95875 -15.56625 15.9175 -14.3125 15.875 C-10.86385353 15.466768 -9.35046145 14.78942379 -7.1875 12.0625 C-6.465625 11.051875 -5.74375 10.04125 -5 9 C-4.01 8.34 -3.02 7.68 -2 7 C-1.95834635 5.33385392 -1.95834635 3.66614608 -2 2 C-1.34 1.34 -0.68 0.68 0 0 Z " fill="#0497D6" transform="translate(26,80)"/>
<path d="M0 0 C0.66 0.33 1.32 0.66 2 1 C-2.99044556 12.22216947 -15.37910524 21.4899575 -24 30 C-25.95881942 26.72079119 -26.05559492 26.23826396 -25.125 22.25 C-24.75375 21.1775 -24.3825 20.105 -24 19 C-23.21625 18.87625 -22.4325 18.7525 -21.625 18.625 C-18.85942178 18.20882007 -18.85942178 18.20882007 -17 16 C-16.83318891 12.91652174 -16.83318891 12.91652174 -17 10 C-14.36 9.67 -11.72 9.34 -9 9 C-9 6.69 -9 4.38 -9 2 C-8.071875 2.04125 -7.14375 2.0825 -6.1875 2.125 C-2.84190281 2.27136339 -2.84190281 2.27136339 0 0 Z " fill="#0D94D4" transform="translate(57,54)"/>
<path d="M0 0 C0.495 0.99 0.495 0.99 1 2 C0.525625 2.928125 0.05125 3.85625 -0.4375 4.8125 C-1.98078978 7.96081114 -2.30199784 9.57735783 -2 13 C-4.07553648 13.5534764 -5.84365964 14 -8 14 C-9.07525194 16.65228812 -10.09456151 19.28368454 -11 22 C-12.98 22.33 -14.96 22.66 -17 23 C-17.33 25.31 -17.66 27.62 -18 30 C-20.31 30.33 -22.62 30.66 -25 31 C-25.33 33.31 -25.66 35.62 -26 38 C-28.31 38 -30.62 38 -33 38 C-33 35 -33 35 -30.625 32.3125 C-28 30 -28 30 -26 30 C-25.77957031 29.46246094 -25.55914062 28.92492187 -25.33203125 28.37109375 C-23.54948697 25.19806038 -21.1640849 22.69695486 -18.6875 20.0625 C-18.21376953 19.55009766 -17.74003906 19.03769531 -17.25195312 18.50976562 C-15.01408414 16.10045934 -12.74324413 13.74401983 -10.4140625 11.421875 C-8.07946582 9.07972299 -5.87261834 6.66890557 -3.6875 4.1875 C-2.99011719 3.39730469 -2.29273437 2.60710937 -1.57421875 1.79296875 C-1.05472656 1.20128906 -0.53523438 0.60960938 0 0 Z " fill="#DC6C6C" transform="translate(34,82)"/>
<path d="M0 0 C2 2 2 2 2 6 C1.21625 6.28875 0.4325 6.5775 -0.375 6.875 C-3.09671632 7.84912254 -3.09671632 7.84912254 -5 10 C-5.103125 10.66 -5.20625 11.32 -5.3125 12 C-5.539375 12.66 -5.76625 13.32 -6 14 C-6.78375 14.309375 -7.5675 14.61875 -8.375 14.9375 C-11.72750749 16.29446732 -12.2360086 17.93218886 -14 21 C-15.9375 22.1875 -15.9375 22.1875 -18 23 C-18.7425 23.37125 -19.485 23.7425 -20.25 24.125 C-21.11625 24.558125 -21.11625 24.558125 -22 25 C-22 25.99 -22 26.98 -22 28 C-22.66 28 -23.32 28 -24 28 C-24 28.66 -24 29.32 -24 30 C-24.825 30.433125 -25.65 30.86625 -26.5 31.3125 C-27.325 31.869375 -28.15 32.42625 -29 33 C-29.33374277 35.58416247 -29.33374277 35.58416247 -29 38 C-30 39 -30 39 -33.5625 39.0625 C-34.696875 39.041875 -35.83125 39.02125 -37 39 C-27.90625 26.40625 -27.90625 26.40625 -22 24 C-22 23.34 -22 22.68 -22 22 C-19.49416218 19.27305884 -16.87466612 16.89816622 -14 14.5625 C-10.86498773 11.88467702 -8.58579835 9.19822427 -6 6 C-3.8125 3.625 -3.8125 3.625 -2 2 C-1.34 2 -0.68 2 0 2 C0 1.34 0 0.68 0 0 Z " fill="#1991D1" transform="translate(38,186)"/>
<path d="M0 0 C2.64 0 5.28 0 8 0 C6.36567879 3.98544997 3.59476067 6.84491594 0.6875 9.9375 C0.21376953 10.44990234 -0.25996094 10.96230469 -0.74804688 11.49023438 C-5.24014554 16.32646098 -9.76175506 20.95906819 -15 25 C-16 24 -16 24 -16.125 20.5 C-16 17 -16 17 -15 16 C-12.66702567 15.95907063 -10.33294775 15.95758277 -8 16 C-8 13.36 -8 10.72 -8 8 C-5.36 8 -2.72 8 0 8 C0 5.36 0 2.72 0 0 Z " fill="#6F74DD" transform="translate(96,8)"/>
<path d="M0 0 C0.66 0 1.32 0 2 0 C2 0.66 2 1.32 2 2 C2.99 1.67 3.98 1.34 5 1 C5.66 2.65 6.32 4.3 7 6 C4.64046906 8.35953094 3.22104383 8.49141413 0 9 C-0.33 11.31 -0.66 13.62 -1 16 C-3.31 16 -5.62 16 -8 16 C-8.9375 13.4375 -8.9375 13.4375 -9 10 C-7.42447855 7.94835942 -5.69965565 6.32322558 -3.76171875 4.61328125 C-1.77766554 2.92542848 -1.77766554 2.92542848 0 0 Z " fill="#F0831A" transform="translate(89,24)"/>
<path d="M0 0 C0.66 0.99 1.32 1.98 2 3 C1.360625 3.78375 0.72125 4.5675 0.0625 5.375 C-1.98142313 7.79539281 -1.98142313 7.79539281 -3 10 C-3.78375 10.433125 -4.5675 10.86625 -5.375 11.3125 C-8.11137301 12.79542843 -8.11137301 12.79542843 -9.375 15.3125 C-11.57723517 18.95465816 -14.52143986 21.56081686 -18 24 C-18.66 24 -19.32 24 -20 24 C-20.33 24.66 -20.66 25.32 -21 26 C-21 25.34 -21 24.68 -21 24 C-21.66 23.67 -22.32 23.34 -23 23 C-15.41 15.41 -7.82 7.82 0 0 Z " fill="#7677D3" transform="translate(98,126)"/>
<path d="M0 0 C0.33 2.97 0.66 5.94 1 9 C-0.423125 8.9071875 -0.423125 8.9071875 -1.875 8.8125 C-3.421875 8.9053125 -3.421875 8.9053125 -5 9 C-6.54571278 11.31856917 -7.79618552 13.50638429 -9 16 C-10.32 15.67 -11.64 15.34 -13 15 C-13.35305157 11.73571991 -13.22950999 10.3379957 -11.35546875 7.578125 C-10.64003906 6.80984375 -9.92460938 6.0415625 -9.1875 5.25 C-8.47980469 4.47140625 -7.77210937 3.6928125 -7.04296875 2.890625 C-4.75201776 0.77050975 -3.14493254 0 0 0 Z " fill="#ED7F25" transform="translate(79,39)"/>
<path d="M0 0 C1.1725131 0.95117134 2.33787015 1.91117009 3.5 2.875 C4.1496875 3.40867187 4.799375 3.94234375 5.46875 4.4921875 C5.9740625 4.98976563 6.479375 5.48734375 7 6 C7 6.66 7 7.32 7 8 C6.32453125 8.02578125 5.6490625 8.0515625 4.953125 8.078125 C-0.67371772 8.35326411 -0.67371772 8.35326411 -5.5625 10.875 C-7.16009277 13.0308951 -7.16009277 13.0308951 -8 16 C-10.475 15.01 -10.475 15.01 -13 14 C-8.88380164 9.08064098 -4.59589638 4.47352044 0 0 Z " fill="#8671D4" transform="translate(112,112)"/>
<path d="M0 0 C2.97 0 5.94 0 9 0 C6.95652069 4.08695862 4.46513887 6.97162932 1.375 10.25 C0.859375 10.80429687 0.34375 11.35859375 -0.1875 11.9296875 C-1.45425035 13.2902712 -2.72657815 14.64565837 -4 16 C-4.99 15.34 -5.98 14.68 -7 14 C-6.67 13.34 -6.34 12.68 -6 12 C-6.39938767 9.90178785 -6.39938767 9.90178785 -7 8 C-4.69 8 -2.38 8 0 8 C0 5.36 0 2.72 0 0 Z " fill="#5B79DF" transform="translate(72,32)"/>
<path d="M0 0 C0 0.99 0 1.98 0 3 C-1.175625 3.185625 -1.175625 3.185625 -2.375 3.375 C-5.14057822 3.79117993 -5.14057822 3.79117993 -7 6 C-7.64767793 8.57061311 -7.64767793 8.57061311 -8 11 C-8.78375 11.0825 -9.5675 11.165 -10.375 11.25 C-13.10873509 11.72459068 -13.10873509 11.72459068 -14.25 13.875 C-14.85080075 15.57726879 -15.42915146 17.28745438 -16 19 C-16.78375 19.103125 -17.5675 19.20625 -18.375 19.3125 C-21.33045181 19.77595022 -21.33045181 19.77595022 -23 23 C-23.66 23 -24.32 23 -25 23 C-24.52794881 18.75153925 -22.11122478 16.73180712 -19 14 C-18.34 14 -17.68 14 -17 14 C-16.34 12.68 -15.68 11.36 -15 10 C-14.34 10 -13.68 10 -13 10 C-12.34 8.68 -11.68 7.36 -11 6 C-10.34 6 -9.68 6 -9 6 C-8.7525 5.38125 -8.505 4.7625 -8.25 4.125 C-6.18429402 0.61329983 -3.97005001 0 0 0 Z " fill="#4B81D5" transform="translate(64,165)"/>
<path d="M0 0 C2 2 2 2 2 6 C0.824375 6.433125 0.824375 6.433125 -0.375 6.875 C-3.09671632 7.84912254 -3.09671632 7.84912254 -5 10 C-5.1546875 10.99 -5.1546875 10.99 -5.3125 12 C-5.539375 12.66 -5.76625 13.32 -6 14 C-7.6476038 14.71247732 -9.31763529 15.37400383 -11 16 C-11.680625 16.721875 -12.36125 17.44375 -13.0625 18.1875 C-14.0215625 19.0846875 -14.0215625 19.0846875 -15 20 C-17.12109375 19.61328125 -17.12109375 19.61328125 -19 19 C-18.48050781 18.56429687 -17.96101563 18.12859375 -17.42578125 17.6796875 C-13.15440923 14.03204633 -9.50428497 10.38035622 -6 6 C-3.8125 3.625 -3.8125 3.625 -2 2 C-1.34 2 -0.68 2 0 2 C0 1.34 0 0.68 0 0 Z " fill="#298AD3" transform="translate(38,186)"/>
<path d="M0 0 C1.32 0 2.64 0 4 0 C3.4043565 3.54209335 2.05508605 5.45829708 -0.3125 8.125 C-0.90675781 8.80820313 -1.50101563 9.49140625 -2.11328125 10.1953125 C-3.98859582 11.98909166 -5.6285195 12.98439908 -8 14 C-8.99 13.34 -9.98 12.68 -11 12 C-9.71107323 9.12470182 -8.50703617 6.94991702 -6 5 C-3.3125 4.3125 -3.3125 4.3125 -1 4 C-0.67 2.68 -0.34 1.36 0 0 Z " fill="#1292D1" transform="translate(12,100)"/>
<path d="M0 0 C0.33 0.66 0.66 1.32 1 2 C0.2884375 3.3921875 0.2884375 3.3921875 -0.4375 4.8125 C-1.98078978 7.96081114 -2.30199784 9.57735783 -2 13 C-4.07553648 13.5534764 -5.84365964 14 -8 14 C-9.07525194 16.65228812 -10.09456151 19.28368454 -11 22 C-11.66 22 -12.32 22 -13 22 C-13.45291913 18.98053911 -13.45351514 16.78999412 -11.91015625 14.1015625 C-10.3428545 11.99796916 -8.70697107 9.99208338 -7 8 C-6.35417969 7.24460937 -5.70835938 6.48921875 -5.04296875 5.7109375 C-3.37825599 3.79194072 -1.69831641 1.88925139 0 0 Z " fill="#E17062" transform="translate(34,82)"/>
<path d="M0 0 C2.64 0 5.28 0 8 0 C6.42219077 3.71045247 4.09296752 6.29906384 1.375 9.25 C0.55773437 10.14203125 -0.25953125 11.0340625 -1.1015625 11.953125 C-2.04128906 12.96632813 -2.04128906 12.96632813 -3 14 C-3.33 13.34 -3.66 12.68 -4 12 C-4.99 11.67 -5.98 11.34 -7 11 C-6.67 10.01 -6.34 9.02 -6 8 C-4.02 8 -2.04 8 0 8 C0 5.36 0 2.72 0 0 Z " fill="#826DE3" transform="translate(96,8)"/>
<path d="M0 0 C0.33 0.99 0.66 1.98 1 3 C0.360625 3.515625 -0.27875 4.03125 -0.9375 4.5625 C-3.55791681 7.65935623 -3.69389817 10.02067623 -4 14 C-6.31 14 -8.62 14 -11 14 C-11 11 -11 11 -8.625 8.3125 C-6 6 -6 6 -4 6 C-3.566875 5.071875 -3.566875 5.071875 -3.125 4.125 C-2 2 -2 2 0 0 Z " fill="#DA687D" transform="translate(12,106)"/>
<path d="M0 0 C2.64 0 5.28 0 8 0 C6.28032649 3.02990095 4.70761694 5.76327296 2 8 C1.34 8 0.68 8 0 8 C0 5.36 0 2.72 0 0 Z " fill="#826EDC" transform="translate(104,0)"/>
<path d="M0 0 C0.625 1.8125 0.625 1.8125 1 4 C0.01 5.485 0.01 5.485 -1 7 C-1.66 7 -2.32 7 -3 7 C-3 7.66 -3 8.32 -3 9 C-3.66 9 -4.32 9 -5 9 C-5 9.66 -5 10.32 -5 11 C-4.34 11 -3.68 11 -3 11 C-3 11.66 -3 12.32 -3 13 C-4.32 13.33 -5.64 13.66 -7 14 C-7.4375 10.9375 -7.4375 10.9375 -7 7 C-4.94453496 4.33150153 -2.57519531 2.16132464 0 0 Z " fill="#D8755A" transform="translate(42,74)"/>
<path d="M0 0 C2.31 0 4.62 0 7 0 C7 0.99 7 1.98 7 3 C1.53488372 8 1.53488372 8 0 8 C0 5.36 0 2.72 0 0 Z " fill="#D46683" transform="translate(48,168)"/>
<path d="M0 0 C6.57142857 5.14285714 6.57142857 5.14285714 8 9 C5.69 9 3.38 9 1 9 C0.29925156 5.846632 0 3.27275026 0 0 Z " fill="#8270E3" transform="translate(216,216)"/>
<path d="M0 0 C2.66666667 0 5.33333333 0 8 0 C7.04663979 1.31611677 6.08714226 2.62778961 5.125 3.9375 C4.59132813 4.66839844 4.05765625 5.39929688 3.5078125 6.15234375 C2 8 2 8 0 9 C0 6.03 0 3.06 0 0 Z " fill="#C259C0" transform="translate(0,216)"/>
<path d="M0 0 C2.64 0 5.28 0 8 0 C8 2 8 2 5.6875 4.5625 C3 7 3 7 0 8 C0 5.36 0 2.72 0 0 Z " fill="#C458BC" transform="translate(8,208)"/>
<path d="M0 0 C0.66 0.99 1.32 1.98 2 3 C1.67 3.99 1.34 4.98 1 6 C0.21625 6.103125 -0.5675 6.20625 -1.375 6.3125 C-4.33045181 6.77595022 -4.33045181 6.77595022 -6 10 C-6.66 10 -7.32 10 -8 10 C-7.44449305 6.40094092 -6.25112752 5.00090201 -3.4375 2.75 C-2.79683594 2.22921875 -2.15617187 1.7084375 -1.49609375 1.171875 C-1.00238281 0.78515625 -0.50867187 0.3984375 0 0 Z " fill="#3D85D6" transform="translate(47,178)"/>
<path d="M0 0 C1.14926266 0.95421808 2.29430541 1.91352045 3.4375 2.875 C4.07558594 3.40867188 4.71367187 3.94234375 5.37109375 4.4921875 C7 6 7 6 8 8 C5.36 8 2.72 8 0 8 C0 5.36 0 2.72 0 0 Z " fill="#826FE0" transform="translate(152,152)"/>
<path d="M0 0 C2.64 0 5.28 0 8 0 C7.04578192 1.14926266 6.08647955 2.29430541 5.125 3.4375 C4.59132812 4.07558594 4.05765625 4.71367188 3.5078125 5.37109375 C2 7 2 7 0 8 C0 5.36 0 2.72 0 0 Z " fill="#F3860F" transform="translate(144,72)"/>
<path d="M0 0 C0.94875 0.04125 1.8975 0.0825 2.875 0.125 C2.11383449 1.27727823 1.34067307 2.4216386 0.5625 3.5625 C0.13324219 4.20058594 -0.29601562 4.83867187 -0.73828125 5.49609375 C-2.125 7.125 -2.125 7.125 -5.125 8.125 C-5.25 5.25 -5.25 5.25 -5.125 2.125 C-3.125 0.125 -3.125 0.125 0 0 Z " fill="#CC5CA5" transform="translate(29.125,191.875)"/>
<path d="M0 0 C2.64 0 5.28 0 8 0 C6.50902342 3.7952131 4.24299151 5.61042731 1 8 C0 1.125 0 1.125 0 0 Z " fill="#CB609C" transform="translate(32,184)"/>
<path d="M0 0 C2.31 0 4.62 0 7 0 C5.79618552 2.49361571 4.54571278 4.68143083 3 7 C2.01 7 1.02 7 0 7 C0 4.69 0 2.38 0 0 Z " fill="#D66A73" transform="translate(56,160)"/>
<path d="M0 0 C0.66 0.33 1.32 0.66 2 1 C2.625 3.5625 2.625 3.5625 3 6 C0 8 0 8 -3 8 C-3.75 6.25 -3.75 6.25 -4 4 C-2.0625 1.75 -2.0625 1.75 0 0 Z " fill="#1092CD" transform="translate(21,89)"/>
<path d="M0 0 C2.64 0 5.28 0 8 0 C7.04578192 1.14926266 6.08647955 2.29430541 5.125 3.4375 C4.59132812 4.07558594 4.05765625 4.71367188 3.5078125 5.37109375 C2 7 2 7 0 8 C0 5.36 0 2.72 0 0 Z " fill="#F38415" transform="translate(136,80)"/>
<path d="M0 0 C2.64 0 5.28 0 8 0 C7.04578192 1.14926266 6.08647955 2.29430541 5.125 3.4375 C4.59132812 4.07558594 4.05765625 4.71367188 3.5078125 5.37109375 C2 7 2 7 0 8 C0 5.36 0 2.72 0 0 Z " fill="#F5870C" transform="translate(216,0)"/>
<path d="M0 0 C2.31 1.98 4.62 3.96 7 6 C6.67 6.66 6.34 7.32 6 8 C4.02 8 2.04 8 0 8 C0 5.36 0 2.72 0 0 Z " fill="#8876E3" transform="translate(192,192)"/>
<path d="M0 0 C2.31 1.98 4.62 3.96 7 6 C6.67 6.66 6.34 7.32 6 8 C4.02 8 2.04 8 0 8 C0 5.36 0 2.72 0 0 Z " fill="#8472E1" transform="translate(168,168)"/>
<path d="M0 0 C2.31 1.98 4.62 3.96 7 6 C6.67 6.66 6.34 7.32 6 8 C4.02 8 2.04 8 0 8 C0 5.36 0 2.72 0 0 Z " fill="#8371DF" transform="translate(160,160)"/>
<path d="M0 0 C2.64 0 5.28 0 8 0 C7.04882866 1.1725131 6.08882991 2.33787015 5.125 3.5 C4.59132812 4.1496875 4.05765625 4.799375 3.5078125 5.46875 C3.01023438 5.9740625 2.51265625 6.479375 2 7 C1.34 7 0.68 7 0 7 C0 4.69 0 2.38 0 0 Z " fill="#F1821B" transform="translate(128,88)"/>
<path d="M0 0 C2.64 0 5.28 0 8 0 C7.04578192 1.14926266 6.08647955 2.29430541 5.125 3.4375 C4.59132812 4.07558594 4.05765625 4.71367188 3.5078125 5.37109375 C2 7 2 7 0 8 C0 5.36 0 2.72 0 0 Z " fill="#F5870B" transform="translate(160,56)"/>
<path d="M0 0 C2.64 0 5.28 0 8 0 C7.04578192 1.14926266 6.08647955 2.29430541 5.125 3.4375 C4.59132812 4.07558594 4.05765625 4.71367188 3.5078125 5.37109375 C2 7 2 7 0 8 C0 5.36 0 2.72 0 0 Z " fill="#F5870B" transform="translate(168,48)"/>
<path d="M0 0 C2.64 0 5.28 0 8 0 C7.04578192 1.14926266 6.08647955 2.29430541 5.125 3.4375 C4.59132812 4.07558594 4.05765625 4.71367188 3.5078125 5.37109375 C2 7 2 7 0 8 C0 5.36 0 2.72 0 0 Z " fill="#F5870B" transform="translate(176,40)"/>
<path d="M0 0 C2.64 0 5.28 0 8 0 C7.04578192 1.14926266 6.08647955 2.29430541 5.125 3.4375 C4.59132812 4.07558594 4.05765625 4.71367188 3.5078125 5.37109375 C2 7 2 7 0 8 C0 5.36 0 2.72 0 0 Z " fill="#F5870B" transform="translate(184,32)"/>
<path d="M0 0 C2.64 0 5.28 0 8 0 C7.04578192 1.14926266 6.08647955 2.29430541 5.125 3.4375 C4.59132812 4.07558594 4.05765625 4.71367187 3.5078125 5.37109375 C2 7 2 7 0 8 C0 5.36 0 2.72 0 0 Z " fill="#F5870B" transform="translate(192,24)"/>
<path d="M0 0 C2.64 0 5.28 0 8 0 C7.04578192 1.14926266 6.08647955 2.29430541 5.125 3.4375 C4.59132812 4.07558594 4.05765625 4.71367187 3.5078125 5.37109375 C2 7 2 7 0 8 C0 5.36 0 2.72 0 0 Z " fill="#F5870B" transform="translate(200,16)"/>
<path d="M0 0 C2.64 0 5.28 0 8 0 C7.04578192 1.14926266 6.08647955 2.29430541 5.125 3.4375 C4.59132812 4.07558594 4.05765625 4.71367187 3.5078125 5.37109375 C2 7 2 7 0 8 C0 5.36 0 2.72 0 0 Z " fill="#F5870B" transform="translate(208,8)"/>
<path d="M0 0 C0.66 1.32 1.32 2.64 2 4 C-0.65228812 5.07525194 -3.28368454 6.09456151 -6 7 C-6 7.99 -6 8.98 -6 10 C-6.66 10 -7.32 10 -8 10 C-8 10.66 -8 11.32 -8 12 C-8.66 12 -9.32 12 -10 12 C-9.33333333 10.66666667 -8.66666667 9.33333333 -8 8 C-7.7525 7.34 -7.505 6.68 -7.25 6 C-5.43296909 3.09275055 -2.88864108 1.75830327 0 0 Z " fill="#0A92D6" transform="translate(22,204)"/>
<path d="M0 0 C2.31 0.33 4.62 0.66 7 1 C6.02433888 2.16959987 5.044375 3.33561177 4.0625 4.5 C3.51722656 5.1496875 2.97195312 5.799375 2.41015625 6.46875 C1.94480469 6.9740625 1.47945313 7.479375 1 8 C0.67 8 0.34 8 0 8 C0 5.36 0 2.72 0 0 Z " fill="#F17E20" transform="translate(120,96)"/>
<path d="M0 0 C0.94875 0.04125 1.8975 0.0825 2.875 0.125 C1.92078192 1.27426266 0.96147955 2.41930541 0 3.5625 C-0.53367188 4.20058594 -1.06734375 4.83867188 -1.6171875 5.49609375 C-3.125 7.125 -3.125 7.125 -5.125 8.125 C-5.25 5.25 -5.25 5.25 -5.125 2.125 C-3.125 0.125 -3.125 0.125 0 0 Z " fill="#F6860E" transform="translate(157.125,63.875)"/>
<path d="M0 0 C1.98 1.65 3.96 3.3 6 5 C5.67 5.66 5.34 6.32 5 7 C3.02 7 1.04 7 -1 7 C-1.04254356 5.00045254 -1.04080783 2.99958364 -1 1 C-0.67 0.67 -0.34 0.34 0 0 Z " fill="#8472E0" transform="translate(177,177)"/>
<path d="M0 0 C0.78375 0.04125 1.5675 0.0825 2.375 0.125 C2.375 1.115 2.375 2.105 2.375 3.125 C-1.96785714 7.125 -1.96785714 7.125 -4.625 7.125 C-4.75 4.75 -4.75 4.75 -4.625 2.125 C-2.625 0.125 -2.625 0.125 0 0 Z " fill="#D0648E" transform="translate(44.625,175.875)"/>
<path d="M0 0 C1.98 1.65 3.96 3.3 6 5 C5.67 5.66 5.34 6.32 5 7 C3.02 7 1.04 7 -1 7 C-1.04254356 5.00045254 -1.04080783 2.99958364 -1 1 C-0.67 0.67 -0.34 0.34 0 0 Z " fill="#8674E4" transform="translate(185,185)"/>
<path d="M0 0 C0.928125 0.5259375 0.928125 0.5259375 1.875 1.0625 C2.57625 1.371875 3.2775 1.68125 4 2 C4.66 1.67 5.32 1.34 6 1 C6 3.64 6 6.28 6 9 C5.01 8.34 4.02 7.68 3 7 C3 6.34 3 5.68 3 5 C1.68 4.34 0.36 3.68 -1 3 C-0.67 2.01 -0.34 1.02 0 0 Z " fill="#F1EFF8" transform="translate(219,216)"/>
<path d="M0 0 C-0.95043374 1.33897583 -1.91059147 2.67105427 -2.875 4 C-3.40867187 4.7425 -3.94234375 5.485 -4.4921875 6.25 C-4.98976563 6.8275 -5.48734375 7.405 -6 8 C-6.66 8 -7.32 8 -8 8 C-8.36075949 3.55063291 -8.36075949 3.55063291 -6.8125 1.1875 C-4.44785444 -0.36175054 -2.77466419 -0.08628252 0 0 Z " fill="#C95AB1" transform="translate(24,200)"/>
<path d="M0 0 C0 0.99 0 1.98 0 3 C-2.66666667 4.33333333 -5.33333333 5.66666667 -8 7 C-8 5.02 -8 3.04 -8 1 C-5.36 0.67 -2.72 0.34 0 0 Z " fill="#0496D8" transform="translate(48,63)"/>
<path d="M0 0 C0.78375 0.04125 1.5675 0.0825 2.375 0.125 C1.08980435 2.99197492 -0.19629254 5.10107712 -2.625 7.125 C-3.285 7.125 -3.945 7.125 -4.625 7.125 C-4.75 4.75 -4.75 4.75 -4.625 2.125 C-2.625 0.125 -2.625 0.125 0 0 Z " fill="#E17256" transform="translate(84.625,135.875)"/>
<path d="M0 0 C4.8 3.44615385 4.8 3.44615385 5.8125 6.25 C5.874375 6.8275 5.93625 7.405 6 8 C4.35 7.67 2.7 7.34 1 7 C0 4 0 4 0 0 Z " fill="#8776E3" transform="translate(200,200)"/>
<path d="M0 0 C1.2065625 0.0309375 1.2065625 0.0309375 2.4375 0.0625 C1.23368552 2.55611571 -0.01678722 4.74393083 -1.5625 7.0625 C-2.5525 6.7325 -3.5425 6.4025 -4.5625 6.0625 C-3.48963568 0.08511307 -3.48963568 0.08511307 0 0 Z " fill="#D96D6D" transform="translate(68.5625,151.9375)"/>
<path d="M0 0 C1.2065625 0.0309375 1.2065625 0.0309375 2.4375 0.0625 C1.23368552 2.55611571 -0.01678722 4.74393083 -1.5625 7.0625 C-2.5525 6.7325 -3.5425 6.4025 -4.5625 6.0625 C-3.48963568 0.08511307 -3.48963568 0.08511307 0 0 Z " fill="#DE7060" transform="translate(76.5625,143.9375)"/>
<path d="M0 0 C-1.65 1.98 -3.3 3.96 -5 6 C-5.66 5.34 -6.32 4.68 -7 4 C-7 2.68 -7 1.36 -7 0 C-4.3333581 -1.33332095 -2.83319697 -0.67102033 0 0 Z " fill="#EE7B26" transform="translate(119,105)"/>
<path d="M0 0 C0 3 0 3 -2 6 C-2.63292383 8.11280345 -2.63292383 8.11280345 -3 10 C-3.99 9.67 -4.98 9.34 -6 9 C-6 6 -6 6 -4.6875 4.39453125 C-4.130625 3.87246094 -3.57375 3.35039063 -3 2.8125 C-2.443125 2.28269531 -1.88625 1.75289063 -1.3125 1.20703125 C-0.6628125 0.60955078 -0.6628125 0.60955078 0 0 Z " fill="#F9EBDC" transform="translate(154,70)"/>
<path d="M0 0 C4.875 4.625 4.875 4.625 6 8 C4.35 7.67 2.7 7.34 1 7 C0 4 0 4 0 0 Z " fill="#816FE1" transform="translate(208,208)"/>
<path d="M0 0 C0.33 0.66 0.66 1.32 1 2 C0.0625 4.625 0.0625 4.625 -1 7 C-1.99 7 -2.98 7 -4 7 C-4 7.66 -4 8.32 -4 9 C-5.98 9.99 -5.98 9.99 -8 11 C-6.63629701 8.00779732 -5.05091917 5.70973471 -2.875 3.25 C-2.33617187 2.63640625 -1.79734375 2.0228125 -1.2421875 1.390625 C-0.62730469 0.70226562 -0.62730469 0.70226562 0 0 Z " fill="#D6735B" transform="translate(34,82)"/>
<path d="M0 0 C0.66 1.32 1.32 2.64 2 4 C2.99 3.34 3.98 2.68 5 2 C4.67 3.32 4.34 4.64 4 6 C2.1875 6.6875 2.1875 6.6875 0 7 C-1.75 5.5625 -1.75 5.5625 -3 4 C-2.01 2.68 -1.02 1.36 0 0 Z " fill="#EE7732" transform="translate(51,65)"/>
<path d="M0 0 C0.99 0.66 1.98 1.32 3 2 C0.75 4.5625 0.75 4.5625 -2 7 C-3.32 6.67 -4.64 6.34 -6 6 C-4.02 4.02 -2.04 2.04 0 0 Z " fill="#2F8AD0" transform="translate(25,199)"/>
<path d="M0 0 C0.99 0.66 1.98 1.32 3 2 C2.34 3.98 1.68 5.96 1 8 C0.01 8 -0.98 8 -2 8 C-1.67 6.68 -1.34 5.36 -1 4 C-1.66 3.67 -2.32 3.34 -3 3 C-2.01 2.01 -1.02 1.02 0 0 Z " fill="#EE8323" transform="translate(98,15)"/>
<path d="M0 0 C3.24271506 0.5590888 4.93057424 1.4132178 7 4 C7 4.66 7 5.32 7 6 C3.75728494 5.4409112 2.06942576 4.5867822 0 2 C0 1.34 0 0.68 0 0 Z " fill="#7F6DE1" transform="translate(112,114)"/>
<path d="M0 0 C1 3 1 3 0.0625 5.1875 C-0.4634375 6.0846875 -0.4634375 6.0846875 -1 7 C-2.32 6.67 -3.64 6.34 -5 6 C-3.35 4.02 -1.7 2.04 0 0 Z " fill="#C87471" transform="translate(21,96)"/>
<path d="M0 0 C2.97 0.495 2.97 0.495 6 1 C5.34 2.32 4.68 3.64 4 5 C2.68 4.67 1.36 4.34 0 4 C0 2.68 0 1.36 0 0 Z " fill="#F08021" transform="translate(66,50)"/>
<path d="M0 0 C0.66 0 1.32 0 2 0 C2.33 0.99 2.66 1.98 3 3 C1.35 4.32 -0.3 5.64 -2 7 C-2.66 5.68 -3.32 4.36 -4 3 C-3.01 3.495 -3.01 3.495 -2 4 C-1.34 2.68 -0.68 1.36 0 0 Z " fill="#537FCF" transform="translate(69,41)"/>
<path d="M0 0 C0.66 0.66 1.32 1.32 2 2 C1.75 4.5625 1.75 4.5625 1 7 C0.01 7.495 0.01 7.495 -1 8 C-2.2077558 4.37673261 -1.54311128 3.35853631 0 0 Z " fill="#DC7D48" transform="translate(53,62)"/>
<path d="M0 0 C2.64 0 5.28 0 8 0 C7.67 0.99 7.34 1.98 7 3 C6.67 2.34 6.34 1.68 6 1 C5.34 1 4.68 1 4 1 C3.67 1.99 3.34 2.98 3 4 C2.01 3.34 1.02 2.68 0 2 C0 1.34 0 0.68 0 0 Z " fill="#3F80E4" transform="translate(65,40)"/>
<path d="M0 0 C0.33 0.66 0.66 1.32 1 2 C2.32 1.67 3.64 1.34 5 1 C4.625 2.9375 4.625 2.9375 4 5 C3.01 5.495 3.01 5.495 2 6 C2 5.34 2 4.68 2 4 C1.01 3.67 0.02 3.34 -1 3 C-0.67 2.01 -0.34 1.02 0 0 Z " fill="#8970CE" transform="translate(90,16)"/>
<path d="M0 0 C1 2 1 2 0.375 4.0625 C-1 6 -1 6 -3.625 6.75 C-4.800625 6.87375 -4.800625 6.87375 -6 7 C-4.19587357 3.73539027 -3.16605307 2.11070205 0 0 Z " fill="#EB8813" transform="translate(107,6)"/>
<path d="M0 0 C0.99 1.32 1.98 2.64 3 4 C2.01 4 1.02 4 0 4 C-0.33 4.66 -0.66 5.32 -1 6 C-1.99 5.67 -2.98 5.34 -4 5 C-2.68 3.35 -1.36 1.7 0 0 Z " fill="#C56B84" transform="translate(4,114)"/>
<path d="M0 0 C2.0625 1.75 2.0625 1.75 4 4 C3.75 6.25 3.75 6.25 3 8 C2.01 7.67 1.02 7.34 0 7 C0 4.69 0 2.38 0 0 Z " fill="#8073D9" transform="translate(88,16)"/>
<path d="M0 0 C1.32 0.33 2.64 0.66 4 1 C3.360625 1.2475 2.72125 1.495 2.0625 1.75 C-0.18741541 2.81562433 -0.18741541 2.81562433 -0.75 5.125 C-0.8325 5.74375 -0.915 6.3625 -1 7 C-1.625 5.1875 -1.625 5.1875 -2 3 C-1.34 2.01 -0.68 1.02 0 0 Z " fill="#F68517" transform="translate(112,0)"/>
<path d="M0 0 C2.0625 0.4375 2.0625 0.4375 4 1 C2.35 2.65 0.7 4.3 -1 6 C-1.042721 4.33388095 -1.04063832 2.66617115 -1 1 C-0.67 0.67 -0.34 0.34 0 0 Z " fill="#8C71D6" transform="translate(108,0)"/>
<path d="M0 0 C0.99 0.33 1.98 0.66 3 1 C3.6875 3.0625 3.6875 3.0625 4 5 C3.01 5.495 3.01 5.495 2 6 C1.34 5.67 0.68 5.34 0 5 C0 3.35 0 1.7 0 0 Z " fill="#0A95CC" transform="translate(25,84)"/>
<path d="M0 0 C3 3.75 3 3.75 3 6 C1.35 5.67 -0.3 5.34 -2 5 C-2 3.68 -2 2.36 -2 1 C-1.34 0.67 -0.68 0.34 0 0 Z " fill="#DF7C46" transform="translate(45,73)"/>
<path d="M0 0 C0.66 0.66 1.32 1.32 2 2 C1.625 4.125 1.625 4.125 1 6 C0.67 5.34 0.34 4.68 0 4 C-1.32 4.33 -2.64 4.66 -4 5 C-2.68 3.35 -1.36 1.7 0 0 Z " fill="#E77D2E" transform="translate(79,35)"/>
<path d="M0 0 C1.32 0.33 2.64 0.66 4 1 C3.67 2.32 3.34 3.64 3 5 C2.01 5 1.02 5 0 5 C0 3.35 0 1.7 0 0 Z " fill="#4D7DDF" transform="translate(72,35)"/>
</svg>
