<?xml version="1.0" encoding="UTF-8"?>
<svg version="1.1" xmlns="http://www.w3.org/2000/svg" width="225" height="225">
<path d="M0 0 C74.25 0 148.5 0 225 0 C225 74.25 225 148.5 225 225 C150.75 225 76.5 225 0 225 C0 150.75 0 76.5 0 0 Z " fill="#000000" transform="translate(0,0)"/>
<path d="M0 0 C6.89480448 2.36393296 10.57767286 6.04012275 13.87109375 12.41015625 C17.16081137 19.9571555 18.24263304 27.94850794 19.1875 36.0625 C19.27153076 36.78171631 19.35556152 37.50093262 19.44213867 38.24194336 C20.05919974 44.16639674 20.08127102 50.04776572 20 56 C20.93158936 55.98952637 21.86317871 55.97905273 22.82299805 55.96826172 C26.34369477 55.93378146 29.86420707 55.90891033 33.38500977 55.89013672 C34.89675767 55.88019839 36.40848699 55.86664302 37.92016602 55.84912109 C50.60041871 55.70603162 62.51472847 56.27167 74.46484375 61 C75.30144531 61.33 76.13804687 61.66 77 62 C77.94875 62.38285156 78.8975 62.76570313 79.875 63.16015625 C84.59963582 64.42990213 88.8599762 63.58504092 93.66015625 62.99609375 C97.47333394 63.00055361 99.00394411 63.71451312 102 66 C106.09869731 70.55410812 107.133777 73.62895535 107.0625 79.6875 C107.05347656 80.68136719 107.04445313 81.67523438 107.03515625 82.69921875 C107.02355469 83.45847656 107.01195312 84.21773438 107 85 C106.34 85 105.68 85 105 85 C104.731875 85.639375 104.46375 86.27875 104.1875 86.9375 C103 89 103 89 100 90 C100.14058476 92.45873768 100.28722999 94.91685175 100.4375 97.375 C100.47681641 98.07367188 100.51613281 98.77234375 100.55664062 99.4921875 C100.74280134 103.37360492 100.74280134 103.37360492 102 107 C102.2646988 110.41167348 102.44415224 113.81685496 102.60546875 117.234375 C102.73687954 121.24751603 102.73687954 121.24751603 104 125 C104.23188406 132.30434783 104.23188406 132.30434783 103 136 C102.79703254 138.50326538 102.62892803 140.99306611 102.5 143.5 C102.13513514 150.59459459 102.13513514 150.59459459 101 154 C98.03 154 95.06 154 92 154 C92.33 153.01 92.66 152.02 93 151 C93.66 151 94.32 151 95 151 C95 145.06 95 139.12 95 133 C93.02 132.01 93.02 132.01 91 131 C89.62913085 129.70529025 88.28659163 128.37849103 87 127 C86.731875 128.175625 86.46375 129.35125 86.1875 130.5625 C83.68259782 140.51154808 83.68259782 140.51154808 80.375 143.4375 C78.00168437 146.13444958 78.28659444 149.50354787 78 153 C75.03 153 72.06 153 69 153 C70.07840285 148.68638859 70.95291278 147.95475124 74 145 C76.95043315 140.10422631 77.42947374 134.6183614 77 129 C75.45425475 125.5683455 73.4074434 122.8706477 71 120 C68.70986347 116.5647952 68.82157027 115.014669 69 111 C68.40316406 111.2165625 67.80632812 111.433125 67.19140625 111.65625 C57.40161855 114.79829182 46.05669011 115.44515603 36 113 C35.95101562 114.02480469 35.90203125 115.04960937 35.8515625 116.10546875 C35.77648929 117.4661706 35.70094345 118.82684644 35.625 120.1875 C35.57859375 121.19780273 35.57859375 121.19780273 35.53125 122.22851562 C35.35826627 125.18365437 35.12238597 127.70324947 33.98828125 130.453125 C32.32085936 134.75019643 32.60339354 139.28219846 32.52148438 143.84960938 C32.40472183 147.08193825 32.20064132 149.60425655 30.7265625 152.51171875 C27.68570798 155.13290782 24.86833902 154.25366158 21 154 C22.875 149.125 22.875 149.125 24 148 C24.23678716 145.30764224 24.42198025 142.63501844 24.5625 139.9375 C24.62727539 138.79958008 24.62727539 138.79958008 24.69335938 137.63867188 C24.79973633 135.75934562 24.90039934 133.87969756 25 132 C24.34 132 23.68 132 23 132 C22.90203125 132.54527344 22.8040625 133.09054688 22.703125 133.65234375 C21.39079681 140.27055056 19.00569593 145.98860814 16 152 C13.69 152 11.38 152 9 152 C9.6493062 148.49374651 11.17925367 146.03457721 13 143 C14.38748412 139.09636791 14.12597163 135.03993235 14.09765625 130.953125 C14.0962413 130.18192322 14.09482635 129.41072144 14.09336853 128.6161499 C14.08778534 126.16072662 14.07523595 123.70539558 14.0625 121.25 C14.05748283 119.58203257 14.0529203 117.91406371 14.04882812 116.24609375 C14.03782141 112.16402713 14.02056836 108.08202919 14 104 C13.21826416 103.86352051 12.43652832 103.72704102 11.63110352 103.58642578 C5.96476219 102.32349993 2.09663283 97.34970194 -1.4375 93 C-3.90368297 88.30352981 -3.5395576 82.70565937 -3.62890625 77.5234375 C-4.02700632 73.74358211 -5.06269953 72.18056805 -7 69 C-7.80684993 63.70928176 -7.85404572 58.3459999 -8 53 C-8.04084717 51.8251001 -8.04084717 51.8251001 -8.08251953 50.62646484 C-8.15949289 48.25094127 -8.20956216 45.8764054 -8.25 43.5 C-8.27151123 42.77143799 -8.29302246 42.04287598 -8.31518555 41.29223633 C-8.34775753 35.91540155 -7.11529608 31.94311294 -5 27 C-6.5778125 26.87625 -6.5778125 26.87625 -8.1875 26.75 C-12.38519926 25.9242231 -14.201983 25.22195897 -17 22 C-17.375 18.3125 -17.375 18.3125 -17 15 C-16 14 -16 14 -12.625 13.5625 C-8.91489453 13.24699783 -8.91489453 13.24699783 -6 11 C-5.63583953 8.56306689 -5.63583953 8.56306689 -5.8125 5.875 C-5.85310547 4.50988281 -5.85310547 4.50988281 -5.89453125 3.1171875 C-5.94673828 2.06917969 -5.94673828 2.06917969 -6 1 C-3.525 1.99 -3.525 1.99 -1 3 C-0.67 2.01 -0.34 1.02 0 0 Z " fill="#5BD1F5" transform="translate(67,35)"/>
<path d="M0 0 C6.89480448 2.36393296 10.57767286 6.04012275 13.87109375 12.41015625 C17.16081137 19.9571555 18.24263304 27.94850794 19.1875 36.0625 C19.27153076 36.78171631 19.35556152 37.50093262 19.44213867 38.24194336 C20.06754589 44.24652879 20 49.87457235 20 56 C30.89 56 41.78 56 53 56 C53 56.33 53 56.66 53 57 C52.195625 57.12375 51.39125 57.2475 50.5625 57.375 C49.716875 57.58125 48.87125 57.7875 48 58 C47.505 58.99 47.505 58.99 47 60 C46.34 60 45.68 60 45 60 C44.814375 61.11375 44.814375 61.11375 44.625 62.25 C44.04513299 64.80141485 43.26291261 66.7267573 42 69 C41.34 69 40.68 69 40 69 C39.690625 69.94875 39.38125 70.8975 39.0625 71.875 C38 75 38 75 37 77 C36.01 77 35.02 77 34 77 C33.96132812 78.15628906 33.96132812 78.15628906 33.921875 79.3359375 C33.83679688 80.84027344 33.83679688 80.84027344 33.75 82.375 C33.70359375 83.37273437 33.6571875 84.37046875 33.609375 85.3984375 C33 88 33 88 30.953125 89.3515625 C30.30859375 89.56554687 29.6640625 89.77953125 29 90 C29 90.99 29 91.98 29 93 C28.34 93 27.68 93 27 93 C26.9071875 93.60585937 26.814375 94.21171875 26.71875 94.8359375 C25.82736467 97.51978246 24.85522755 98.12885135 22.5 99.625 C19.73725876 101.33468108 19.73725876 101.33468108 18 104 C15.76264737 104.87673561 14.44376586 105.11620261 12.10546875 104.50390625 C5.52613582 101.27453917 -0.36570776 96.01241173 -3 89 C-3.33477721 85.2072708 -3.44145296 81.4340927 -3.55859375 77.62890625 C-4.02211828 73.81816033 -5.04661172 72.20841495 -7 69 C-7.80684993 63.70928176 -7.85404572 58.3459999 -8 53 C-8.04084717 51.8251001 -8.04084717 51.8251001 -8.08251953 50.62646484 C-8.15949289 48.25094127 -8.20956216 45.8764054 -8.25 43.5 C-8.27151123 42.77143799 -8.29302246 42.04287598 -8.31518555 41.29223633 C-8.34775753 35.91540155 -7.11529608 31.94311294 -5 27 C-6.5778125 26.87625 -6.5778125 26.87625 -8.1875 26.75 C-12.38519926 25.9242231 -14.201983 25.22195897 -17 22 C-17.375 18.3125 -17.375 18.3125 -17 15 C-16 14 -16 14 -12.625 13.5625 C-8.91489453 13.24699783 -8.91489453 13.24699783 -6 11 C-5.63583953 8.56306689 -5.63583953 8.56306689 -5.8125 5.875 C-5.85310547 4.50988281 -5.85310547 4.50988281 -5.89453125 3.1171875 C-5.94673828 2.06917969 -5.94673828 2.06917969 -6 1 C-3.525 1.99 -3.525 1.99 -1 3 C-0.67 2.01 -0.34 1.02 0 0 Z " fill="#FAA7E8" transform="translate(67,35)"/>
<path d="M0 0 C6.88804402 2.36161509 10.58362889 6.03317159 13.86328125 12.40625 C17.26411878 20.16623666 18.25858286 27.73160397 18.3125 36.125 C18.31805908 36.87201172 18.32361816 37.61902344 18.3293457 38.38867188 C18.25717568 43.74282432 18.25717568 43.74282432 16 46 C12.69179853 46.30016268 9.37564635 45.99515078 6.0625 45.8125 C5.14275391 45.78091797 4.22300781 45.74933594 3.27539062 45.71679688 C2.39173828 45.67232422 1.50808594 45.62785156 0.59765625 45.58203125 C-0.21179443 45.54311768 -1.02124512 45.5042041 -1.85522461 45.46411133 C-4.46058898 44.90033242 -5.41133209 44.11504337 -7 42 C-7.109375 39.44140625 -7.109375 39.44140625 -6.75 36.5625 C-6.64171875 35.61503906 -6.5334375 34.66757813 -6.421875 33.69140625 C-6.06399437 31.4082604 -5.6106065 29.22660819 -5 27 C-6.5778125 26.87625 -6.5778125 26.87625 -8.1875 26.75 C-12.38519926 25.9242231 -14.201983 25.22195897 -17 22 C-17.375 18.3125 -17.375 18.3125 -17 15 C-16 14 -16 14 -12.625 13.5625 C-8.91489453 13.24699783 -8.91489453 13.24699783 -6 11 C-5.63583953 8.56306689 -5.63583953 8.56306689 -5.8125 5.875 C-5.85310547 4.50988281 -5.85310547 4.50988281 -5.89453125 3.1171875 C-5.94673828 2.06917969 -5.94673828 2.06917969 -6 1 C-3.525 1.99 -3.525 1.99 -1 3 C-0.67 2.01 -0.34 1.02 0 0 Z " fill="#F6D3D9" transform="translate(67,35)"/>
<path d="M0 0 C0.33 0.99 0.66 1.98 1 3 C1.87371246 2.75601219 1.87371246 2.75601219 2.76507568 2.50709534 C6.23616186 1.71951985 9.72510343 1.87851305 13.265625 1.90234375 C14.05902283 1.9037587 14.85242065 1.90517365 15.66986084 1.90663147 C18.19661272 1.91221585 20.72327504 1.92476546 23.25 1.9375 C24.96614455 1.94251702 26.68229049 1.94707957 28.3984375 1.95117188 C32.59899269 1.96218016 36.79948117 1.97943404 41 2 C41 2.66 41 3.32 41 4 C40.34 4 39.68 4 39 4 C39.99 4.99 39.99 4.99 41 6 C40 9 40 9 38 12 C36.68 12 35.36 12 34 12 C32.64560332 9.29120665 32.93498549 6.99066732 33 4 C32.40316406 4.2165625 31.80632812 4.433125 31.19140625 4.65625 C21.40161855 7.79829182 10.05669011 8.44515603 0 6 C-0.04898438 7.02480469 -0.09796875 8.04960937 -0.1484375 9.10546875 C-0.22351071 10.4661706 -0.29905655 11.82684644 -0.375 13.1875 C-0.42140625 14.19780273 -0.42140625 14.19780273 -0.46875 15.22851562 C-0.64173373 18.18365437 -0.87761403 20.70324947 -2.01171875 23.453125 C-3.67914064 27.75019643 -3.39660646 32.28219846 -3.47851562 36.84960938 C-3.59527817 40.08193825 -3.79935868 42.60425655 -5.2734375 45.51171875 C-8.31429202 48.13290782 -11.13166098 47.25366158 -15 47 C-13.125 42.125 -13.125 42.125 -12 41 C-11.76321284 38.30764224 -11.57801975 35.63501844 -11.4375 32.9375 C-11.39431641 32.17888672 -11.35113281 31.42027344 -11.30664062 30.63867188 C-11.20026367 28.75934562 -11.09960066 26.87969756 -11 25 C-11.66 25 -12.32 25 -13 25 C-13.09796875 25.54527344 -13.1959375 26.09054688 -13.296875 26.65234375 C-14.60920319 33.27055056 -16.99430407 38.98860814 -20 45 C-22.31 45 -24.62 45 -27 45 C-26.53773991 42.50379552 -25.96121548 40.94289773 -24.51953125 38.8203125 C-22.64598039 35.34292504 -22.37906969 32.48350213 -22 28.5625 C-21.49663958 23.36635232 -20.71634973 19.50234968 -18 15 C-17.34 14.67 -16.68 14.34 -16 14 C-15.7525 13.4225 -15.505 12.845 -15.25 12.25 C-13.48290465 9.06922836 -10.77946313 7.30636302 -8 5 C-7.67 4.01 -7.34 3.02 -7 2 C-3.4375 0.8125 -3.4375 0.8125 0 0 Z " fill="#4DDDF6" transform="translate(103,142)"/>
<path d="M0 0 C3.45243426 2.82406233 5.59283064 5.77849193 7 10 C7.0685495 11.89470816 7.08480372 13.7916834 7.0625 15.6875 C7.05347656 16.68136719 7.04445312 17.67523438 7.03515625 18.69921875 C7.02355469 19.45847656 7.01195312 20.21773437 7 21 C6.34 21 5.68 21 5 21 C4.731875 21.639375 4.46375 22.27875 4.1875 22.9375 C3 25 3 25 0 26 C0.14058476 28.45873768 0.28722999 30.91685175 0.4375 33.375 C0.47681641 34.07367188 0.51613281 34.77234375 0.55664062 35.4921875 C0.74280134 39.37360492 0.74280134 39.37360492 2 43 C2.2646988 46.41167348 2.44415224 49.81685496 2.60546875 53.234375 C2.73687954 57.24751603 2.73687954 57.24751603 4 61 C4.23188406 68.30434783 4.23188406 68.30434783 3 72 C2.79703254 74.50326538 2.62892803 76.99306611 2.5 79.5 C2.13513514 86.59459459 2.13513514 86.59459459 1 90 C-1.97 90 -4.94 90 -8 90 C-7.505 88.515 -7.505 88.515 -7 87 C-6.34 87 -5.68 87 -5 87 C-5 81.06 -5 75.12 -5 69 C-6.32 68.34 -7.64 67.68 -9 67 C-10.37086915 65.70529025 -11.71340837 64.37849103 -13 63 C-13.268125 64.175625 -13.53625 65.35125 -13.8125 66.5625 C-16.31740218 76.51154808 -16.31740218 76.51154808 -19.625 79.4375 C-21.99831563 82.13444958 -21.71340556 85.50354787 -22 89 C-24.97 89 -27.94 89 -31 89 C-29.92159715 84.68638859 -29.04708722 83.95475124 -26 81 C-24.23134093 77.99784806 -23.50372228 75.16306383 -22.875 71.75 C-22.70742187 70.85796875 -22.53984375 69.9659375 -22.3671875 69.046875 C-22.24601563 68.37140625 -22.12484375 67.6959375 -22 67 C-21.67 67 -21.34 67 -21 67 C-21 68.65 -21 70.3 -21 72 C-20.01 72 -19.02 72 -18 72 C-18 68.37 -18 64.74 -18 61 C-12 61 -6 61 0 61 C0.33 55.72 0.66 50.44 1 45 C-1.475 45.495 -1.475 45.495 -4 46 C-5.485 45.505 -5.485 45.505 -7 45 C-7 42.36 -7 39.72 -7 37 C-5.02 36.505 -5.02 36.505 -3 36 C-3 34.02 -3 32.04 -3 30 C-3.99 30 -4.98 30 -6 30 C-7.4783226 27.04335481 -7.06032783 24.25770263 -7 21 C-3.7 21 -0.4 21 3 21 C2.814375 20.030625 2.62875 19.06125 2.4375 18.0625 C2.293125 17.051875 2.14875 16.04125 2 15 C2.33 14.67 2.66 14.34 3 14 C2.34 13.67 1.68 13.34 1 13 C0.40644386 10.35139573 0.25790731 7.70802678 0 5 C-0.87011719 5.01740234 -0.87011719 5.01740234 -1.7578125 5.03515625 C-6.2998246 5.08762174 -10.52713569 4.91751063 -15 4 C-15 3.34 -15 2.68 -15 2 C-15.66 1.67 -16.32 1.34 -17 1 C-11.26429684 -0.7728537 -5.83599196 -2.05659495 0 0 Z " fill="#A899EE" transform="translate(167,99)"/>
<path d="M0 0 C1.79133978 -0.05391993 3.58313899 -0.09275571 5.375 -0.125 C6.37273437 -0.14820312 7.37046875 -0.17140625 8.3984375 -0.1953125 C11 0 11 0 13 2 C11.68 2 10.36 2 9 2 C8.95875 3.299375 8.9175 4.59875 8.875 5.9375 C8.25233094 11.75213017 5.39436835 15.40605121 2 20 C1.4225 21.010625 0.845 22.02125 0.25 23.0625 C-0.36875 24.0215625 -0.36875 24.0215625 -1 25 C-1.66 25 -2.32 25 -3 25 C-3 25.99 -3 26.98 -3 28 C-4.30973998 29.3565164 -5.64802142 30.68557638 -7 32 C-8.34270821 33.99371825 -9.67653494 35.9934562 -11 38 C-11.515625 38.495 -12.03125 38.99 -12.5625 39.5 C-14.66281477 41.6916328 -15.72585737 44.26969437 -17 47 C-17.66 47 -18.32 47 -19 47 C-20.13797842 49.19467267 -21.09108988 51.27326963 -21.875 53.625 C-23.18909471 56.39919994 -24.17369103 56.96368671 -27 58 C-27 58.66 -27 59.32 -27 60 C-27.99 60 -28.98 60 -30 60 C-30 60.99 -30 61.98 -30 63 C-31.32 63 -32.64 63 -34 63 C-34 58.05 -34 53.1 -34 48 C-32.02 47.505 -32.02 47.505 -30 47 C-29.67 46.01 -29.34 45.02 -29 44 C-27.27455079 42.61287417 -25.45805682 41.47318387 -23.59375 40.28125 C-21.69700896 38.99310354 -21.69700896 38.99310354 -21 36 C-20.34 36 -19.68 36 -19 36 C-19 35.01 -19 34.02 -19 33 C-18.01 32.34 -17.02 31.68 -16 31 C-15.19907746 28.35308332 -15.19907746 28.35308332 -14.8125 25.375 C-14.57466797 23.87066406 -14.57466797 23.87066406 -14.33203125 22.3359375 C-14.16767578 21.17964844 -14.16767578 21.17964844 -14 20 C-13.01 20 -12.02 20 -11 20 C-10.690625 19.05125 -10.38125 18.1025 -10.0625 17.125 C-9 14 -9 14 -8 12 C-7.34 12 -6.68 12 -6 12 C-5.87625 11.443125 -5.7525 10.88625 -5.625 10.3125 C-4.94023145 7.77885636 -4.00866237 5.42078968 -3 3 C-2.34 3 -1.68 3 -1 3 C-0.67 2.01 -0.34 1.02 0 0 Z " fill="#ABBFF0" transform="translate(115,92)"/>
<path d="M0 0 C2.64 0 5.28 0 8 0 C6.68 0.33 5.36 0.66 4 1 C3.95875 2.299375 3.9175 3.59875 3.875 4.9375 C3.25233094 10.75213017 0.39436835 14.40605121 -3 19 C-3.5775 20.010625 -4.155 21.02125 -4.75 22.0625 C-5.36875 23.0215625 -5.36875 23.0215625 -6 24 C-6.66 24 -7.32 24 -8 24 C-8 24.99 -8 25.98 -8 27 C-9.30973998 28.3565164 -10.64802142 29.68557638 -12 31 C-13.34270821 32.99371825 -14.67653494 34.9934562 -16 37 C-16.515625 37.495 -17.03125 37.99 -17.5625 38.5 C-19.66281477 40.6916328 -20.72585737 43.26969437 -22 46 C-22.66 46 -23.32 46 -24 46 C-25.13797842 48.19467267 -26.09108988 50.27326963 -26.875 52.625 C-28.18909471 55.39919994 -29.17369103 55.96368671 -32 57 C-32 57.66 -32 58.32 -32 59 C-32.99 59 -33.98 59 -35 59 C-35 59.99 -35 60.98 -35 62 C-35.66 62 -36.32 62 -37 62 C-37.33 60.35 -37.66 58.7 -38 57 C-37.38125 56.649375 -36.7625 56.29875 -36.125 55.9375 C-33.24445747 53.31112298 -32.84537162 50.73372463 -32 47 C-30.02 46.505 -30.02 46.505 -28 46 C-27.896875 45.4225 -27.79375 44.845 -27.6875 44.25 C-26.88350079 41.61872985 -25.86932485 40.01311907 -24 38 C-23.01 38 -22.02 38 -21 38 C-20.9175 37.05125 -20.835 36.1025 -20.75 35.125 C-20 32 -20 32 -17.9375 30.625 C-16.9784375 30.315625 -16.9784375 30.315625 -16 30 C-16 29.01 -16 28.02 -16 27 C-15.01 27 -14.02 27 -13 27 C-12.67 25.35 -12.34 23.7 -12 22 C-11.34 22 -10.68 22 -10 22 C-10 21.01 -10 20.02 -10 19 C-9.34 19 -8.68 19 -8 19 C-7.896875 18.4225 -7.79375 17.845 -7.6875 17.25 C-7 15 -7 15 -5.4375 13.0625 C-3.75579688 11.06862548 -3.75579688 11.06862548 -4 8.4375 C-4 6 -4 6 -2.5625 4.375 C-2.046875 3.92125 -1.53125 3.4675 -1 3 C-0.67 2.01 -0.34 1.02 0 0 Z " fill="#92C7F2" transform="translate(120,93)"/>
<path d="M0 0 C10.89 0 21.78 0 33 0 C33 0.33 33 0.66 33 1 C31.7934375 1.185625 31.7934375 1.185625 30.5625 1.375 C29.716875 1.58125 28.87125 1.7875 28 2 C27.67 2.66 27.34 3.32 27 4 C26.34 4 25.68 4 25 4 C24.87625 4.7425 24.7525 5.485 24.625 6.25 C24.04513299 8.80141485 23.26291261 10.7267573 22 13 C21.34 13 20.68 13 20 13 C19.690625 13.94875 19.38125 14.8975 19.0625 15.875 C18 19 18 19 17 21 C16.01 21 15.02 21 14 21 C13.97421875 21.77085938 13.9484375 22.54171875 13.921875 23.3359375 C13.86515625 24.33882812 13.8084375 25.34171875 13.75 26.375 C13.68039063 27.87160156 13.68039063 27.87160156 13.609375 29.3984375 C13 32 13 32 10.953125 33.3515625 C10.30859375 33.56554687 9.6640625 33.77953125 9 34 C9 34.99 9 35.98 9 37 C8.34 37 7.68 37 7 37 C6.9071875 37.60585937 6.814375 38.21171875 6.71875 38.8359375 C5.82736467 41.51978246 4.85522755 42.12885135 2.5 43.625 C-0.26274124 45.33468108 -0.26274124 45.33468108 -2 48 C-4.0625 48.625 -4.0625 48.625 -6 49 C-6.33 47.68 -6.66 46.36 -7 45 C-5.515 44.505 -5.515 44.505 -4 44 C-2.28432339 40.49705129 -2.28432339 40.49705129 -1 37 C0.65 37 2.3 37 4 37 C4.1546875 36.071875 4.1546875 36.071875 4.3125 35.125 C5 33 5 33 8 31 C8.58189266 28.57478506 8.58189266 28.57478506 8.6875 25.875 C8.75324219 24.96492188 8.81898437 24.05484375 8.88671875 23.1171875 C8.92410156 22.41851562 8.96148437 21.71984375 9 21 C9.66 21 10.32 21 11 21 C11.33 20.01 11.66 19.02 12 18 C13.32 17.67 14.64 17.34 16 17 C16.33 12.05 16.66 7.1 17 2 C11.39 1.67 5.78 1.34 0 1 C0 0.67 0 0.34 0 0 Z " fill="#D4B2ED" transform="translate(87,91)"/>
<path d="M0 0 C3.45243426 2.82406233 5.59283064 5.77849193 7 10 C7.0685495 11.89470816 7.08480372 13.7916834 7.0625 15.6875 C7.05347656 16.68136719 7.04445312 17.67523438 7.03515625 18.69921875 C7.02355469 19.45847656 7.01195312 20.21773437 7 21 C6.34 21 5.68 21 5 21 C4.7525 21.639375 4.505 22.27875 4.25 22.9375 C3 25 3 25 -1 26 C-1 32.27 -1 38.54 -1 45 C-4 46 -4 46 -7 45 C-7 42.36 -7 39.72 -7 37 C-5.02 36.505 -5.02 36.505 -3 36 C-3 34.02 -3 32.04 -3 30 C-3.99 30 -4.98 30 -6 30 C-7.4783226 27.04335481 -7.06032783 24.25770263 -7 21 C-3.7 21 -0.4 21 3 21 C2.814375 20.030625 2.62875 19.06125 2.4375 18.0625 C2.293125 17.051875 2.14875 16.04125 2 15 C2.33 14.67 2.66 14.34 3 14 C2.34 13.67 1.68 13.34 1 13 C0.40644386 10.35139573 0.25790731 7.70802678 0 5 C-0.87011719 5.01740234 -0.87011719 5.01740234 -1.7578125 5.03515625 C-6.2998246 5.08762174 -10.52713569 4.91751063 -15 4 C-15 3.34 -15 2.68 -15 2 C-15.66 1.67 -16.32 1.34 -17 1 C-11.26429684 -0.7728537 -5.83599196 -2.05659495 0 0 Z " fill="#8694C4" transform="translate(167,99)"/>
<path d="M0 0 C0.66 0.33 1.32 0.66 2 1 C2 1.66 2 2.32 2 3 C2.99 2.67 3.98 2.34 5 2 C5 2.99 5 3.98 5 5 C5.66 5.33 6.32 5.66 7 6 C6.96519531 7.27617187 6.93039063 8.55234375 6.89453125 9.8671875 C6.86639769 11.53644521 6.83909707 13.2057171 6.8125 14.875 C6.78736328 15.71675781 6.76222656 16.55851562 6.73632812 17.42578125 C6.72666016 18.23144531 6.71699219 19.03710938 6.70703125 19.8671875 C6.6913208 20.61081543 6.67561035 21.35444336 6.65942383 22.12060547 C6.77181396 22.74080566 6.8842041 23.36100586 7 24 C7.99 24.66 8.98 25.32 10 26 C10.33 20.06 10.66 14.12 11 8 C11.33 8 11.66 8 12 8 C12.08107646 10.75059381 12.14052813 13.49879021 12.1875 16.25 C12.21263672 17.02730469 12.23777344 17.80460937 12.26367188 18.60546875 C12.30788562 22.05414078 12.29500442 24.40261605 10.75 27.53125 C7.67397888 30.11291058 4.87676944 29.25421439 1 29 C2.875 24.125 2.875 24.125 4 23 C4.23678716 20.30764224 4.42198025 17.63501844 4.5625 14.9375 C4.60568359 14.17888672 4.64886719 13.42027344 4.69335938 12.63867188 C4.79973633 10.75934562 4.90039934 8.87969756 5 7 C4.34 7 3.68 7 3 7 C2.90203125 7.54527344 2.8040625 8.09054688 2.703125 8.65234375 C1.39079681 15.27055056 -0.99430407 20.98860814 -4 27 C-6.31 27 -8.62 27 -11 27 C-10.53980437 24.51494358 -9.96887029 22.95429894 -8.53125 20.84375 C-6.65507854 17.35943158 -6.21633866 14.0591642 -5.8125 10.1875 C-5.73064453 9.49462891 -5.64878906 8.80175781 -5.56445312 8.08789062 C-5.36575707 6.39313016 -5.18140797 4.69669806 -5 3 C-4.360625 2.87625 -3.72125 2.7525 -3.0625 2.625 C-2.381875 2.41875 -1.70125 2.2125 -1 2 C-0.67 1.34 -0.34 0.68 0 0 Z " fill="#48DFF6" transform="translate(87,160)"/>
<path d="M0 0 C1.43879577 0.01006151 2.87759845 0.01918169 4.31640625 0.02734375 C7.79441753 0.0490794 11.27216245 0.08342967 14.75 0.125 C14.75 0.785 14.75 1.445 14.75 2.125 C14.09 2.125 13.43 2.125 12.75 2.125 C13.41 2.785 14.07 3.445 14.75 4.125 C13.75 7.125 13.75 7.125 11.75 10.125 C10.43 10.125 9.11 10.125 7.75 10.125 C6.39560332 7.41620665 6.68498549 5.11566732 6.75 2.125 C6.15316406 2.3415625 5.55632812 2.558125 4.94140625 2.78125 C-4.84838145 5.92329182 -16.19330989 6.57015603 -26.25 4.125 C-26.29898438 5.17300781 -26.34796875 6.22101563 -26.3984375 7.30078125 C-26.47348143 8.67971354 -26.54902857 10.0586185 -26.625 11.4375 C-26.6559375 12.12779297 -26.686875 12.81808594 -26.71875 13.52929688 C-26.93124919 17.19490789 -27.16933861 19.00400792 -29.25 22.125 C-28.92 15.525 -28.59 8.925 -28.25 2.125 C-18.73346506 0.23064273 -9.64515423 -0.11885449 0 0 Z " fill="#4BD1E7" transform="translate(129.25,143.875)"/>
<path d="M0 0 C0.33 0 0.66 0 1 0 C1 1.65 1 3.3 1 5 C0.34 5.33 -0.32 5.66 -1 6 C-1.268125 6.7425 -1.53625 7.485 -1.8125 8.25 C-3.26787753 11.62034797 -5.39001168 13.45693446 -8 16 C-8.33 16.99 -8.66 17.98 -9 19 C-9.66 19 -10.32 19 -11 19 C-11.0825 19.515625 -11.165 20.03125 -11.25 20.5625 C-13.11223093 26.61475052 -17.15362758 32.04020398 -21 37 C-21.66 37 -22.32 37 -23 37 C-23.09152344 37.59683594 -23.18304688 38.19367188 -23.27734375 38.80859375 C-24.17353987 41.52624793 -25.30400734 42.35152072 -27.5625 44.0625 C-29.49174728 45.46192868 -29.49174728 45.46192868 -31 47 C-31 47.99 -31 48.98 -31 50 C-32.485 50.495 -32.485 50.495 -34 51 C-35.21869929 53.50447516 -35.21869929 53.50447516 -36 56 C-36.33 56 -36.66 56 -37 56 C-38.25 48.375 -38.25 48.375 -36 45 C-36 45.99 -36 46.98 -36 48 C-35.34 48 -34.68 48 -34 48 C-34 47.01 -34 46.02 -34 45 C-33.01 45 -32.02 45 -31 45 C-31 44.34 -31 43.68 -31 43 C-30.38125 42.566875 -29.7625 42.13375 -29.125 41.6875 C-26.57403709 39.66173533 -26.06167632 38.03336091 -25 35 C-24.34 34.01 -23.68 33.02 -23 32 C-22.34 32 -21.68 32 -21 32 C-20.79375 31.154375 -20.5875 30.30875 -20.375 29.4375 C-18.90000378 25.75000945 -17.16229603 23.63596566 -14.5234375 20.74609375 C-13.07740933 19.088723 -11.9149501 17.42379245 -10.75 15.5625 C-10.1725 14.716875 -9.595 13.87125 -9 13 C-8.34 13 -7.68 13 -7 13 C-7 12.01 -7 11.02 -7 10 C-6.01 9.34 -5.02 8.68 -4 8 C-2.78581167 6.0533929 -2.78581167 6.0533929 -1.8125 3.875 C-1.46832031 3.15054688 -1.12414062 2.42609375 -0.76953125 1.6796875 C-0.38861328 0.84824219 -0.38861328 0.84824219 0 0 Z " fill="#6DD2F4" transform="translate(119,107)"/>
<path d="M0 0 C2.97 0.33 5.94 0.66 9 1 C9.33 1.99 9.66 2.98 10 4 C9.01 4 8.02 4 7 4 C6.34 3.34 5.68 2.68 5 2 C4.731875 3.175625 4.46375 4.35125 4.1875 5.5625 C1.68259782 15.51154808 1.68259782 15.51154808 -1.625 18.4375 C-3.99831563 21.13444958 -3.71340556 24.50354787 -4 28 C-6.97 28 -9.94 28 -13 28 C-11.92159715 23.68638859 -11.04708722 22.95475124 -8 20 C-6.23134093 16.99784806 -5.50372228 14.16306383 -4.875 10.75 C-4.70742187 9.85796875 -4.53984375 8.9659375 -4.3671875 8.046875 C-4.24601563 7.37140625 -4.12484375 6.6959375 -4 6 C-3.67 6 -3.34 6 -3 6 C-3 7.65 -3 9.3 -3 11 C-2.01 11 -1.02 11 0 11 C0 7.37 0 3.74 0 0 Z " fill="#85A1D4" transform="translate(149,160)"/>
<path d="M0 0 C0.66 0 1.32 0 2 0 C1.75115399 5.84788125 -0.12646608 9.17788913 -3.5078125 13.91015625 C-5.12927107 16.10683985 -5.12927107 16.10683985 -6.75 19.0625 C-7.1625 19.701875 -7.575 20.34125 -8 21 C-8.66 21 -9.32 21 -10 21 C-10 21.99 -10 22.98 -10 24 C-11.98 24.99 -11.98 24.99 -14 26 C-13.25 23.625 -13.25 23.625 -12 21 C-11.34902344 20.70867187 -10.69804688 20.41734375 -10.02734375 20.1171875 C-7.82841571 19.16031968 -7.82841571 19.16031968 -6.98828125 16.90625 C-6.76527344 16.1121875 -6.54226562 15.318125 -6.3125 14.5 C-5.01162791 10.02325581 -5.01162791 10.02325581 -4 8 C-3.34 8 -2.68 8 -2 8 C-1.855625 7.4225 -1.71125 6.845 -1.5625 6.25 C-1.04166667 4.16666667 -0.52083333 2.08333333 0 0 Z M-15 26 C-14.67 26.66 -14.34 27.32 -14 28 C-17.65034965 33.66433566 -17.65034965 33.66433566 -19.5625 35.5 C-21.66281477 37.6916328 -22.72585737 40.26969437 -24 43 C-24.66 43 -25.32 43 -26 43 C-27.13797842 45.19467267 -28.09108988 47.27326963 -28.875 49.625 C-30.18909471 52.39919994 -31.17369103 52.96368671 -34 54 C-34 54.66 -34 55.32 -34 56 C-34.99 56 -35.98 56 -37 56 C-37 56.99 -37 57.98 -37 59 C-37.66 59 -38.32 59 -39 59 C-39.33 57.35 -39.66 55.7 -40 54 C-39.38125 53.566875 -38.7625 53.13375 -38.125 52.6875 C-35.7802755 51.00259517 -35.7802755 51.00259517 -34 48 C-34 48.66 -34 49.32 -34 50 C-33.34 50 -32.68 50 -32 50 C-31.75121094 49.278125 -31.50242187 48.55625 -31.24609375 47.8125 C-29.8808399 44.7310493 -28.22503259 42.57732003 -26.0625 40 C-23.94564741 37.46769036 -22.06906709 35.12125494 -20.43359375 32.25 C-19 30 -19 30 -16 29 C-15.67 28.01 -15.34 27.02 -15 26 Z " fill="#80CCF3" transform="translate(122,96)"/>
<path d="M0 0 C0.66 0 1.32 0 2 0 C2.10871967 2.54283234 2.18762401 5.08095088 2.25 7.625 C2.30027344 8.69427734 2.30027344 8.69427734 2.3515625 9.78515625 C2.44985717 15.14221553 1.35249165 17.81598483 -2 22 C0.64 22 3.28 22 6 22 C2.99382731 25.00617269 0.17618402 24.59585316 -4 25 C-4.33 24.01 -4.66 23.02 -5 22 C-7.97 21.67 -10.94 21.34 -14 21 C-14 20.67 -14 20.34 -14 20 C-11.69 20 -9.38 20 -7 20 C-5.25294483 15.79563826 -3.79776276 11.50955547 -2.375 7.1875 C-2.14554688 6.49462891 -1.91609375 5.80175781 -1.6796875 5.08789062 C-1.11841567 3.39238197 -0.55901687 1.69625347 0 0 Z " fill="#071117" transform="translate(90,167)"/>
<path d="M0 0 C3.3 0 6.6 0 10 0 C10 1.32 10 2.64 10 4 C8.68 4.33 7.36 4.66 6 5 C6 11.27 6 17.54 6 24 C3 25 3 25 0 24 C0 21.36 0 18.72 0 16 C1.32 15.67 2.64 15.34 4 15 C4 13.02 4 11.04 4 9 C3.01 9 2.02 9 1 9 C-0.4783226 6.04335481 -0.06032783 3.25770263 0 0 Z " fill="#81B9EB" transform="translate(160,120)"/>
<path d="M0 0 C0.33 0.99 0.66 1.98 1 3 C1.66 3.33 2.32 3.66 3 4 C2.96519531 5.27617187 2.93039063 6.55234375 2.89453125 7.8671875 C2.86639769 9.53644521 2.83909707 11.2057171 2.8125 12.875 C2.78736328 13.71675781 2.76222656 14.55851563 2.73632812 15.42578125 C2.72666016 16.23144531 2.71699219 17.03710938 2.70703125 17.8671875 C2.6913208 18.61081543 2.67561035 19.35444336 2.65942383 20.12060547 C2.82800903 21.05090576 2.82800903 21.05090576 3 22 C3.99 22.66 4.98 23.32 6 24 C6.495 15.09 6.495 15.09 7 6 C7.33 6 7.66 6 8 6 C8.08107646 8.75059381 8.14052813 11.49879021 8.1875 14.25 C8.22520508 15.41595703 8.22520508 15.41595703 8.26367188 16.60546875 C8.30788562 20.05414078 8.29500442 22.40261605 6.75 25.53125 C3.67397888 28.11291058 0.87676944 27.25421439 -3 27 C-1.125 22.125 -1.125 22.125 0 21 C0.23678716 18.30764224 0.42198025 15.63501844 0.5625 12.9375 C0.62727539 11.79958008 0.62727539 11.79958008 0.69335938 10.63867188 C0.79973633 8.75934562 0.90039934 6.87969756 1 5 C0.34 5 -0.32 5 -1 5 C-1.12117188 5.58007812 -1.24234375 6.16015625 -1.3671875 6.7578125 C-2.33735474 11.28028442 -3.43397783 15.63750966 -5 20 C-5.33 20 -5.66 20 -6 20 C-6.1799928 14.78020872 -5.97094808 10.92737019 -4 6 C-3.34 6 -2.68 6 -2 6 C-1.34 4.02 -0.68 2.04 0 0 Z " fill="#4CC1D3" transform="translate(91,162)"/>
<path d="M0 0 C0 0.66 0 1.32 0 2 C5.94 2 11.88 2 18 2 C14.17092513 4.55271658 11.05416088 4.25857606 6.625 4.1875 C5.86960937 4.18685547 5.11421875 4.18621094 4.3359375 4.18554688 C0.43211533 4.15483499 -3.18892377 3.94897317 -7 3 C-7.04898438 4.04800781 -7.09796875 5.09601563 -7.1484375 6.17578125 C-7.22348143 7.55471354 -7.29902857 8.9336185 -7.375 10.3125 C-7.4059375 11.00279297 -7.436875 11.69308594 -7.46875 12.40429688 C-7.68124919 16.06990789 -7.91933861 17.87900792 -10 21 C-9.67 14.4 -9.34 7.8 -9 1 C-2 0 -2 0 0 0 Z " fill="#48ADBC" transform="translate(110,145)"/>
<path d="M0 0 C1.17571451 3.67410785 1.07366746 7.16929183 1 11 C1.66 11.33 2.32 11.66 3 12 C2.83250244 12.70664795 2.66500488 13.4132959 2.49243164 14.14135742 C1.97934888 17.119883 1.97595995 19.72272336 2.12109375 22.73828125 C2.16943359 23.80498047 2.21777344 24.87167969 2.26757812 25.97070312 C2.32365234 27.07349609 2.37972656 28.17628906 2.4375 29.3125 C2.48970703 30.43462891 2.54191406 31.55675781 2.59570312 32.71289062 C2.7250199 35.47556709 2.85997143 38.23784918 3 41 C-0.09395422 37.21398384 -0.46372855 34.79797187 -0.6875 29.875 C-0.72020996 29.18575439 -0.75291992 28.49650879 -0.78662109 27.78637695 C-1.02062091 22.25642898 -1.09634451 16.72194226 -1.125 11.1875 C-1.12975342 10.41712402 -1.13450684 9.64674805 -1.1394043 8.85302734 C-1.1297095 5.63938225 -1.02344251 3.07032754 0 0 Z " fill="#D69FC5" transform="translate(60,67)"/>
<path d="M0 0 C1.32 0 2.64 0 4 0 C4.10792837 2.60527105 4.18724878 5.20608311 4.25 7.8125 C4.28351563 8.55048828 4.31703125 9.28847656 4.3515625 10.04882812 C4.390625 12.20703125 4.390625 12.20703125 4 16 C1.984375 18.01171875 1.984375 18.01171875 0 19 C-2.69948658 13.60102685 -0.83814202 5.7622264 0 0 Z " fill="#B88FE5" transform="translate(164,168)"/>
<path d="M0 0 C10.89 0 21.78 0 33 0 C33 0.33 33 0.66 33 1 C31.7934375 1.185625 31.7934375 1.185625 30.5625 1.375 C29.716875 1.58125 28.87125 1.7875 28 2 C27.67 2.66 27.34 3.32 27 4 C26.34 4 25.68 4 25 4 C24.896875 4.7425 24.79375 5.485 24.6875 6.25 C24 9 24 9 21 13 C21 9.37 21 5.74 21 2 C14.07 1.67 7.14 1.34 0 1 C0 0.67 0 0.34 0 0 Z " fill="#C8AEDE" transform="translate(87,91)"/>
<path d="M0 0 C0.33 0 0.66 0 1 0 C1.33 5.28 1.66 10.56 2 16 C3.32 15.67 4.64 15.34 6 15 C6 10.71 6 6.42 6 2 C6.33 2 6.66 2 7 2 C7.02698422 4.43757413 7.04683099 6.87484915 7.0625 9.3125 C7.07087891 10.00279297 7.07925781 10.69308594 7.08789062 11.40429688 C7.10307906 14.5483025 7.00193327 16.99420019 6 20 C3.03 20 0.06 20 -3 20 C-2.505 18.515 -2.505 18.515 -2 17 C-1.34 17 -0.68 17 0 17 C0 11.39 0 5.78 0 0 Z " fill="#9278B2" transform="translate(162,169)"/>
<path d="M0 0 C0 8.03816066 -3.12257093 13.8903124 -8.57421875 19.6015625 C-9.04472656 20.06304687 -9.51523438 20.52453125 -10 21 C-10.87840996 17.90279155 -10.99435406 16.09354597 -10 13 C-9.01 13 -8.02 13 -7 13 C-6.690625 12.05125 -6.38125 11.1025 -6.0625 10.125 C-5 7 -5 7 -4 5 C-3.34 5 -2.68 5 -2 5 C-1.855625 4.360625 -1.71125 3.72125 -1.5625 3.0625 C-1 1 -1 1 0 0 Z " fill="#C2B8EF" transform="translate(111,99)"/>
<path d="M0 0 C0.33 0 0.66 0 1 0 C1.33 6.93 1.66 13.86 2 21 C1.67 20.34 1.34 19.68 1 19 C0.34 19.33 -0.32 19.66 -1 20 C-1.65772428 23.02934491 -1.65772428 23.02934491 -2 26 C-2.33 26 -2.66 26 -3 26 C-3.054348 23.9377952 -3.09294961 21.87517184 -3.125 19.8125 C-3.14820312 18.66394531 -3.17140625 17.51539063 -3.1953125 16.33203125 C-3.00211244 13.03603816 -2.31382995 10.98597716 -1 8 C-0.56111075 5.79745973 -0.56111075 5.79745973 -0.375 3.6875 C-0.25125 2.470625 -0.1275 1.25375 0 0 Z " fill="#0A1920" transform="translate(102,155)"/>
<path d="M0 0 C0.33 0 0.66 0 1 0 C1.08107646 2.75059381 1.14052813 5.49879021 1.1875 8.25 C1.22520508 9.41595703 1.22520508 9.41595703 1.26367188 10.60546875 C1.30788562 14.05414078 1.29500442 16.40261605 -0.25 19.53125 C-3.32602112 22.11291058 -6.12323056 21.25421439 -10 21 C-9.34 19.35 -8.68 17.7 -8 16 C-4 16 -4 16 -1 18 C-0.505 9.09 -0.505 9.09 0 0 Z " fill="#5DD7E8" transform="translate(98,168)"/>
<path d="M0 0 C0.66 0 1.32 0 2 0 C1.67 0.99 1.34 1.98 1 3 C0.67 2.01 0.34 1.02 0 0 Z M-1 3 C-1 6.97054597 -2.3139381 8.16471244 -5 11 C-7.25 11.8125 -7.25 11.8125 -9 12 C-9.33 13.32 -9.66 14.64 -10 16 C-10.66 16 -11.32 16 -12 16 C-12.33 17.32 -12.66 18.64 -13 20 C-13 17.36 -13 14.72 -13 12 C-12.360625 11.896875 -11.72125 11.79375 -11.0625 11.6875 C-10.0415625 11.3471875 -10.0415625 11.3471875 -9 11 C-8.67 10.01 -8.34 9.02 -8 8 C-6.37109375 6.61328125 -6.37109375 6.61328125 -4.4375 5.3125 C-3.79683594 4.87550781 -3.15617187 4.43851563 -2.49609375 3.98828125 C-2.00238281 3.66214844 -1.50867188 3.33601562 -1 3 Z " fill="#BDBAED" transform="translate(94,128)"/>
<path d="M0 0 C2.64 0.66 5.28 1.32 8 2 C8 4.64 8 7.28 8 10 C7.34 10 6.68 10 6 10 C6 11.65 6 13.3 6 15 C5.34 15 4.68 15 4 15 C3.87882813 14.25234375 3.75765625 13.5046875 3.6328125 12.734375 C3.46523437 11.74953125 3.29765625 10.7646875 3.125 9.75 C2.96257812 8.77546875 2.80015625 7.8009375 2.6328125 6.796875 C2.05144152 4.22735883 1.29159735 2.27928944 0 0 Z " fill="#04040E" transform="translate(170,102)"/>
<path d="M0 0 C1.65 0.33 3.3 0.66 5 1 C5.33 1.99 5.66 2.98 6 4 C6.99 4 7.98 4 9 4 C8.67 4.99 8.34 5.98 8 7 C7.01 7 6.02 7 5 7 C5 7.99 5 8.98 5 10 C5.66 10 6.32 10 7 10 C6.67 10.66 6.34 11.32 6 12 C4.68 11.34 3.36 10.68 2 10 C2 8.68 2 7.36 2 6 C1.01 5.67 0.02 5.34 -1 5 C-0.67 3.35 -0.34 1.7 0 0 Z " fill="#F9E0DB" transform="translate(53,49)"/>
<path d="M0 0 C5.89264712 2.83300342 8.16699658 5.10735288 11 11 C10.01 11 9.02 11 8 11 C6.32900023 11.31088368 4.66128463 11.64080332 3 12 C2.814375 10.14375 2.814375 10.14375 2.625 8.25 C2.24253695 5.1237803 1.69450477 2.71120763 0 0 Z " fill="#E8D6CD" transform="translate(69,36)"/>
<path d="M0 0 C0.99 0.66 1.98 1.32 3 2 C2.67 4.31 2.34 6.62 2 9 C0.33333333 9 -1.33333333 9 -3 9 C-3.33 9.99 -3.66 10.98 -4 12 C-4.49230769 4.61538462 -4.49230769 4.61538462 -2 1.5 C-1.34 1.005 -0.68 0.51 0 0 Z " fill="#0A0C14" transform="translate(149,176)"/>
<path d="M0 0 C4.455 1.98 4.455 1.98 9 4 C9 8.95 9 13.9 9 19 C8.67 19 8.34 19 8 19 C8 14.38 8 9.76 8 5 C7.01 5.495 7.01 5.495 6 6 C6 6.99 6 7.98 6 9 C4 8 4 8 3 6 C2.01 6 1.02 6 0 6 C0 4.02 0 2.04 0 0 Z " fill="#24212D" transform="translate(72,135)"/>
<path d="M0 0 C1.65 0 3.3 0 5 0 C3.97088923 2.21654627 2.91765775 4.10869177 1.4375 6.0625 C-0.18688728 8.04181496 -0.18688728 8.04181496 -1 11 C-3.0625 11.6875 -3.0625 11.6875 -5 12 C-5.33 10.68 -5.66 9.36 -6 8 C-5.01 7.67 -4.02 7.34 -3 7 C-1.28432339 3.49705129 -1.28432339 3.49705129 0 0 Z " fill="#DEB0EE" transform="translate(86,128)"/>
<path d="M0 0 C1.98 0 3.96 0 6 0 C6 3.63 6 7.26 6 11 C5.01 11 4.02 11 3 11 C2.01 7.37 1.02 3.74 0 0 Z " fill="#6DBEEB" transform="translate(143,160)"/>
<path d="M0 0 C1.25 2.0625 1.25 2.0625 2 4 C-2.47427924 4.08948558 -6.60563789 3.85743651 -11 3 C-11 2.34 -11 1.68 -11 1 C-11.66 0.67 -12.32 0.34 -13 0 C-11.58456585 -0.19658808 -10.16755969 -0.38187546 -8.75 -0.5625 C-7.96109375 -0.66691406 -7.1721875 -0.77132812 -6.359375 -0.87890625 C-3.9550236 -1.00230839 -2.25464874 -0.83066006 0 0 Z " fill="#82B5F0" transform="translate(163,100)"/>
<path d="M0 0 C0.33 0.99 0.66 1.98 1 3 C1.99 3 2.98 3 4 3 C4 3.66 4 4.32 4 5 C6.64 5 9.28 5 12 5 C8.99382731 8.00617269 6.17618402 7.59585316 2 8 C1.67 7.01 1.34 6.02 1 5 C-1.97 4.67 -4.94 4.34 -8 4 C-8 3.67 -8 3.34 -8 3 C-5.69 3 -3.38 3 -1 3 C-0.67 2.01 -0.34 1.02 0 0 Z " fill="#122C34" transform="translate(84,184)"/>
<path d="M0 0 C1.42119141 -0.00386719 1.42119141 -0.00386719 2.87109375 -0.0078125 C5.26390459 0.11026525 7.27586153 0.44387365 9.5625 1.125 C9.5625 1.785 9.5625 2.445 9.5625 3.125 C3.6225 3.125 -2.3175 3.125 -8.4375 3.125 C-8.4375 2.465 -8.4375 1.805 -8.4375 1.125 C-5.36792902 0.10180967 -3.21309677 -0.00871939 0 0 Z " fill="#48DEF6" transform="translate(118.4375,143.875)"/>
<path d="M0 0 C-0.33 1.32 -0.66 2.64 -1 4 C-1.66 4 -2.32 4 -3 4 C-3 4.66 -3 5.32 -3 6 C-4.32 6.33 -5.64 6.66 -7 7 C-7.33 11.29 -7.66 15.58 -8 20 C-8.33 20 -8.66 20 -9 20 C-9.13572155 17.60225255 -9.23436868 15.21224755 -9.3125 12.8125 C-9.35439453 12.13896484 -9.39628906 11.46542969 -9.43945312 10.77148438 C-9.53496469 6.85551034 -9.12323029 5.16225675 -6.73046875 2.01171875 C-4 0 -4 0 0 0 Z " fill="#0E101F" transform="translate(176,120)"/>
<path d="M0 0 C0.33 0 0.66 0 1 0 C1.33 4.62 1.66 9.24 2 14 C1.67 14 1.34 14 1 14 C0.67 16.64 0.34 19.28 0 22 C-1.65 21.67 -3.3 21.34 -5 21 C-4.52949219 20.17242187 -4.05898437 19.34484375 -3.57421875 18.4921875 C-1.86604612 14.70284176 -1.24384153 11.20889409 -0.8125 7.125 C-0.73064453 6.43664062 -0.64878906 5.74828125 -0.56445312 5.0390625 C-0.36629262 3.36052643 -0.18172213 1.68039519 0 0 Z " fill="#4CB8CA" transform="translate(82,163)"/>
<path d="M0 0 C0.66 0 1.32 0 2 0 C1.9071875 1.1446875 1.9071875 1.1446875 1.8125 2.3125 C2.03333514 5.47780368 2.69698534 5.98486217 5 8 C5 8.66 5 9.32 5 10 C6.32 10.66 7.64 11.32 9 12 C8.01 12.495 8.01 12.495 7 13 C5.30859375 12.2578125 5.30859375 12.2578125 3.4375 11.125 C2.50744141 10.57199219 2.50744141 10.57199219 1.55859375 10.0078125 C0 9 0 9 -1 8 C-1.125 4.5 -1.125 4.5 -1 1 C-0.67 0.67 -0.34 0.34 0 0 Z " fill="#D7C6BF" transform="translate(51,49)"/>
<path d="M0 0 C0.33 0 0.66 0 1 0 C1.06058594 1.05960937 1.12117187 2.11921875 1.18359375 3.2109375 C1.26800127 4.59897221 1.35264917 5.98699232 1.4375 7.375 C1.47681641 8.07367188 1.51613281 8.77234375 1.55664062 9.4921875 C1.74280134 13.37360492 1.74280134 13.37360492 3 17 C3.07116382 19.37402501 3.08409085 21.75000677 3.0625 24.125 C3.05347656 25.40632813 3.04445312 26.68765625 3.03515625 28.0078125 C3.02355469 28.99523437 3.01195312 29.98265625 3 31 C2.67 31 2.34 31 2 31 C2 27.04 2 23.08 2 19 C1.34 19 0.68 19 0 19 C0 12.73 0 6.46 0 0 Z " fill="#7185A8" transform="translate(166,125)"/>
<path d="M0 0 C0.99 0.495 0.99 0.495 2 1 C2 1.66 2 2.32 2 3 C2.66 3 3.32 3 4 3 C4 6.63 4 10.26 4 14 C3.01 13.01 2.02 12.02 1 11 C1.33 10.34 1.66 9.68 2 9 C1.34 8.67 0.68 8.34 0 8 C0 5.36 0 2.72 0 0 Z " fill="#94AAF1" transform="translate(168,104)"/>
<path d="M0 0 C3.3 0.99 6.6 1.98 10 3 C10 4.32 10 5.64 10 7 C8.02 7.33 6.04 7.66 4 8 C3.67 6.35 3.34 4.7 3 3 C2.01 2.67 1.02 2.34 0 2 C0 1.34 0 0.68 0 0 Z " fill="#66C1E3" transform="translate(140,96)"/>
<path d="M0 0 C0.99 0.33 1.98 0.66 3 1 C2.01 1.33 1.02 1.66 0 2 C0 3.65 0 5.3 0 7 C-0.639375 7.28875 -1.27875 7.5775 -1.9375 7.875 C-4.15206079 8.82823451 -4.15206079 8.82823451 -5 11 C-2.69 11 -0.38 11 2 11 C2 11.33 2 11.66 2 12 C-0.97 12 -3.94 12 -7 12 C-5.92159715 7.68638859 -5.04708722 6.95475124 -2 4 C-0.76487921 1.86690808 -0.76487921 1.86690808 0 0 Z " fill="#7289B3" transform="translate(143,176)"/>
<path d="M0 0 C2.97 0.33 5.94 0.66 9 1 C9.33 1.99 9.66 2.98 10 4 C7 4 7 4 4 2 C3.01 4.31 2.02 6.62 1 9 C0.67 9 0.34 9 0 9 C0 6.03 0 3.06 0 0 Z " fill="#7DAAE0" transform="translate(149,160)"/>
<path d="M0 0 C0.33 0 0.66 0 1 0 C0.9129995 1.62600941 0.8048219 3.25089678 0.6875 4.875 C0.62949219 5.77992187 0.57148437 6.68484375 0.51171875 7.6171875 C0 10 0 10 -3 12 C-3 9.03 -3 6.06 -3 3 C-2.34 3 -1.68 3 -1 3 C-0.67 2.01 -0.34 1.02 0 0 Z " fill="#E3ADEE" transform="translate(99,109)"/>
<path d="M0 0 C1.32 0 2.64 0 4 0 C4 5.28 4 10.56 4 16 C3.67 16 3.34 16 3 16 C2.67 12.04 2.34 8.08 2 4 C1.34 4 0.68 4 0 4 C0 2.68 0 1.36 0 0 Z " fill="#B992F2" transform="translate(164,168)"/>
<path d="M0 0 C3.7079867 4.94398226 3.37462069 6.09972407 3 12 C2.67 12.99 2.34 13.98 2 15 C1.34 15 0.68 15 0 15 C0 10.05 0 5.1 0 0 Z " fill="#9D8ECA" transform="translate(168,156)"/>
<path d="M0 0 C0.33 0.99 0.66 1.98 1 3 C1.66 3.33 2.32 3.66 3 4 C1.19587357 7.26460973 0.16605307 8.88929795 -3 11 C-3.33 10.34 -3.66 9.68 -4 9 C-3.34 8.67 -2.68 8.34 -2 8 C-2.33 7.01 -2.66 6.02 -3 5 C-2.34 5 -1.68 5 -1 5 C-0.67 3.35 -0.34 1.7 0 0 Z " fill="#090E16" transform="translate(140,173)"/>
<path d="M0 0 C7 0 7 0 10 1 C8.515 3.475 8.515 3.475 7 6 C5.68 5.34 4.36 4.68 3 4 C3 3.01 3 2.02 3 1 C2.01 0.67 1.02 0.34 0 0 Z " fill="#98A5ED" transform="translate(155,160)"/>
<path d="M0 0 C0.66 0.33 1.32 0.66 2 1 C1.37240135 3.92879371 0.41377341 6.36095629 -1 9 C-1.66 9 -2.32 9 -3 9 C-3 6.36 -3 3.72 -3 1 C-2.01 0.67 -1.02 0.34 0 0 Z " fill="#74BFF5" transform="translate(163,135)"/>
<path d="M0 0 C1.58467728 0.28427417 3.1677057 0.57774818 4.75 0.875 C6.07257813 1.11863281 6.07257813 1.11863281 7.421875 1.3671875 C10 2 10 2 14 4 C9.545 4.495 9.545 4.495 5 5 C5 4.34 5 3.68 5 3 C4.01 3 3.02 3 2 3 C2 2.34 2 1.68 2 1 C1.34 0.67 0.68 0.34 0 0 Z " fill="#6EC6E3" transform="translate(126,92)"/>
<path d="M0 0 C1.21816406 0.03480469 1.21816406 0.03480469 2.4609375 0.0703125 C3.68683594 0.09738281 3.68683594 0.09738281 4.9375 0.125 C5.87722656 0.15980469 5.87722656 0.15980469 6.8359375 0.1953125 C6.8359375 0.5253125 6.8359375 0.8553125 6.8359375 1.1953125 C4.8559375 1.1953125 2.8759375 1.1953125 0.8359375 1.1953125 C0.7328125 1.8140625 0.6296875 2.4328125 0.5234375 3.0703125 C-0.1640625 5.1953125 -0.1640625 5.1953125 -3.1640625 7.1953125 C-3.7890625 4.8203125 -3.7890625 4.8203125 -4.1640625 2.1953125 C-2.1640625 0.1953125 -2.1640625 0.1953125 0 0 Z " fill="#9DC1ED" transform="translate(119.1640625,91.8046875)"/>
<path d="M0 0 C0.99 0 1.98 0 3 0 C2.34 1.65 1.68 3.3 1 5 C-1.31 5 -3.62 5 -6 5 C-6 4.01 -6 3.02 -6 2 C-4.35 2 -2.7 2 -1 2 C-0.67 1.34 -0.34 0.68 0 0 Z " fill="#50D7E4" transform="translate(82,182)"/>
<path d="M0 0 C0.33 0.99 0.66 1.98 1 3 C1.66 3 2.32 3 3 3 C3.33 2.01 3.66 1.02 4 0 C4.39253254 4.44870215 3.15305957 7.14243493 1 11 C0.67 11 0.34 11 0 11 C-1.125 3.375 -1.125 3.375 0 0 Z " fill="#69CDE6" transform="translate(82,152)"/>
<path d="M0 0 C0.66 0.99 1.32 1.98 2 3 C1.125 5.6875 1.125 5.6875 0 8 C-0.66 8 -1.32 8 -2 8 C-2.33 8.66 -2.66 9.32 -3 10 C-3.5534764 7.92446352 -4 6.15634036 -4 4 C-3.34 4 -2.68 4 -2 4 C-1.34 2.68 -0.68 1.36 0 0 Z " fill="#0C1318" transform="translate(76,180)"/>
<path d="M0 0 C0 0.66 0 1.32 0 2 C-1.32 2 -2.64 2 -4 2 C-4 2.99 -4 3.98 -4 5 C-5.98 5 -7.96 5 -10 5 C-9.34 4.67 -8.68 4.34 -8 4 C-7.67 3.01 -7.34 2.02 -7 1 C-4 0 -4 0 0 0 Z " fill="#050F13" transform="translate(132,147)"/>
<path d="M0 0 C0.99 0.495 0.99 0.495 2 1 C2 1.66 2 2.32 2 3 C2.66 3 3.32 3 4 3 C4 4.65 4 6.3 4 8 C3.01 8.33 2.02 8.66 1 9 C-0.4783226 6.04335481 -0.06032783 3.25770263 0 0 Z " fill="#73BFF4" transform="translate(160,120)"/>
<path d="M0 0 C0.33 0 0.66 0 1 0 C1 2.64 1 5.28 1 8 C-0.98 8 -2.96 8 -5 8 C-4.67 7.01 -4.34 6.02 -4 5 C-1.9375 4.3125 -1.9375 4.3125 0 4 C0 2.68 0 1.36 0 0 Z " fill="#8FADEA" transform="translate(143,179)"/>
<path d="M0 0 C2.31 0.33 4.62 0.66 7 1 C7 1.66 7 2.32 7 3 C8.65 2.67 10.3 2.34 12 2 C12 2.66 12 3.32 12 4 C7.45194365 4.17835515 4.1205746 3.99785435 0 2 C0 1.34 0 0.68 0 0 Z " fill="#70CFF3" transform="translate(124,94)"/>
<path d="M0 0 C3.3 0.33 6.6 0.66 10 1 C9.67 1.99 9.34 2.98 9 4 C3.375 4.25 3.375 4.25 0 2 C0 1.34 0 0.68 0 0 Z " fill="#1B1427" transform="translate(158,188)"/>
<path d="M0 0 C1.98 0 3.96 0 6 0 C6 3.63 6 7.26 6 11 C5.67 11 5.34 11 5 11 C4.87625 9.39125 4.87625 9.39125 4.75 7.75 C3.94523098 3.7261549 3.12270126 2.51830747 0 0 Z " fill="#A095D6" transform="translate(158,165)"/>
<path d="M0 0 C2.64 0 5.28 0 8 0 C8.33 0.99 8.66 1.98 9 3 C6.03 3 3.06 3 0 3 C0 2.01 0 1.02 0 0 Z " fill="#84B5F4" transform="translate(162,120)"/>
<path d="M0 0 C3.36525621 0.46417327 5.40608501 1.86928411 8 4 C4.25 5.125 4.25 5.125 2 4 C2 3.34 2 2.68 2 2 C1.34 2 0.68 2 0 2 C-0.33 2.66 -0.66 3.32 -1 4 C-1 1 -1 1 0 0 Z " fill="#100D0D" transform="translate(50,58)"/>
<path d="M0 0 C1.32 0 2.64 0 4 0 C4 2.31 4 4.62 4 7 C3.01 7 2.02 7 1 7 C0.67 4.69 0.34 2.38 0 0 Z " fill="#7FB8F2" transform="translate(145,164)"/>
<path d="M0 0 C-0.3125 1.875 -0.3125 1.875 -1 4 C-1.99 4.66 -2.98 5.32 -4 6 C-4.72965366 8.56282742 -4.72965366 8.56282742 -5 11 C-5.33 11 -5.66 11 -6 11 C-6.48951049 4.63636364 -6.48951049 4.63636364 -4.125 1.5625 C-2 0 -2 0 0 0 Z " fill="#9DC8EF" transform="translate(87,144)"/>
<path d="M0 0 C0.78890625 0.30164063 1.5778125 0.60328125 2.390625 0.9140625 C3.18984375 1.21054688 3.9890625 1.50703125 4.8125 1.8125 C5.41578125 2.05226563 6.0190625 2.29203125 6.640625 2.5390625 C6.640625 3.1990625 6.640625 3.8590625 6.640625 4.5390625 C2.350625 3.5490625 -1.939375 2.5590625 -6.359375 1.5390625 C-2.359375 -0.4609375 -2.359375 -0.4609375 0 0 Z " fill="#162D35" transform="translate(135.359375,91.4609375)"/>
<path d="M0 0 C0.66 0 1.32 0 2 0 C1.67 2.97 1.34 5.94 1 9 C0.34 8.67 -0.32 8.34 -1 8 C-1.04241723 5.66705225 -1.04092937 3.33297433 -1 1 C-0.67 0.67 -0.34 0.34 0 0 Z " fill="#C7BCB5" transform="translate(51,49)"/>
<path d="M0 0 C1.32 0.66 2.64 1.32 4 2 C3.67 3.32 3.34 4.64 3 6 C-1.875 4.25 -1.875 4.25 -3 2 C-2.01 2 -1.02 2 0 2 C0 1.34 0 0.68 0 0 Z " fill="#1A1818" transform="translate(63,33)"/>
<path d="M0 0 C0.66 0.33 1.32 0.66 2 1 C2 1.99 2 2.98 2 4 C1.484375 3.67 0.96875 3.34 0.4375 3 C-2.78026512 1.67989123 -5.5570528 1.86757895 -9 2 C-5.54337669 -0.30441554 -4.05142119 -0.25860135 0 0 Z " fill="#7E96BF" transform="translate(164,98)"/>
<path d="M0 0 C0.66 0.33 1.32 0.66 2 1 C1.01 2.485 1.01 2.485 0 4 C0 5.32 0 6.64 0 8 C-0.66 8 -1.32 8 -2 8 C-2 7.01 -2 6.02 -2 5 C-2.66 5 -3.32 5 -4 5 C-4 4.01 -4 3.02 -4 2 C-2.125 0.9375 -2.125 0.9375 0 0 Z " fill="#EFDAD1" transform="translate(62,54)"/>
<path d="M0 0 C0.0825 0.61875 0.165 1.2375 0.25 1.875 C0.81258459 4.18437567 0.81258459 4.18437567 3.0625 5.25 C3.701875 5.4975 4.34125 5.745 5 6 C2.36 6 -0.28 6 -3 6 C-1.125 1.125 -1.125 1.125 0 0 Z " fill="#5CC7D6" transform="translate(91,183)"/>
<path d="M0 0 C0.33 0 0.66 0 1 0 C1 2.31 1 4.62 1 7 C0.01 7 -0.98 7 -2 7 C-2.125 4.625 -2.125 4.625 -2 2 C-1.34 1.34 -0.68 0.68 0 0 Z " fill="#0A060A" transform="translate(87,180)"/>
<path d="M0 0 C1.98 0.99 1.98 0.99 4 2 C3.67 3.98 3.34 5.96 3 8 C0.37613513 4.93882432 0 4.26826873 0 0 Z " fill="#D899C9" transform="translate(64,120)"/>
<path d="M0 0 C0.33 0.66 0.66 1.32 1 2 C1.66 2.33 2.32 2.66 3 3 C2.34 3 1.68 3 1 3 C1.33 4.32 1.66 5.64 2 7 C0.68 7 -0.64 7 -2 7 C-1.34 4.69 -0.68 2.38 0 0 Z " fill="#0B2127" transform="translate(88,174)"/>
<path d="M0 0 C0 2.31 0 4.62 0 7 C-1.65 5.35 -3.3 3.7 -5 2 C-1.125 0 -1.125 0 0 0 Z " fill="#54C7DE" transform="translate(143,153)"/>
<path d="M0 0 C2.97 0.495 2.97 0.495 6 1 C5.67 1.66 5.34 2.32 5 3 C3.68 2.67 2.36 2.34 1 2 C1 3.65 1 5.3 1 7 C0.67 7 0.34 7 0 7 C0 4.69 0 2.38 0 0 Z " fill="#75ADDC" transform="translate(164,122)"/>
</svg>
