<?xml version="1.0" encoding="UTF-8"?>
<svg version="1.1" xmlns="http://www.w3.org/2000/svg" width="215" height="234">
<path d="M0 0 C70.95 0 141.9 0 215 0 C215 77.22 215 154.44 215 234 C144.05 234 73.1 234 0 234 C0 156.78 0 79.56 0 0 Z " fill="#000000" transform="translate(0,0)"/>
<path d="M0 0 C12.69450052 0.03755769 22.86825602 3.13334558 32.25390625 11.953125 C42.54486446 24.01679861 44.98473327 38.72502966 44 54 C43.21258034 60.59252911 42.28134087 66.77629877 38 72 C37.29485154 74.14733927 37.29485154 74.14733927 37 76 C36.34 76 35.68 76 35 76 C35 76.66 35 77.32 35 78 C34.34 78 33.68 78 33 78 C32.690625 78.8971875 32.690625 78.8971875 32.375 79.8125 C30.33953556 83.05073888 28.61321989 83.62933703 25 85 C20.77883776 85.54566048 16.56489802 85.60969693 12.3125 85.6875 C11.01497803 85.72093506 9.71745605 85.75437012 8.38061523 85.78881836 C-13.40378937 86.29781529 -35.21166276 86.08486938 -57 86 C-57 86.66 -57 87.32 -57 88 C-32.25 88.495 -32.25 88.495 -7 89 C-7 113 -7 113 -9 119 C-11.67573375 121.27974778 -14.79636417 122.58066767 -18 124 C-18.6703125 124.2990625 -19.340625 124.598125 -20.03125 124.90625 C-36.50805348 131.24348211 -61.79190832 131.84488665 -78.0625 125.125 C-81.27736 123.54120868 -83.78642241 121.88727511 -86 119 C-86 118.34 -86 117.68 -86 117 C-86.66 117 -87.32 117 -88 117 C-95.69914501 99.50194316 -95.14531248 75.70190638 -88.6875 57.75 C-85.89234746 51.2816787 -83.15180891 47.7266636 -76.63671875 44.88671875 C-67.7384381 41.72641089 -58.23961578 42.6557124 -48.9375 42.875 C-46.11847695 42.93067843 -43.29969042 42.9800959 -40.48036194 43.0173645 C-38.73817123 43.04142049 -36.99607904 43.07614871 -35.25437927 43.12399292 C-26.95913003 43.25865555 -19.28258022 42.16147441 -12 38 C-11.236875 37.690625 -10.47375 37.38125 -9.6875 37.0625 C-7.82730158 36.1531756 -7.82730158 36.1531756 -7.484375 34.19921875 C-7.32453125 33.47347656 -7.1646875 32.74773437 -7 32 C-6.53269016 30.57937808 -6.05291823 29.16281106 -5.5625 27.75 C-2.51421942 18.60515826 -1.16647502 9.53034913 0 0 Z " fill="#144E5A" transform="translate(156,60)"/>
<path d="M0 0 C1.19496094 -0.02449219 2.38992187 -0.04898437 3.62109375 -0.07421875 C15.61627394 -0.11320633 27.09279078 2.3651835 36.375 10.375 C45.82994206 22.26992711 43.28593287 44.73480895 41.78125 58.8203125 C40.33539089 67.91254191 37.31838919 77.08574833 30.375 83.375 C20.16127629 88.55801151 6.76991311 86.55643985 -4.30419922 86.31347656 C-22.61974037 85.30799962 -22.61974037 85.30799962 -39.25 91.6875 C-46.60155173 100.00636117 -47.91255327 111.00500148 -48.97875977 121.66137695 C-49.53603609 127.19707217 -49.53603609 127.19707217 -50.625 129.375 C-60.76640556 130.15178851 -68.76025721 127.53749416 -76.6796875 121.125 C-83.92164136 114.61014994 -87.86673292 108.72852944 -90.625 99.375 C-90.98078125 98.49328125 -91.3365625 97.6115625 -91.703125 96.703125 C-92.99113867 92.05317736 -93.00654086 87.61757799 -93 82.8125 C-93.00128906 81.83974121 -93.00257812 80.86698242 -93.00390625 79.86474609 C-92.89032458 72.09601818 -91.66900915 65.57734309 -88.625 58.375 C-87.965 58.375 -87.305 58.375 -86.625 58.375 C-86.53347656 57.62476563 -86.44195312 56.87453125 -86.34765625 56.1015625 C-85.5018152 52.91022706 -84.54302159 51.87616136 -82.0625 49.75 C-81.42183594 49.18023437 -80.78117187 48.61046875 -80.12109375 48.0234375 C-74.25553825 44.14978426 -68.58236809 42.92623033 -61.6484375 43.03442383 C-60.89624435 43.03398575 -60.14405121 43.03354767 -59.36906433 43.03309631 C-56.9124343 43.03516636 -54.45650901 43.0584114 -52 43.08203125 C-50.28507866 43.08763358 -48.57015249 43.09190067 -46.85522461 43.09489441 C-42.36381538 43.10629306 -37.87270189 43.13571677 -33.38140869 43.16900635 C-28.78946939 43.19981518 -24.19748184 43.21342276 -19.60546875 43.22851562 C-10.61184996 43.26059174 -1.61844967 43.31172714 7.375 43.375 C7.375 42.715 7.375 42.055 7.375 41.375 C-9.455 41.375 -26.285 41.375 -43.625 41.375 C-43.625 13.50686813 -43.625 13.50686813 -39.4921875 9.1015625 C-36.01006058 7.00469588 -32.64145097 5.8556085 -28.75 4.75 C-28.06808594 4.54632812 -27.38617188 4.34265625 -26.68359375 4.1328125 C-25.31495347 3.72613082 -23.94329171 3.32948429 -22.56884766 2.94287109 C-20.84947682 2.44057813 -19.15601171 1.85140021 -17.46875 1.25 C-11.65826265 -0.07271257 -5.94028316 0.00628601 0 0 Z " fill="#144E5A" transform="translate(108.625,14.625)"/>
<path d="M0 0 C0.33 2.31 0.66 4.62 1 7 C1.70125 6.01 2.4025 5.02 3.125 4 C5.32959535 1.30900395 5.64418661 1.04028076 9.3125 0.625 C10.199375 0.74875 11.08625 0.8725 12 1 C11.0234375 2.69270833 10.046875 4.38541667 9.0703125 6.078125 C7.98600118 8.02513657 6.98235143 9.99989709 6 12 C6.86625 13.15628906 6.86625 13.15628906 7.75 14.3359375 C8.4925 15.33882812 9.235 16.34171875 10 17.375 C11.11375 18.87160156 11.11375 18.87160156 12.25 20.3984375 C14 23 14 23 14 25 C11.69 25 9.38 25 7 25 C5.35 22.03 3.7 19.06 2 16 C1.67 16 1.34 16 1 16 C0.67 18.97 0.34 21.94 0 25 C-1.65 25 -3.3 25 -5 25 C-5.495 15.1 -5.495 15.1 -6 5 C-7.98 5 -9.96 5 -12 5 C-12 11.6 -12 18.2 -12 25 C-13.65 25 -15.3 25 -17 25 C-17 18.07 -17 11.14 -17 4 C-19.31 4 -21.62 4 -24 4 C-24 3.01 -24 2.02 -24 1 C-20.93758173 0.83170223 -17.87508013 0.66530338 -14.8125 0.5 C-13.94818359 0.45230469 -13.08386719 0.40460938 -12.19335938 0.35546875 C-8.12442913 0.13721196 -4.07665227 -0.06752219 0 0 Z " fill="#2D8F8F" transform="translate(128,201)"/>
<path d="M0 0 C1.98 0 3.96 0 6 0 C6.40992187 0.75925781 6.81984375 1.51851562 7.2421875 2.30078125 C7.78101562 3.29464844 8.31984375 4.28851563 8.875 5.3125 C9.67550781 6.79169922 9.67550781 6.79169922 10.4921875 8.30078125 C12.00722126 11.09586458 12.00722126 11.09586458 14 14 C14.33 9.38 14.66 4.76 15 0 C16.32 0 17.64 0 19 0 C19 8.25 19 16.5 19 25 C17.35 25 15.7 25 14 25 C13.67 23.68 13.34 22.36 13 21 C12.34 21 11.68 21 11 21 C9.35 18.03 7.7 15.06 6 12 C5.67 16.29 5.34 20.58 5 25 C3.35 25 1.7 25 0 25 C0 16.75 0 8.5 0 0 Z " fill="#2C8A8A" transform="translate(71,201)"/>
<path d="M0 0 C2.59435711 2.13313807 4.45623289 3.94645122 6 6.9375 C6 10.96437578 3.89022028 13.93858351 1.375 16.9375 C-2.45385523 18.65040892 -6.01670408 18.08635343 -10 17 C-12.0625 15.4375 -12.0625 15.4375 -13 13 C-13.39747875 9.13432429 -13.23936469 5.71809406 -12 2 C-7.70104917 -0.79931682 -4.91229928 -1.67227209 0 0 Z " fill="#000102" transform="translate(89,29)"/>
<path d="M0 0 C2.0150649 2.12112095 3.21285103 4.18036188 4 7 C3.44822977 10.1880058 2.56764213 12.13359885 0.8125 14.8125 C-2.09982233 16.72057325 -4.55224713 16.88312702 -8 17 C-11.375 15.75 -11.375 15.75 -14 14 C-15.20190901 10.39427296 -15.32670315 7.7897565 -15 4 C-13.3236826 1.24604998 -12.06172747 -0.45083062 -9.1875 -1.9375 C-5.65393111 -2.03845911 -3.25732855 -1.39599795 0 0 Z " fill="#000101" transform="translate(134,157)"/>
<path d="M0 0 C1.65 0 3.3 0 5 0 C5 6.93 5 13.86 5 21 C8.3 21 11.6 21 15 21 C15 22.32 15 23.64 15 25 C10.05 25 5.1 25 0 25 C0 16.75 0 8.5 0 0 Z " fill="#2D8B8B" transform="translate(93,201)"/>
</svg>
