<?xml version="1.0" encoding="UTF-8"?>
<svg version="1.1" xmlns="http://www.w3.org/2000/svg" width="300" height="259">
<path d="M0 0 C99 0 198 0 300 0 C300 85.47 300 170.94 300 259 C201 259 102 259 0 259 C0 173.53 0 88.06 0 0 Z " fill="#FDFDFD" transform="translate(0,0)"/>
<path d="M0 0 C4.4465569 -0.5343785 8.57077705 -0.75582205 13 0 C16.04231581 2.48436214 17.39536492 5.46462659 19 9 C19.72316406 10.39798828 19.72316406 10.39798828 20.4609375 11.82421875 C21.68656545 14.19760327 22.85264656 16.58825732 24 19 C23.16597656 18.90904053 22.33195312 18.81808105 21.47265625 18.72436523 C17.60948149 18.60737476 14.69618475 18.82721226 11 20 C6.98950869 24.14452774 4.58748454 28.95065525 2 34.0625 C1.28700027 35.38976895 0.56957946 36.71467285 -0.15234375 38.03710938 C-1.48988385 40.49423606 -2.79276121 42.95979903 -4.078125 45.44555664 C-6.21353547 49.39492669 -8.62045812 53.19273299 -11 57 C3.19 57 17.38 57 32 57 C32.66 55.35 33.32 53.7 34 52 C35.13040344 49.8532658 36.29235237 47.72299703 37.4765625 45.60546875 C37.80667328 45.01325027 38.13678406 44.4210318 38.47689819 43.81086731 C39.52346559 41.9348315 40.57415982 40.06114515 41.625 38.1875 C42.33881635 36.90965861 43.05236086 35.63166533 43.765625 34.35351562 C45.50727516 31.23391361 47.25263207 28.11640374 49 25 C49.99 25 50.98 25 52 25 C53.47043532 26.98432914 54.70718017 28.89352814 55.94140625 31.01953125 C56.30975082 31.63390549 56.6780954 32.24827972 57.05760193 32.88127136 C58.23632054 34.85235281 59.39958381 36.83206212 60.5625 38.8125 C61.3498878 40.13667694 62.13828727 41.46025287 62.92773438 42.78320312 C64.04160204 44.65039525 65.15385465 46.5183666 66.25843811 48.3910675 C67.78226523 50.97453243 69.3354906 53.5032359 71 56 C70.74182855 61.00702829 68.87771574 64.3810947 66.2890625 68.60546875 C65.9202597 69.2113533 65.55145691 69.81723785 65.17147827 70.44148254 C64.39426653 71.71402697 63.61241064 72.98374544 62.82617188 74.25073242 C61.62586503 76.18610522 60.4407814 78.1301635 59.2578125 80.07617188 C52.93795342 90.38931373 52.93795342 90.38931373 50 93 C47.93693624 89.35448541 45.87465341 85.70852961 43.8125 82.0625 C43.23435547 81.04091797 42.65621094 80.01933594 42.06054688 78.96679688 C41.49013672 77.95810547 40.91972656 76.94941406 40.33203125 75.91015625 C39.55436401 74.53549194 39.55436401 74.53549194 38.76098633 73.13305664 C36.49246527 69.09702022 34.24846791 65.04724224 32 61 C18.14 61 4.28 61 -10 61 C-4.58647938 69.90016302 -4.58647938 69.90016302 0.82910156 78.79907227 C1.5094043 79.91854248 2.18970703 81.0380127 2.890625 82.19140625 C3.41052002 83.04454407 3.41052002 83.04454407 3.94091797 83.91491699 C6.80598617 88.6334392 6.80598617 88.6334392 8.03167725 90.94920349 C8.94998212 92.67263453 9.96938366 94.34128715 11 96 C14.23916849 97.0542107 14.23916849 97.0542107 17.75 96.9375 C18.92046875 96.96714844 20.0909375 96.99679688 21.296875 97.02734375 C22.18890625 97.01832031 23.0809375 97.00929688 24 97 C22.40376856 101.39383706 20.21975667 105.28995807 17.875 109.3125 C17.50246094 109.95767578 17.12992188 110.60285156 16.74609375 111.26757812 C15.83367787 112.84675945 14.91724491 114.42361864 14 116 C9.38 116 4.76 116 0 116 C-0.969375 114.30359375 -1.93875 112.6071875 -2.9375 110.859375 C-3.57824463 109.73869629 -4.21898926 108.61801758 -4.87915039 107.46337891 C-6.3056781 104.96727753 -7.72898292 102.46937387 -9.15014648 99.97021484 C-12.56257632 93.97537883 -15.98934398 87.99193716 -19.50894165 82.0592041 C-21.00928098 79.52823908 -22.49759182 76.99029983 -23.98510742 74.45178223 C-24.70047254 73.23883877 -25.42179601 72.02938876 -26.14916992 70.8236084 C-27.16790078 69.1335853 -28.16452566 67.43029673 -29.16015625 65.7265625 C-29.73386963 64.76314941 -30.30758301 63.79973633 -30.89868164 62.80712891 C-32.26228489 59.33146716 -32.01634986 57.56431531 -31 54 C-29.85522461 51.56005859 -29.85522461 51.56005859 -28.40234375 49.1484375 C-27.58189575 47.76712646 -27.58189575 47.76712646 -26.74487305 46.35791016 C-25.85022339 44.88136963 -25.85022339 44.88136963 -24.9375 43.375 C-23.67049814 41.24561031 -22.40493537 39.11536385 -21.140625 36.984375 C-20.47095703 35.85966797 -19.80128906 34.73496094 -19.11132812 33.57617188 C-15.76206748 27.92463714 -12.51332903 22.21503306 -9.26052856 16.50762939 C-8.19767807 14.64285743 -7.13305701 12.77910564 -6.06811523 10.91552734 C-2.93343163 5.51214145 -2.93343163 5.51214145 0 0 Z " fill="#160405" transform="translate(119,47)"/>
<path d="M0 0 C6.83049276 -0.33078131 13.65891346 -0.55770383 20.49560547 -0.71411133 C22.81833029 -0.77932368 25.14052462 -0.86792541 27.46142578 -0.98071289 C46.0890762 -1.86299123 46.0890762 -1.86299123 50.7539978 1.12255859 C54.00390927 4.48928905 55.41912014 8.68530932 57 13 C58.11652092 15.04342274 59.26825264 17.06806355 60.45703125 19.0703125 C61.57837453 21.08695753 62.69681821 23.10521732 63.8125 25.125 C67.26590165 31.35972146 70.72206167 37.58324392 74.3828125 43.69921875 C74.89996826 44.56724121 75.41712402 45.43526367 75.94995117 46.32958984 C76.91888556 47.94686585 77.89775885 49.55824174 78.88793945 51.16259766 C79.52928833 52.23646729 79.52928833 52.23646729 80.18359375 53.33203125 C80.56056396 53.94796143 80.93753418 54.5638916 81.32592773 55.19848633 C82.2277625 57.60871406 81.90660536 58.59782668 81 61 C80.03777766 62.92391551 79.02143357 64.82108434 77.97265625 66.69921875 C77.03860962 68.37769897 77.03860962 68.37769897 76.08569336 70.09008789 C75.41155899 71.28937337 74.73715591 72.48850784 74.0625 73.6875 C73.37686682 74.9132363 72.69140216 76.13906687 72.00610352 77.36499023 C67.12572073 86.07706598 62.15080967 94.73046071 57.01953125 103.29736328 C56.03965812 104.93377018 55.06655801 106.57422696 54.09375 108.21484375 C50.14511246 114.85488754 50.14511246 114.85488754 49 116 C47.4651703 116.09319449 45.92607918 116.117458 44.38842773 116.11352539 C43.40748642 116.11344986 42.4265451 116.11337433 41.4158783 116.11329651 C40.3492244 116.10813522 39.2825705 116.10297394 38.18359375 116.09765625 C36.55430687 116.09553383 36.55430687 116.09553383 34.8921051 116.09336853 C31.40720925 116.08775048 27.92237658 116.07519492 24.4375 116.0625 C22.08138113 116.05748733 19.72526126 116.05292402 17.36914062 116.04882812 C11.57940536 116.03777519 5.78970719 116.02101951 0 116 C1.92962963 111.96170294 3.94554047 107.97608362 6 104 C6.53403442 102.84165649 6.53403442 102.84165649 7.07885742 101.65991211 C8.21940713 99.56840705 9.03972059 98.366879 11 97 C15.14084798 96.16723372 19.11112198 96.33904857 23.3125 96.5625 C24.43462891 96.59408203 25.55675781 96.62566406 26.71289062 96.65820312 C29.47793172 96.74056605 32.23762302 96.85551425 35 97 C35.25072266 96.31373535 35.50144531 95.6274707 35.75976562 94.92041016 C37.19623126 91.53792945 38.97359888 88.4273427 40.84375 85.2734375 C41.21350952 84.64394196 41.58326904 84.01444641 41.9642334 83.36587524 C42.74260659 82.04211928 43.52262567 80.71932987 44.30419922 79.39746094 C45.49920131 77.37635083 46.68949503 75.3525294 47.87890625 73.328125 C48.63775014 72.03890313 49.39685576 70.74983527 50.15625 69.4609375 C50.51150757 68.85776703 50.86676514 68.25459656 51.23278809 67.63314819 C52.76520367 65.04242255 54.32969227 62.5054616 56 60 C55.68217113 55.78344074 53.90464702 52.71308999 51.796875 49.10546875 C51.14589844 47.98462891 50.49492187 46.86378906 49.82421875 45.70898438 C49.13286737 44.53512393 48.44146076 43.36129601 47.75 42.1875 C47.07359686 41.02575249 46.39780995 39.86364595 45.72265625 38.70117188 C42.89339611 33.85140867 40.04350503 29.02944157 37.015625 24.30078125 C35 21 35 21 35 19 C34.29504395 19.08902588 33.59008789 19.17805176 32.86376953 19.26977539 C13.21706506 21.43075198 13.21706506 21.43075198 7.83447266 17.36376953 C4.06517568 12.81174194 0 6.08834077 0 0 Z " fill="#150304" transform="translate(137,47)"/>
<path d="M0 0 C5.65125 -0.103125 11.3025 -0.20625 17.125 -0.3125 C18.89762207 -0.35802002 20.67024414 -0.40354004 22.49658203 -0.45043945 C23.91697299 -0.46505578 25.33738505 -0.47779375 26.7578125 -0.48828125 C27.48282959 -0.51386108 28.20784668 -0.53944092 28.95483398 -0.5657959 C32.71733252 -0.56899857 35.43974897 -0.0993079 38.46972656 2.08496094 C41.59959305 5.69077007 41.74914765 7.40464308 41.7265625 12.12890625 C41.72755951 12.80042221 41.72855652 13.47193817 41.72958374 14.1638031 C41.72492261 15.57668966 41.70558348 16.98959595 41.67236328 18.40209961 C41.62504177 20.56059489 41.63126093 22.71416243 41.64453125 24.87304688 C41.56004785 35.30462274 41.56004785 35.30462274 39.08740234 38.37475586 C35.18727069 41.41138468 31.91659991 41.13037843 27.1484375 41.09765625 C26.46241455 41.09664917 25.7763916 41.09564209 25.06958008 41.09460449 C22.50470307 41.08936889 19.93984987 41.07540763 17.375 41.0625 C11.64125 41.041875 5.9075 41.02125 0 41 C0 27.47 0 13.94 0 0 Z " fill="#1D0B0C" transform="translate(246,199)"/>
<path d="M0 0 C1.26521484 -0.00644531 2.53042969 -0.01289063 3.83398438 -0.01953125 C5.14818359 -0.00019531 6.46238281 0.01914063 7.81640625 0.0390625 C9.12673828 0.01972656 10.43707031 0.00039062 11.78710938 -0.01953125 C22.46971755 0.03483317 22.46971755 0.03483317 26.25 2.23046875 C30.19725375 6.51627689 29.17994299 13.59504167 29.05126953 19.06616211 C29.00394802 21.22465739 29.01016718 23.37822493 29.0234375 25.53710938 C28.9389541 35.96868524 28.9389541 35.96868524 26.46630859 39.03881836 C21.57510712 42.84709067 16.10452521 41.96073128 10.11254883 42.01416016 C8.75365039 42.03069847 7.3948382 42.05796171 6.03637695 42.09619141 C4.07165939 42.15115857 2.106031 42.16973139 0.140625 42.1875 C-1.62341675 42.217229 -1.62341675 42.217229 -3.4230957 42.24755859 C-7.6756257 41.47165611 -9.09309955 40.13666843 -11.62109375 36.6640625 C-12.26806641 33.33007812 -12.26806641 33.33007812 -12.28515625 29.5703125 C-12.28993988 28.90116821 -12.29472351 28.23202393 -12.2996521 27.54260254 C-12.30304031 26.13400916 -12.29391297 24.72533598 -12.27294922 23.31689453 C-12.24615664 21.16910364 -12.27272141 19.02653597 -12.3046875 16.87890625 C-12.3013832 15.50519688 -12.29497651 14.13149074 -12.28515625 12.7578125 C-12.2795166 11.51708984 -12.27387695 10.27636719 -12.26806641 8.99804688 C-10.9098686 1.99897167 -6.70790182 0.03287957 0 0 Z " fill="#190708" transform="translate(30.62109375,198.3359375)"/>
<path d="M0 0 C5.671875 -0.0825 11.34375 -0.165 17.1875 -0.25 C18.96922607 -0.28641602 20.75095215 -0.32283203 22.58666992 -0.36035156 C24.00959063 -0.37204139 25.43252477 -0.38223253 26.85546875 -0.390625 C27.58560181 -0.41108887 28.31573486 -0.43155273 29.06799316 -0.45263672 C32.76951549 -0.4551569 34.80361886 -0.12659253 37.9465332 1.89941406 C41.5382871 5.57358485 41.24701645 8.90996492 41.3125 13.8125 C41.34150391 14.52470703 41.37050781 15.23691406 41.40039062 15.97070312 C41.44530392 19.70541638 41.14178313 21.77928605 39.10546875 24.94921875 C35.7303782 28.23664461 33.73258253 28.12006108 29.1171875 28.09765625 C27.95058594 28.09443359 26.78398438 28.09121094 25.58203125 28.08789062 C24.35871094 28.07951172 23.13539062 28.07113281 21.875 28.0625 C20.64394531 28.05798828 19.41289063 28.05347656 18.14453125 28.04882812 C15.09633361 28.03701341 12.04816084 28.0190775 9 28 C9 32.29 9 36.58 9 41 C6.03 41 3.06 41 0 41 C0 27.47 0 13.94 0 0 Z " fill="#1D0B0C" transform="translate(65,199)"/>
<path d="M0 0 C1.21494141 -0.01933594 2.42988281 -0.03867188 3.68164062 -0.05859375 C13.59388725 -0.00428007 13.59388725 -0.00428007 17.359375 2.68359375 C20.14846232 6.40732203 20.32523031 8.6929676 20.375 13.3125 C20.25796403 18.11529903 20.25796403 18.11529903 21.5625 22.625 C21.73721848 24.72448601 21.82967852 26.83124408 21.875 28.9375 C21.93107422 30.63326172 21.93107422 30.63326172 21.98828125 32.36328125 C21.47855818 36.26804057 20.29040817 37.84648129 17.5625 40.625 C13.35514675 42.72867662 7.92463916 41.93382657 3.29614258 41.97509766 C1.93724414 41.99163597 0.57843195 42.01889921 -0.7800293 42.05712891 C-2.74474686 42.11209607 -4.71037525 42.13066889 -6.67578125 42.1484375 C-8.439823 42.1781665 -8.439823 42.1781665 -10.23950195 42.20849609 C-14.39144685 41.45094603 -15.86622845 39.90427681 -18.4375 36.625 C-18.75 33.3125 -18.75 33.3125 -18.4375 30.625 C-15.7975 30.625 -13.1575 30.625 -10.4375 30.625 C-10.4375 31.285 -10.4375 31.945 -10.4375 32.625 C-2.8475 32.625 4.7425 32.625 12.5625 32.625 C12.5625 30.315 12.5625 28.005 12.5625 25.625 C4.3125 25.625 -3.9375 25.625 -12.4375 25.625 C-12.4375 22.655 -12.4375 19.685 -12.4375 16.625 C-4.8475 16.625 2.7425 16.625 10.5625 16.625 C10.5625 14.315 10.5625 12.005 10.5625 9.625 C3.6325 9.625 -3.2975 9.625 -10.4375 9.625 C-10.4375 10.615 -10.4375 11.605 -10.4375 12.625 C-13.0775 12.625 -15.7175 12.625 -18.4375 12.625 C-18.82586786 8.6636478 -18.88922533 6.35091209 -16.7578125 2.92578125 C-12.32627062 -1.18086984 -5.62907405 -0.08930313 0 0 Z " fill="#1D0B0C" transform="translate(218.4375,198.375)"/>
<path d="M0 0 C12.54 0 25.08 0 38 0 C38 2.97 38 5.94 38 9 C28.43 9 18.86 9 9 9 C9 11.31 9 13.62 9 16 C16.59 16 24.18 16 32 16 C32 18.97 32 21.94 32 25 C24.41 25 16.82 25 9 25 C9 27.31 9 29.62 9 32 C18.57 32 28.14 32 38 32 C38 34.97 38 37.94 38 41 C25.46 41 12.92 41 0 41 C0 27.47 0 13.94 0 0 Z " fill="#1C0A0B" transform="translate(110,199)"/>
<path d="M0 0 C9 0 9 0 11.53125 1.80078125 C12.1809375 2.62964844 12.830625 3.45851562 13.5 4.3125 C14.60408203 5.67375 14.60408203 5.67375 15.73046875 7.0625 C16.47941406 8.031875 17.22835937 9.00125 18 10 C19.60168081 11.9395555 21.20580159 13.87709897 22.8125 15.8125 C25.55673034 19.19655089 28.27821004 22.59776256 31 26 C31.33 17.42 31.66 8.84 32 0 C34.97 0 37.94 0 41 0 C41 13.53 41 27.06 41 41 C31 41 31 41 27.96875 38.578125 C27.11493857 37.49234843 26.29275735 36.38112356 25.5 35.25 C24.58759571 34.06352813 23.67482608 32.87733714 22.76171875 31.69140625 C22.30974121 31.08184082 21.85776367 30.47227539 21.39208984 29.84423828 C19.60080086 27.47114165 17.70320741 25.1998535 15.78442383 22.92944336 C13.84246258 20.63123578 11.92345357 18.31371951 10 16 C9.67 24.25 9.34 32.5 9 41 C6.03 41 3.06 41 0 41 C0 27.47 0 13.94 0 0 Z " fill="#1C0A0B" transform="translate(153,199)"/>
<path d="M0 0 C7.59 0 15.18 0 23 0 C23 7.59 23 15.18 23 23 C15.41 23 7.82 23 0 23 C0 15.41 0 7.82 0 0 Z " fill="#FAF9F9" transform="translate(255,208)"/>
<path d="M0 0 C7.59 0 15.18 0 23 0 C23 7.59 23 15.18 23 23 C15.41 23 7.82 23 0 23 C0 15.41 0 7.82 0 0 Z " fill="#F9F9F9" transform="translate(27,208)"/>
<path d="M0 0 C7.59 0 15.18 0 23 0 C23 3.3 23 6.6 23 10 C15.41 10 7.82 10 0 10 C0 6.7 0 3.4 0 0 Z " fill="#F4F3F3" transform="translate(74,208)"/>
<path d="M0 0 C0.33 0.99 0.66 1.98 1 3 C-0.25 5.1875 -0.25 5.1875 -2 7 C-2.99 7 -3.98 7 -5 7 C-3.75023244 3.34683329 -3.32901247 2.21934164 0 0 Z " fill="#E8E6E7" transform="translate(178,129)"/>
</svg>
