<?xml version="1.0" encoding="UTF-8"?>
<svg version="1.1" xmlns="http://www.w3.org/2000/svg" width="50" height="50">
<path d="M0 0 C6.21022081 3.77380156 11.12756342 9.38269026 13.4375 16.3125 C14.06027571 24.34732765 14.41847862 31.64415403 9.4375 38.3125 C4.85388456 43.61984419 -0.46283458 47.99473686 -7.63671875 48.55078125 C-16.8461929 48.73994883 -22.33912774 47.95995786 -29.3125 41.9375 C-35.62744532 34.57006379 -36.92244811 29.37808317 -36.84375 19.8359375 C-36.26602578 12.59833686 -33.0249729 7.99461963 -27.5625 3.3125 C-19.66584559 -2.37309117 -9.18150824 -4.36209587 0 0 Z " fill="#434239" transform="translate(36.5625,1.6875)"/>
<path d="M0 0 C0.12375 0.804375 0.2475 1.60875 0.375 2.4375 C0.58125 3.283125 0.7875 4.12875 1 5 C1.66 5.33 2.32 5.66 3 6 C2.70703125 7.953125 2.4140625 9.90625 2.12109375 11.859375 C1.99285073 14.12638056 2.34278703 15.83849957 3 18 C3.60328125 18.10957031 4.2065625 18.21914063 4.828125 18.33203125 C12.76625659 19.90685413 12.76625659 19.90685413 16 23 C16.0625 25.625 16.0625 25.625 15 29 C7.89649307 35.14319188 1.74679455 36.3405697 -7.46875 36.29296875 C-13.44359747 35.79726791 -17.06765541 33.28822973 -22 30 C-21.74220026 26.21893711 -21.47578037 24.47578037 -18.75 21.75 C-13.26977448 18.26258376 -9.34635916 18 -3 18 C-3 17.34 -3 16.68 -3 16 C-4.65 15.67 -6.3 15.34 -8 15 C-7.67 13.68 -7.34 12.36 -7 11 C-8.32 11 -9.64 11 -11 11 C-11.60579065 3.73051225 -11.60579065 3.73051225 -8.875 0.4375 C-5.38987838 -1.30506081 -3.69310412 -1.03063371 0 0 Z " fill="#B1C6EB" transform="translate(29,14)"/>
<path d="M0 0 C7.03730118 0.25590186 11.70967675 2.30420832 17 7 C23.16867273 14.76578753 23.82775835 22.24965162 23 32 C21.97839119 35.08267113 20.76410497 37.24358598 19 40 C18.360625 39.236875 17.72125 38.47375 17.0625 37.6875 C14.67576469 35.23903878 12.58702558 34.41369827 9.3125 33.5 C5.18999179 32.29960243 5.18999179 32.29960243 3.375 29.4375 C3 27 3 27 4 25 C4.81170915 17.7413923 4.81170915 17.7413923 2 11.375 C1.34 10.59125 0.68 9.8075 0 9 C-0.35087968 5.97108279 -0.2380467 3.03509547 0 0 Z " fill="#150E15" transform="translate(27,0)"/>
<path d="M0 0 C2.97 0.495 2.97 0.495 6 1 C7 4 7 4 6 7 C3.9375 7.6875 3.9375 7.6875 2 8 C2 10.31 2 12.62 2 15 C3.134375 15.309375 4.26875 15.61875 5.4375 15.9375 C9 17 9 17 10 18 C10.1875 20.4375 10.1875 20.4375 10 23 C8 25 8 25 4.5625 26.25 C0.42480495 28.28255195 -0.40427168 29.77601327 -2 34 C-5.60825231 30.88943766 -7.92603981 27.64587224 -9 23 C-9.2386342 18.65381121 -9.17652109 14.3476491 -9 10 C-8.67 10.66 -8.34 11.32 -8 12 C-6.35 11.67 -4.7 11.34 -3 11 C-2.67 9.68 -2.34 8.36 -2 7 C-2.66 6.67 -3.32 6.34 -4 6 C-3.34 5.67 -2.68 5.34 -2 5 C-1.27840576 3.35636866 -0.60648579 1.68949614 0 0 Z " fill="#384338" transform="translate(9,9)"/>
<path d="M0 0 C0.12375 0.804375 0.2475 1.60875 0.375 2.4375 C0.58125 3.283125 0.7875 4.12875 1 5 C1.66 5.33 2.32 5.66 3 6 C2.67 8.97 2.34 11.94 2 15 C1.34 15 0.68 15 0 15 C0 16.65 0 18.3 0 20 C-1.32 20.33 -2.64 20.66 -4 21 C-4.33 22.32 -4.66 23.64 -5 25 C-6.32 23.35 -7.64 21.7 -9 20 C-8.67 19.34 -8.34 18.68 -8 18 C-6.35 18 -4.7 18 -3 18 C-3 17.34 -3 16.68 -3 16 C-4.65 15.67 -6.3 15.34 -8 15 C-7.67 13.68 -7.34 12.36 -7 11 C-8.32 11 -9.64 11 -11 11 C-11.60579065 3.73051225 -11.60579065 3.73051225 -8.875 0.4375 C-5.38987838 -1.30506081 -3.69310412 -1.03063371 0 0 Z " fill="#A9736D" transform="translate(29,14)"/>
<path d="M0 0 C0.99 0.33 1.98 0.66 3 1 C3 1.66 3 2.32 3 3 C3.60328125 3.10957031 4.2065625 3.21914063 4.828125 3.33203125 C12.76625659 4.90685413 12.76625659 4.90685413 16 8 C16.0625 10.625 16.0625 10.625 15 14 C10.64809858 17.97705277 5.9801963 20.69332327 0 21 C-2.05547653 16.64722617 -2.05547653 16.64722617 -1.8125 13.8125 C-1 12 -1 12 2 10 C2.33 9.01 2.66 8.02 3 7 C2.01 6.67 1.02 6.34 0 6 C0 4.02 0 2.04 0 0 Z " fill="#F5F7FA" transform="translate(29,29)"/>
<path d="M0 0 C1.97909398 -0.02686553 3.95828971 -0.04633375 5.9375 -0.0625 C7.03964844 -0.07410156 8.14179687 -0.08570312 9.27734375 -0.09765625 C12 0 12 0 13 1 C13.07226502 2.85287502 13.0838122 4.70833878 13.0625 6.5625 C13.05347656 7.57441406 13.04445313 8.58632813 13.03515625 9.62890625 C13.02355469 10.41136719 13.01195312 11.19382812 13 12 C12.01 12.33 11.02 12.66 10 13 C10.639375 13.2475 11.27875 13.495 11.9375 13.75 C14 15 14 15 14.75 17.125 C14.87375 18.053125 14.87375 18.053125 15 19 C14.34 19.33 13.68 19.66 13 20 C12.7834375 19.37996094 12.566875 18.75992188 12.34375 18.12109375 C10.09655294 14.57391933 6.41023419 14.32000046 2.53125 13.22265625 C0 12 0 12 -1.3984375 9.609375 C-2.23524262 5.97959693 -1.21942163 3.45502795 0 0 Z " fill="#1B1C29" transform="translate(32,20)"/>
<path d="M0 0 C2.97 1.32 5.94 2.64 9 4 C9.125 6.375 9.125 6.375 9 9 C7 11 7 11 3.5625 12.25 C-0.57519505 14.28255195 -1.40427168 15.77601327 -3 20 C-5.52588702 17.63707344 -6.88820837 16.33537489 -8 13 C-6.9375 9.9375 -6.9375 9.9375 -5 7 C-1.8125 5.625 -1.8125 5.625 1 5 C0.67 3.35 0.34 1.7 0 0 Z " fill="#0B0F23" transform="translate(10,23)"/>
<path d="M0 0 C0.268125 0.598125 0.53625 1.19625 0.8125 1.8125 C1.87102051 4.04254963 1.87102051 4.04254963 3.625 5.5 C5 7 5 7 5 11 C2.64828869 10.40138258 0.3140622 9.73075648 -2 9 C-2.33 8.34 -2.66 7.68 -3 7 C-3.66 8.65 -4.32 10.3 -5 12 C-4.67 12 -4.34 12 -4 12 C-4 13.65 -4 15.3 -4 17 C-6.9719385 15.87548273 -9.33440687 14.77706209 -12 13 C-11.74220026 9.21893711 -11.47578037 7.47578037 -8.75 4.75 C-6.203159 3.129283 -3.82937535 2.02171888 -1 1 C-0.67 0.67 -0.34 0.34 0 0 Z " fill="#ADBCE2" transform="translate(19,31)"/>
<path d="M0 0 C2.97 0 5.94 0 9 0 C9.33 3.63 9.66 7.26 10 11 C8.9275 10.79375 7.855 10.5875 6.75 10.375 C2.82014819 9.64493174 2.82014819 9.64493174 -1 12 C-0.67 8.04 -0.34 4.08 0 0 Z " fill="#31322E" transform="translate(18,0)"/>
<path d="M0 0 C2.625 0.9375 2.625 0.9375 5 2 C4.6875 3.9375 4.6875 3.9375 4 6 C3.01 6.33 2.02 6.66 1 7 C0.91113816 10.19902639 1.08941469 12.92677456 2 16 C0.02 16 -1.96 16 -4 16 C-3.85816304 14.24967156 -3.71136571 12.49974466 -3.5625 10.75 C-3.48128906 9.77546875 -3.40007813 8.8009375 -3.31640625 7.796875 C-3.04701347 5.41557585 -2.78359604 3.26256871 -2 1 C-1.34 0.67 -0.68 0.34 0 0 Z " fill="#E2E9F5" transform="translate(27,34)"/>
<path d="M0 0 C2.97 0.495 2.97 0.495 6 1 C7 4 7 4 6 7 C3.9375 7.6875 3.9375 7.6875 2 8 C1.67 9.32 1.34 10.64 1 12 C0.01 12 -0.98 12 -2 12 C-2 12.66 -2 13.32 -2 14 C-4.31 14.33 -6.62 14.66 -9 15 C-9 13.35 -9 11.7 -9 10 C-8.67 10.66 -8.34 11.32 -8 12 C-6.35 11.67 -4.7 11.34 -3 11 C-2.67 9.68 -2.34 8.36 -2 7 C-2.66 6.67 -3.32 6.34 -4 6 C-3.34 5.67 -2.68 5.34 -2 5 C-1.27840576 3.35636866 -0.60648579 1.68949614 0 0 Z " fill="#34382E" transform="translate(9,9)"/>
<path d="M0 0 C0.928125 0.20625 1.85625 0.4125 2.8125 0.625 C2.93625 1.429375 3.06 2.23375 3.1875 3.0625 C3.39375 3.908125 3.6 4.75375 3.8125 5.625 C4.4725 5.955 5.1325 6.285 5.8125 6.625 C5.8125 8.275 5.8125 9.925 5.8125 11.625 C5.255625 11.480625 4.69875 11.33625 4.125 11.1875 C1.69865805 10.59730872 -0.73656345 10.101571 -3.1875 9.625 C-3.1875 8.635 -3.1875 7.645 -3.1875 6.625 C-1.8675 6.625 -0.5475 6.625 0.8125 6.625 C0.8125 5.635 0.8125 4.645 0.8125 3.625 C-1.1675 4.615 -1.1675 4.615 -3.1875 5.625 C-4.1775 4.965 -5.1675 4.305 -6.1875 3.625 C-6.1875 2.965 -6.1875 2.305 -6.1875 1.625 C-3.1875 -0.375 -3.1875 -0.375 0 0 Z " fill="#D8A59C" transform="translate(26.1875,13.375)"/>
<path d="M0 0 C1.32 0.33 2.64 0.66 4 1 C3.72285156 1.59167969 3.44570312 2.18335938 3.16015625 2.79296875 C0.44225847 8.69046431 0.44225847 8.69046431 -1 15 C-2.65 15 -4.3 15 -6 15 C-7 12 -7 12 -6.328125 10.09765625 C-4.4359365 6.52580767 -2.60184197 3.12221037 0 0 Z " fill="#605240" transform="translate(7,6)"/>
<path d="M0 0 C3.96 0 7.92 0 12 0 C12 1.98 12 3.96 12 6 C11.01 6.495 11.01 6.495 10 7 C9.34 6.67 8.68 6.34 8 6 C8 5.34 8 4.68 8 4 C5.69 3.67 3.38 3.34 1 3 C1.33 5.97 1.66 8.94 2 12 C1.34 12 0.68 12 0 12 C-1.91384609 8.49128216 -2.04276246 7.18632214 -1.125 3.1875 C-0.75375 2.135625 -0.3825 1.08375 0 0 Z " fill="#3E3640" transform="translate(32,20)"/>
<path d="M0 0 C0.66 0 1.32 0 2 0 C2 0.66 2 1.32 2 2 C2.66 2 3.32 2 4 2 C4.33 1.34 4.66 0.68 5 0 C5.66 0.33 6.32 0.66 7 1 C7 2.32 7 3.64 7 5 C6.34 5 5.68 5 5 5 C5 6.65 5 8.3 5 10 C3.68 10.33 2.36 10.66 1 11 C0.67 12.32 0.34 13.64 0 15 C-1.32 13.35 -2.64 11.7 -4 10 C-3.67 9.34 -3.34 8.68 -3 8 C0.0625 7.375 0.0625 7.375 3 7 C3 6.34 3 5.68 3 5 C2.34 5 1.68 5 1 5 C1 4.34 1 3.68 1 3 C0.34 3 -0.32 3 -1 3 C-0.67 2.01 -0.34 1.02 0 0 Z " fill="#C09086" transform="translate(24,24)"/>
<path d="M0 0 C0.33 0 0.66 0 1 0 C1 1.65 1 3.3 1 5 C1.763125 5.103125 2.52625 5.20625 3.3125 5.3125 C6.26644989 6.0681616 7.33726664 6.46214383 9 9 C9.1875 12.1875 9.1875 12.1875 9 15 C8.01 14.67 7.02 14.34 6 14 C6 12.68 6 11.36 6 10 C1.89776415 8.98459888 1.89776415 8.98459888 -2 10 C-2 9.34 -2 8.68 -2 8 C-3.98 8.33 -5.96 8.66 -8 9 C-8 7.68 -8 6.36 -8 5 C-7.34 5 -6.68 5 -6 5 C-6 5.66 -6 6.32 -6 7 C-4.68 6.01 -3.36 5.02 -2 4 C-1.34 4.33 -0.68 4.66 0 5 C0 3.35 0 1.7 0 0 Z " fill="#746063" transform="translate(23,5)"/>
<path d="M0 0 C4.455 1.98 4.455 1.98 9 4 C9 5.65 9 7.3 9 9 C7.02 9.99 7.02 9.99 5 11 C1.87729874 8.48169253 1.05476902 7.2738451 0.25 3.25 C0.1675 2.1775 0.085 1.105 0 0 Z " fill="#35353D" transform="translate(10,23)"/>
<path d="M0 0 C0.268125 0.598125 0.53625 1.19625 0.8125 1.8125 C1.87102051 4.04254963 1.87102051 4.04254963 3.625 5.5 C5 7 5 7 5 11 C2.69 10.34 0.38 9.68 -2 9 C-2 8.01 -2 7.02 -2 6 C-2.99 6 -3.98 6 -5 6 C-5.33 5.01 -5.66 4.02 -6 3 C-5.195625 2.690625 -4.39125 2.38125 -3.5625 2.0625 C-1.10919595 1.23664655 -1.10919595 1.23664655 0 0 Z " fill="#A8ADC9" transform="translate(19,31)"/>
<path d="M0 0 C2.35953094 2.35953094 2.49141413 3.77895617 3 7 C3.33 7 3.66 7 4 7 C4.36923077 12.53846154 4.36923077 12.53846154 2.5 14.875 C1.7575 15.431875 1.7575 15.431875 1 16 C1 15.01 1 14.02 1 13 C-1.475 12.01 -1.475 12.01 -4 11 C-2.68 10.67 -1.36 10.34 0 10 C0 6.7 0 3.4 0 0 Z " fill="#070513" transform="translate(45,22)"/>
<path d="M0 0 C0.33 0 0.66 0 1 0 C1 2.31 1 4.62 1 7 C2.32 7 3.64 7 5 7 C5 8.32 5 9.64 5 11 C6.32 11.33 7.64 11.66 9 12 C9 12.66 9 13.32 9 14 C7.35 14 5.7 14 4 14 C3.67 14.66 3.34 15.32 3 16 C2.6596875 14.329375 2.6596875 14.329375 2.3125 12.625 C1.39376342 8.83961627 1.39376342 8.83961627 -1.625 7.5625 C-2.40875 7.376875 -3.1925 7.19125 -4 7 C-3.01 6.67 -2.02 6.34 -1 6 C-0.67 4.02 -0.34 2.04 0 0 Z " fill="#79544C" transform="translate(17,18)"/>
<path d="M0 0 C7.5 0.625 7.5 0.625 12 4 C8.7 4 5.4 4 2 4 C2 6.31 2 8.62 2 11 C0 9 0 9 -0.1953125 6.8359375 C-0.17210938 6.02382812 -0.14890625 5.21171875 -0.125 4.375 C-0.10695313 3.55773437 -0.08890625 2.74046875 -0.0703125 1.8984375 C-0.04710938 1.27195313 -0.02390625 0.64546875 0 0 Z " fill="#1D1B1D" transform="translate(27,0)"/>
<path d="M0 0 C0.66 1.32 1.32 2.64 2 4 C2.99 3.34 3.98 2.68 5 2 C5.99 2.33 6.98 2.66 8 3 C8 4.98 8 6.96 8 9 C5.36 8.67 2.72 8.34 0 8 C0 5.36 0 2.72 0 0 Z " fill="#BBCCF0" transform="translate(15,41)"/>
<path d="M0 0 C2.125 0.9375 2.125 0.9375 4 2 C3.01 2.33 2.02 2.66 1 3 C1 3.99 1 4.98 1 6 C1.66 6 2.32 6 3 6 C2.25 10.75 2.25 10.75 0 13 C-2.60018816 9.09971775 -2.15085514 5.52565431 -2 1 C-1.34 0.67 -0.68 0.34 0 0 Z " fill="#434744" transform="translate(2,23)"/>
<path d="M0 0 C-0.33 3.3 -0.66 6.6 -1 10 C-1.99 10 -2.98 10 -4 10 C-6.06878307 5.61904762 -6.06878307 5.61904762 -5.75 2.75 C-4.48571498 -0.19999838 -3.09878649 0 0 0 Z " fill="#F9FBFD" transform="translate(33,40)"/>
<path d="M0 0 C2.625 0.9375 2.625 0.9375 5 2 C4.625 3.9375 4.625 3.9375 4 6 C3.01 6.495 3.01 6.495 2 7 C1.34 6.67 0.68 6.34 0 6 C-0.33 6.66 -0.66 7.32 -1 8 C-1.33 5.69 -1.66 3.38 -2 1 C-1.34 0.67 -0.68 0.34 0 0 Z " fill="#C3C0D3" transform="translate(27,34)"/>
<path d="M0 0 C0.99 0 1.98 0 3 0 C3.33 3.63 3.66 7.26 4 11 C2.68 10.67 1.36 10.34 0 10 C-0.19412181 8.52168779 -0.38012131 7.04230684 -0.5625 5.5625 C-0.66691406 4.73878906 -0.77132813 3.91507812 -0.87890625 3.06640625 C-0.91886719 2.38449219 -0.95882813 1.70257812 -1 1 C-0.67 0.67 -0.34 0.34 0 0 Z " fill="#383C35" transform="translate(24,0)"/>
<path d="M0 0 C0.66 0.99 1.32 1.98 2 3 C4.05003955 4.19232613 4.05003955 4.19232613 6 5 C5.01 5.495 5.01 5.495 4 6 C4.639375 6.2475 5.27875 6.495 5.9375 6.75 C8 8 8 8 8.75 10.125 C8.87375 11.053125 8.87375 11.053125 9 12 C8.01 12.495 8.01 12.495 7 13 C6.835 12.401875 6.67 11.80375 6.5 11.1875 C4.18723796 7.81472202 0.80108663 7.1668452 -3 6 C-2.01 5.67 -1.02 5.34 0 5 C0 3.35 0 1.7 0 0 Z " fill="#323346" transform="translate(38,27)"/>
<path d="M0 0 C0.66 0 1.32 0 2 0 C2 0.66 2 1.32 2 2 C2.99 2 3.98 2 5 2 C5 3.65 5 5.3 5 7 C3.35 6.67 1.7 6.34 0 6 C-0.38218767 4.34385343 -0.71395102 2.67542976 -1 1 C-0.67 0.67 -0.34 0.34 0 0 Z " fill="#242536" transform="translate(33,25)"/>
<path d="M0 0 C1.98 0 3.96 0 6 0 C5.67 1.65 5.34 3.3 5 5 C3.35 5 1.7 5 0 5 C-0.33 4.01 -0.66 3.02 -1 2 C-0.67 1.34 -0.34 0.68 0 0 Z " fill="#444839" transform="translate(1,16)"/>
<path d="M0 0 C-0.33 2.31 -0.66 4.62 -1 7 C-1.99 7 -2.98 7 -4 7 C-4 6.01 -4 5.02 -4 4 C-5.32 3.67 -6.64 3.34 -8 3 C-3.375 0 -3.375 0 0 0 Z " fill="#635A50" transform="translate(18,1)"/>
<path d="M0 0 C1.65 0.33 3.3 0.66 5 1 C3.85900474 4.42298577 2.99914379 5.14758766 0 7 C-0.99 7 -1.98 7 -3 7 C-2.690625 6.401875 -2.38125 5.80375 -2.0625 5.1875 C-0.89790296 2.91043228 -0.89790296 2.91043228 0 0 Z " fill="#D3D7ED" transform="translate(39,40)"/>
<path d="M0 0 C1.65 0 3.3 0 5 0 C5 1.65 5 3.3 5 5 C3.68 5 2.36 5 1 5 C1 4.34 1 3.68 1 3 C0.34 3 -0.32 3 -1 3 C-0.67 2.01 -0.34 1.02 0 0 Z " fill="#130F1C" transform="translate(14,27)"/>
<path d="M0 0 C0.66 1.32 1.32 2.64 2 4 C2.66 4 3.32 4 4 4 C4 3.34 4 2.68 4 2 C4.66 2.33 5.32 2.66 6 3 C5.3125 5.4375 5.3125 5.4375 4 8 C1.375 8.8125 1.375 8.8125 -1 9 C-0.67 6.03 -0.34 3.06 0 0 Z " fill="#EAEDF6" transform="translate(33,40)"/>
<path d="M0 0 C1.65 0.33 3.3 0.66 5 1 C4.67 2.98 4.34 4.96 4 7 C2.35 5.35 0.7 3.7 -1 2 C-0.67 1.34 -0.34 0.68 0 0 Z " fill="#9F7571" transform="translate(21,32)"/>
<path d="M0 0 C0.99 0.33 1.98 0.66 3 1 C3 1.66 3 2.32 3 3 C3.99 3.33 4.98 3.66 6 4 C5.01 4.99 4.02 5.98 3 7 C2.01 6.67 1.02 6.34 0 6 C0 4.02 0 2.04 0 0 Z " fill="#F2EBEB" transform="translate(29,29)"/>
<path d="M0 0 C0.763125 0.350625 1.52625 0.70125 2.3125 1.0625 C5.04759379 2.32360884 5.04759379 2.32360884 8 1 C8 1.99 8 2.98 8 4 C5.36 4 2.72 4 0 4 C0 2.68 0 1.36 0 0 Z " fill="#8F645F" transform="translate(19,16)"/>
<path d="M0 0 C1.32 0 2.64 0 4 0 C2.66666667 2.66666667 1.33333333 5.33333333 0 8 C-1.32 7.67 -2.64 7.34 -4 7 C-3.01 7 -2.02 7 -1 7 C-0.67 4.69 -0.34 2.38 0 0 Z " fill="#2F1D1D" transform="translate(17,13)"/>
<path d="M0 0 C0.33 0.66 0.66 1.32 1 2 C1.66 2 2.32 2 3 2 C2.67 3.32 2.34 4.64 2 6 C1.67 5.34 1.34 4.68 1 4 C-0.98 4.33 -2.96 4.66 -5 5 C-5 3.68 -5 2.36 -5 1 C-4.34 1 -3.68 1 -3 1 C-3 1.66 -3 2.32 -3 3 C-2.01 2.01 -1.02 1.02 0 0 Z " fill="#665356" transform="translate(20,9)"/>
<path d="M0 0 C-0.99 1.98 -1.98 3.96 -3 6 C-4.5 4.6875 -4.5 4.6875 -6 3 C-6 2.01 -6 1.02 -6 0 C-3 -1 -3 -1 0 0 Z " fill="#1B2142" transform="translate(10,37)"/>
<path d="M0 0 C2.97 0.495 2.97 0.495 6 1 C6.33 1.99 6.66 2.98 7 4 C4.36 4 1.72 4 -1 4 C-0.67 2.68 -0.34 1.36 0 0 Z " fill="#272321" transform="translate(9,9)"/>
<path d="M0 0 C1.98 0.66 3.96 1.32 6 2 C6 2.66 6 3.32 6 4 C4.35 4 2.7 4 1 4 C0.67 4.66 0.34 5.32 0 6 C-0.38218767 4.34385343 -0.71395102 2.67542976 -1 1 C-0.67 0.67 -0.34 0.34 0 0 Z " fill="#663E45" transform="translate(20,28)"/>
<path d="M0 0 C0 1.65 0 3.3 0 5 C-3 5 -3 5 -5 4 C-5 3.34 -5 2.68 -5 2 C-2 0 -2 0 0 0 Z " fill="#CB978C" transform="translate(25,13)"/>
<path d="M0 0 C2.31 0.33 4.62 0.66 7 1 C6.67 2.65 6.34 4.3 6 6 C5.67 5.01 5.34 4.02 5 3 C2.49552484 1.78130071 2.49552484 1.78130071 0 1 C0 0.67 0 0.34 0 0 Z " fill="#0C0E23" transform="translate(41,32)"/>
</svg>
