<?xml version="1.0" encoding="UTF-8"?>
<svg version="1.1" xmlns="http://www.w3.org/2000/svg" width="200" height="200">
<path d="M0 0 C66 0 132 0 200 0 C200 66 200 132 200 200 C134 200 68 200 0 200 C0 134 0 68 0 0 Z " fill="#FEFEFE" transform="translate(0,0)"/>
<path d="M0 0 C3.62342508 1.6470114 6.16816086 3.4327343 8 7 C8.84457478 13.54545455 8.84457478 13.54545455 6.9453125 16.81640625 C5.173471 18.99189211 3.52592891 20.73703554 1 22 C-1.05859375 22.203125 -1.05859375 22.203125 -3.4375 22.25 C-4.21996094 22.27578125 -5.00242187 22.3015625 -5.80859375 22.328125 C-8.50801348 21.92393381 -9.37459544 21.15326907 -11 19 C-11 18.34 -11 17.68 -11 17 C-11.66 17 -12.32 17 -13 17 C-14.61429923 13.77140153 -14.59570657 10.49006347 -14 7 C-10.47547774 0.85838845 -6.87571247 -0.46615 0 0 Z " fill="#EDC740" transform="translate(77,89)"/>
<path d="M0 0 C13.34419552 -0.49422946 13.34419552 -0.49422946 16.42578125 1.828125 C18.55090507 4.76005761 18.51736333 6.45236572 18 10 C17.46375 10.66 16.9275 11.32 16.375 12 C15.92125 12.66 15.4675 13.32 15 14 C15.6992082 16.91336749 16.66491731 19.32983461 18 22 C16.35 22 14.7 22 13 22 C12.649375 21.030625 12.29875 20.06125 11.9375 19.0625 C10.24996333 15.60565398 10.24996333 15.60565398 6.3125 15.125 C5.219375 15.08375 4.12625 15.0425 3 15 C3 17.31 3 19.62 3 22 C2.01 22 1.02 22 0 22 C0 14.74 0 7.48 0 0 Z " fill="#373D3D" transform="translate(39,89)"/>
<path d="M0 0 C13.34653316 -0.49431604 13.34653316 -0.49431604 16.421875 1.83203125 C18 4 18 4 18.5 6.9375 C17.8415306 10.97062507 17.23849275 12.43933131 14 15 C10.2972193 15.42089162 6.70972387 15.2878234 3 15 C3 17.31 3 19.62 3 22 C2.01 22 1.02 22 0 22 C0 14.74 0 7.48 0 0 Z " fill="#484D4E" transform="translate(15,89)"/>
<path d="M0 0 C2.31 1.98 4.62 3.96 7 6 C8.65975389 7.34192868 10.32346641 8.67909475 12 10 C12.71027344 9.278125 13.42054687 8.55625 14.15234375 7.8125 C15.07144531 6.884375 15.99054688 5.95625 16.9375 5 C17.85402344 4.071875 18.77054688 3.14375 19.71484375 2.1875 C22 0 22 0 23 0 C23 7.26 23 14.52 23 22 C21.68 22 20.36 22 19 22 C18.67 18.04 18.34 14.08 18 10 C16.35 11.98 14.7 13.96 13 16 C9.33759908 14.43039961 8.06096354 13.06096354 5 10 C4.67 13.96 4.34 17.92 4 22 C2.68 22 1.36 22 0 22 C0 14.74 0 7.48 0 0 Z " fill="#3F4445" transform="translate(90,89)"/>
<path d="M0 0 C3.07184758 3.70172169 5.06821752 7.84044699 7.1875 12.125 C7.55552734 12.85332031 7.92355469 13.58164063 8.30273438 14.33203125 C11 19.74657931 11 19.74657931 11 22 C9.35 21.67 7.7 21.34 6 21 C6 20.34 6 19.68 6 19 C4.18674449 19.11351517 2.37436643 19.24112961 0.5625 19.375 C-0.44683594 19.44460937 -1.45617187 19.51421875 -2.49609375 19.5859375 C-3.32238281 19.72257812 -4.14867188 19.85921875 -5 20 C-5.33 20.66 -5.66 21.32 -6 22 C-7.32 22 -8.64 22 -10 22 C-8.4719611 16.90117545 -6.28963144 12.34334341 -3.875 7.625 C-3.50246094 6.88894531 -3.12992187 6.15289062 -2.74609375 5.39453125 C-1.8343878 3.59449642 -0.91770068 1.79698598 0 0 Z " fill="#33393B" transform="translate(129,89)"/>
<path d="M0 0 C3.22290201 0.0289309 5.44294723 0.35779815 8.1875 2.1875 C7.8575 3.1775 7.5275 4.1675 7.1875 5.1875 C6.15689453 5.11789063 6.15689453 5.11789063 5.10546875 5.046875 C4.20441406 5.01078125 3.30335938 4.9746875 2.375 4.9375 C1.03501953 4.86789063 1.03501953 4.86789063 -0.33203125 4.796875 C-2.94096073 4.95987036 -2.94096073 4.95987036 -4.6484375 7.0078125 C-6.28467154 10.07163329 -5.73849767 11.91089286 -4.8125 15.1875 C-3.00056994 17.43074836 -3.00056994 17.43074836 -0.4296875 17.3828125 C0.92769531 17.34800781 0.92769531 17.34800781 2.3125 17.3125 C3.22257813 17.29445313 4.13265625 17.27640625 5.0703125 17.2578125 C6.11832031 17.22300781 6.11832031 17.22300781 7.1875 17.1875 C7.5175 18.1775 7.8475 19.1675 8.1875 20.1875 C4.48832559 22.65361627 0.48432956 22.90363826 -3.8125 22.1875 C-6.6225346 20.39386089 -8.32190468 19.16869065 -9.8125 16.1875 C-10.23198626 12.8016466 -10.30664522 9.56681569 -9.8125 6.1875 C-7.375 3.125 -7.375 3.125 -4.8125 1.1875 C-3.8125 0.1875 -3.8125 0.1875 0 0 Z " fill="#404646" transform="translate(152.8125,88.8125)"/>
<path d="M0 0 C6.27 0 12.54 0 19 0 C19 1.32 19 2.64 19 4 C16.36 4 13.72 4 11 4 C11 9.94 11 15.88 11 22 C9.68 22 8.36 22 7 22 C7 16.06 7 10.12 7 4 C4.69 4 2.38 4 0 4 C0 2.68 0 1.36 0 0 Z " fill="#4B5453" transform="translate(167,89)"/>
<path d="M0 0 C1.59565738 3.19131475 1.51013639 6.53532367 1 10 C-1.06468927 12.44703913 -2.39144027 12.87828805 -5.5 13.5 C-8 13 -8 13 -10.3125 10.8125 C-12.13558001 7.77403331 -12.81727916 6.45073421 -12 3 C-8.21669117 -0.32472595 -4.88424492 -0.28730852 0 0 Z " fill="#FAFDEF" transform="translate(79,94)"/>
<path d="M0 0 C0.66 0 1.32 0 2 0 C2 0.66 2 1.32 2 2 C3.32 2.33 4.64 2.66 6 3 C5.195625 3.61875 4.39125 4.2375 3.5625 4.875 C0.96125481 6.74164041 0.96125481 6.74164041 0 9 C-0.06996014 10.70702735 -0.08440154 12.41668003 -0.0625 14.125 C-0.04896484 15.49011719 -0.04896484 15.49011719 -0.03515625 16.8828125 C-0.02355469 17.58148438 -0.01195312 18.28015625 0 19 C0.66 19 1.32 19 2 19 C3.625 21.5 3.625 21.5 5 24 C3.68 24 2.36 24 1 24 C1 23.01 1 22.02 1 21 C0.443125 21.144375 -0.11375 21.28875 -0.6875 21.4375 C-3.11384195 22.02769128 -5.54906345 22.523429 -8 23 C-9.625 20.75 -9.625 20.75 -11 18 C-10.13609919 15.25122469 -9.04480351 14.04480351 -7 12 C-6.01 12 -5.02 12 -4 12 C-4 10.68 -4 9.36 -4 8 C-3.01 8 -2.02 8 -1 8 C-0.67 5.36 -0.34 2.72 0 0 Z " fill="#F8F8F4" transform="translate(64,87)"/>
<path d="M0 0 C2.97 0 5.94 0 9 0 C9.33 0.99 9.66 1.98 10 3 C7.69 3 5.38 3 3 3 C3 5.97 3 8.94 3 12 C4.98 12 6.96 12 9 12 C9 12.66 9 13.32 9 14 C7.35 14.33 5.7 14.66 4 15 C3.67 17.31 3.34 19.62 3 22 C2.01 22 1.02 22 0 22 C0 14.74 0 7.48 0 0 Z " fill="#363B3C" transform="translate(15,89)"/>
<path d="M0 0 C2.97 0 5.94 0 9 0 C9.33 0.99 9.66 1.98 10 3 C7.69 3 5.38 3 3 3 C3 5.97 3 8.94 3 12 C4.32 12 5.64 12 7 12 C7 12.66 7 13.32 7 14 C6.01 14.33 5.02 14.66 4 15 C3.67 17.31 3.34 19.62 3 22 C2.01 22 1.02 22 0 22 C0 14.74 0 7.48 0 0 Z " fill="#343B3A" transform="translate(39,89)"/>
<path d="M0 0 C3.05001831 3.66002197 7 9.07851471 7 14 C3.78548731 15.60725635 0.56387464 15.05748185 -3 15 C-2.34 13.02 -1.68 11.04 -1 9 C-1.99 8.67 -2.98 8.34 -4 8 C-2.68 5.36 -1.36 2.72 0 0 Z " fill="#484C4C" transform="translate(129,89)"/>
<path d="M0 0 C2.31 1.98 4.62 3.96 7 6 C6.01 7.485 6.01 7.485 5 9 C4.5396236 12.19806665 4.5396236 12.19806665 4.375 15.6875 C4.30023438 16.86699219 4.22546875 18.04648438 4.1484375 19.26171875 C4.09945312 20.16535156 4.05046875 21.06898437 4 22 C2.68 22 1.36 22 0 22 C0 14.74 0 7.48 0 0 Z " fill="#64696A" transform="translate(90,89)"/>
<path d="M0 0 C1.64574566 -0.02688151 3.29161413 -0.04634123 4.9375 -0.0625 C5.85402344 -0.07410156 6.77054688 -0.08570312 7.71484375 -0.09765625 C10 0 10 0 11 1 C11.125 3.5 11.125 3.5 11 6 C10 7 10 7 7.71484375 7.09765625 C6.34005859 7.08025391 6.34005859 7.08025391 4.9375 7.0625 C4.01839844 7.05347656 3.09929688 7.04445313 2.15234375 7.03515625 C1.44207031 7.02355469 0.73179688 7.01195313 0 7 C0 4.69 0 2.38 0 0 Z " fill="#EFF4F4" transform="translate(18,93)"/>
<path d="M0 0 C1.47906892 -0.02689216 2.95827483 -0.04634621 4.4375 -0.0625 C5.26121094 -0.07410156 6.08492187 -0.08570312 6.93359375 -0.09765625 C9 0 9 0 10 1 C10.125 3.5 10.125 3.5 10 6 C9 7 9 7 6.93359375 7.09765625 C6.10988281 7.08605469 5.28617188 7.07445313 4.4375 7.0625 C3.61121094 7.05347656 2.78492188 7.04445313 1.93359375 7.03515625 C1.29550781 7.02355469 0.65742187 7.01195313 0 7 C0 4.69 0 2.38 0 0 Z " fill="#F4F9F8" transform="translate(43,93)"/>
<path d="M0 0 C0.99 0.33 1.98 0.66 3 1 C3 2.32 3 3.64 3 5 C-0.96 5 -4.92 5 -9 5 C-9 3.68 -9 2.36 -9 1 C-6.01002175 -0.49498913 -3.29957225 -0.11577446 0 0 Z " fill="#EEC33E" transform="translate(77,89)"/>
<path d="M0 0 C2.97 0 5.94 0 9 0 C9 0.33 9 0.66 9 1 C6.36 1 3.72 1 1 1 C1 3.31 1 5.62 1 8 C3.97 8 6.94 8 10 8 C9.67 9.32 9.34 10.64 9 12 C6.13822943 13.43088528 4.06624227 12.59991697 1 12 C1.99 11.67 2.98 11.34 4 11 C4 10.34 4 9.68 4 9 C2.68 9 1.36 9 0 9 C0 6.03 0 3.06 0 0 Z " fill="#5A5F5F" transform="translate(42,92)"/>
<path d="M0 0 C0.99 0.33 1.98 0.66 3 1 C3 2.98 3 4.96 3 7 C-0.28696233 7.79953138 -1.71023192 8.09658936 -5 7 C-5 5.02 -5 3.04 -5 1 C-3.68 1.99 -2.36 2.98 -1 4 C-0.67 2.68 -0.34 1.36 0 0 Z " fill="#FBFCF3" transform="translate(76,98)"/>
<path d="M0 0 C0.66 0 1.32 0 2 0 C2 0.66 2 1.32 2 2 C3.32 2.33 4.64 2.66 6 3 C5.21625 3.45375 4.4325 3.9075 3.625 4.375 C-0.09558679 8.09558679 -0.34962042 11.91344923 -1 17 C-1.66 16.67 -2.32 16.34 -3 16 C-3.59355614 13.35139573 -3.74209269 10.70802678 -4 8 C-3.01 8 -2.02 8 -1 8 C-0.67 5.36 -0.34 2.72 0 0 Z " fill="#FCFAD8" transform="translate(64,87)"/>
<path d="M0 0 C2 2 2 2 2.1953125 5.0390625 C2.17210938 6.22242187 2.14890625 7.40578125 2.125 8.625 C2.10695313 9.81351563 2.08890625 11.00203125 2.0703125 12.2265625 C2.04710938 13.14179687 2.02390625 14.05703125 2 15 C1.01 15 0.02 15 -1 15 C-1.02715383 13.25008666 -1.04646551 11.50005055 -1.0625 9.75 C-1.07410156 8.77546875 -1.08570312 7.8009375 -1.09765625 6.796875 C-1.01195577 4.34241322 -0.70706066 2.33831086 0 0 Z " fill="#363845" transform="translate(92,96)"/>
<path d="M0 0 C0.99 0.66 1.98 1.32 3 2 C3 2.66 3 3.32 3 4 C6.3 4 9.6 4 13 4 C13 4.33 13 4.66 13 5 C12.21753906 5.04898438 11.43507812 5.09796875 10.62890625 5.1484375 C9.61699219 5.22320312 8.60507813 5.29796875 7.5625 5.375 C6.55316406 5.44460937 5.54382813 5.51421875 4.50390625 5.5859375 C3.26447266 5.79089844 3.26447266 5.79089844 2 6 C1.67 6.66 1.34 7.32 1 8 C-0.32 8 -1.64 8 -3 8 C-1.125 2.25 -1.125 2.25 0 0 Z " fill="#54585A" transform="translate(122,103)"/>
<path d="M0 0 C2.3125 1.875 2.3125 1.875 4 4 C4 4.66 4 5.32 4 6 C3.01 6 2.02 6 1 6 C0.67 6.99 0.34 7.98 0 9 C-0.309375 7.824375 -0.309375 7.824375 -0.625 6.625 C-1.80676612 3.69083714 -1.80676612 3.69083714 -5.125 2.6875 C-6.07375 2.460625 -7.0225 2.23375 -8 2 C-4.75173326 -0.16551116 -3.76905843 -0.55156953 0 0 Z " fill="#424846" transform="translate(53,89)"/>
<path d="M0 0 C0.99 0 1.98 0 3 0 C6 5.75 6 5.75 6 8 C4.35 7.67 2.7 7.34 1 7 C1 6.01 1 5.02 1 4 C0.01 4 -0.98 4 -2 4 C-2 3.34 -2 2.68 -2 2 C-1.34 2 -0.68 2 0 2 C0 1.34 0 0.68 0 0 Z " fill="#424747" transform="translate(134,103)"/>
<path d="M0 0 C2.97 0 5.94 0 9 0 C9 1.32 9 2.64 9 4 C6.36 4 3.72 4 1 4 C0.67 2.68 0.34 1.36 0 0 Z " fill="#4F5452" transform="translate(177,89)"/>
<path d="M0 0 C3.3 0 6.6 0 10 0 C10.33 1.32 10.66 2.64 11 4 C10.67 3.34 10.34 2.68 10 2 C9.01 2.495 9.01 2.495 8 3 C5.3276379 3.13415472 2.67749512 3.04318541 0 3 C0 2.01 0 1.02 0 0 Z " fill="#333937" transform="translate(167,89)"/>
<path d="M0 0 C6.75 0.875 6.75 0.875 9 2 C8.67 2.99 8.34 3.98 8 5 C3.545 4.01 3.545 4.01 -1 3 C-0.67 2.01 -0.34 1.02 0 0 Z " fill="#3C3F42" transform="translate(152,89)"/>
<path d="M0 0 C0.33 0.99 0.66 1.98 1 3 C1.99 3 2.98 3 4 3 C4 4.65 4 6.3 4 8 C5.65 8.33 7.3 8.66 9 9 C9 9.33 9 9.66 9 10 C6.75 10.3125 6.75 10.3125 4 10 C1.28340716 7.43025001 0.08413814 5.94655411 -0.25 2.1875 C-0.1675 1.465625 -0.085 0.74375 0 0 Z " fill="#FCF6C0" transform="translate(67,97)"/>
<path d="M0 0 C0.66 0 1.32 0 2 0 C3.60725635 3.21451269 3.05748185 6.43612536 3 10 C2.67 10 2.34 10 2 10 C1.87625 9.195625 1.7525 8.39125 1.625 7.5625 C1.315625 6.2940625 1.315625 6.2940625 1 5 C0.34 4.67 -0.32 4.34 -1 4 C-0.67 2.68 -0.34 1.36 0 0 Z M-3 4 C-2.34 4 -1.68 4 -1 4 C-1.66 5.32 -2.32 6.64 -3 8 C-3 6.68 -3 5.36 -3 4 Z " fill="#FDF8DF" transform="translate(77,94)"/>
<path d="M0 0 C2 0.1875 2 0.1875 4 1 C4.66 1.99 5.32 2.98 6 4 C4.576875 4.4640625 4.576875 4.4640625 3.125 4.9375 C0.13919592 5.87394742 0.13919592 5.87394742 -2 7 C-2.125 4.625 -2.125 4.625 -2 2 C-1.34 1.34 -0.68 0.68 0 0 Z " fill="#4E5255" transform="translate(149,89)"/>
<path d="M0 0 C0 3 0 3 -1 5 C-4.3 4.67 -7.6 4.34 -11 4 C-7.23121442 0.23121442 -5.1234648 -0.13847202 0 0 Z " fill="#535759" transform="translate(29,89)"/>
<path d="M0 0 C1.32 0.99 2.64 1.98 4 3 C3.67 3.66 3.34 4.32 3 5 C2.34 4.67 1.68 4.34 1 4 C1.33 6.64 1.66 9.28 2 12 C1.01 12.495 1.01 12.495 0 13 C-0.19551338 11.39679026 -0.38111983 9.79237014 -0.5625 8.1875 C-0.71912109 6.84751953 -0.71912109 6.84751953 -0.87890625 5.48046875 C-1 3 -1 3 0 0 Z " fill="#F2C957" transform="translate(80,91)"/>
<path d="M0 0 C0 0.66 0 1.32 0 2 C-1.65 2.66 -3.3 3.32 -5 4 C-5 3.34 -5 2.68 -5 2 C-6.65 1.67 -8.3 1.34 -10 1 C-10 0.67 -10 0.34 -10 0 C-6.33694766 -0.74926071 -3.57644848 -1.2380014 0 0 Z " fill="#4C5352" transform="translate(161,107)"/>
<path d="M0 0 C0 3.51716303 -0.82445585 4.37121748 -3 7 C-2.34 7.33 -1.68 7.66 -1 8 C-2.65 9.32 -4.3 10.64 -6 12 C-5.73781251 7.5428126 -5.42288711 5.48477302 -2.4375 2.0625 C-1.633125 1.381875 -0.82875 0.70125 0 0 Z " fill="#525858" transform="translate(108,93)"/>
<path d="M0 0 C4 1 4 1 6 3 C6.125 5.625 6.125 5.625 6 8 C5.01 8 4.02 8 3 8 C2.01 5.36 1.02 2.72 0 0 Z " fill="#373C3E" transform="translate(27,90)"/>
<path d="M0 0 C0 1.32 0 2.64 0 4 C-0.61875 4.103125 -1.2375 4.20625 -1.875 4.3125 C-4.36526484 4.87525373 -4.36526484 4.87525373 -6 8 C-6.6875 6.25 -6.6875 6.25 -7 4 C-4.96738407 0.1487277 -4.56536841 0 0 0 Z " fill="#ECEDEF" transform="translate(60,99)"/>
<path d="M0 0 C1.5 1.3125 1.5 1.3125 3 3 C3 3.99 3 4.98 3 6 C1.02 6 -0.96 6 -3 6 C-2.01 4.02 -1.02 2.04 0 0 Z " fill="#DDE5E5" transform="translate(129,98)"/>
<path d="M0 0 C2.62187494 1.04874998 3.79371361 1.64931313 5.25 4.125 C5.4975 4.74375 5.745 5.3625 6 6 C4.35 6 2.7 6 1 6 C0.34 4.35 -0.32 2.7 -1 1 C-0.67 0.67 -0.34 0.34 0 0 Z " fill="#45474A" transform="translate(51,105)"/>
<path d="M0 0 C0.99 0 1.98 0 3 0 C3 1.98 3 3.96 3 6 C2.01 6 1.02 6 0 6 C0 4.02 0 2.04 0 0 Z " fill="#323C3D" transform="translate(175,105)"/>
<path d="M0 0 C0.99 0 1.98 0 3 0 C2.67 1.65 2.34 3.3 2 5 C0.68 4.67 -0.64 4.34 -2 4 C-1.34 2.68 -0.68 1.36 0 0 Z " fill="#3C4044" transform="translate(125,98)"/>
<path d="M0 0 C0.33 0.66 0.66 1.32 1 2 C1.66 2 2.32 2 3 2 C4.625 4.5 4.625 4.5 6 7 C4.68 7 3.36 7 2 7 C2 6.01 2 5.02 2 4 C1.34 4 0.68 4 0 4 C0 2.68 0 1.36 0 0 Z " fill="#FDF1C4" transform="translate(63,104)"/>
<path d="M0 0 C0.99 0.33 1.98 0.66 3 1 C2.67 3.31 2.34 5.62 2 8 C-0.1519437 4.77208445 -0.20086443 3.71599191 0 0 Z " fill="#EAC521" transform="translate(81,95)"/>
<path d="M0 0 C0 0.99 0 1.98 0 3 C-1.98 3.33 -3.96 3.66 -6 4 C-6 3.01 -6 2.02 -6 1 C-3.92446352 0.4465236 -2.15634036 0 0 0 Z " fill="#F3C21A" transform="translate(74,90)"/>
</svg>
