<?xml version="1.0" encoding="UTF-8"?>
<svg version="1.1" xmlns="http://www.w3.org/2000/svg" width="800" height="858">
<path d="M0 0 C2.87060547 1.36010742 2.87060547 1.36010742 5.8671875 3.10546875 C6.98738281 3.75193359 8.10757812 4.39839844 9.26171875 5.06445312 C10.46624802 5.77196148 11.67067243 6.47964836 12.875 7.1875 C14.1336436 7.91812966 15.39276536 8.64793618 16.65234375 9.37695312 C19.84234464 11.22622679 23.02601371 13.08608275 26.20739746 14.95013428 C28.86784844 16.50826901 31.53168463 18.06058534 34.1953125 19.61328125 C37.10381971 21.30954598 40.01169254 23.00684429 42.91748047 24.70776367 C50.58221669 29.19056507 58.28529845 33.60405339 66 38 C75.72124506 43.53985933 85.40894868 49.13374932 95.06689453 54.78344727 C105.59084625 60.93766742 116.15380137 67.02369996 126.71777344 73.10888672 C132.14659942 76.23680148 137.57319281 79.36858448 143 82.5 C145.16665583 83.75001879 147.3333225 85.00001878 149.5 86.25 C221 127.5 221 127.5 292.5 168.75 C294.11177124 169.67981689 294.11177124 169.67981689 295.75610352 170.62841797 C297.90254459 171.86681771 300.04886804 173.10542135 302.19506836 174.34423828 C307.30002006 177.29055356 312.40620967 180.23466458 317.51651001 183.17169189 C319.94660552 184.56849807 322.37603935 185.96645278 324.80541992 187.36450195 C326.53304415 188.35805992 328.2616312 189.34994309 329.99023438 190.34179688 C331.54387695 191.23608398 331.54387695 191.23608398 333.12890625 192.1484375 C334.04744385 192.67614746 334.96598145 193.20385742 335.91235352 193.74755859 C338 195 338 195 339 196 C339.14850505 197.70051516 339.22849456 199.40704874 339.28175354 201.11320496 C339.31781204 202.22184402 339.35387054 203.33048309 339.39102173 204.47271729 C339.42513153 205.70012634 339.45924133 206.9275354 339.49438477 208.19213867 C339.53308182 209.47677505 339.57177887 210.76141144 339.61164856 212.0849762 C339.95868557 223.97808014 340.16222908 235.87415679 340.32562351 247.77105236 C340.43808365 255.76653022 340.59532473 263.75596159 340.86547852 271.74780273 C341.10121424 278.72299113 341.25066998 285.6939181 341.29879421 292.67301542 C341.32707515 296.3651493 341.39594862 300.04563014 341.56808662 303.73409081 C342.56889671 326.06973781 342.56889671 326.06973781 336.64295197 332.59570885 C330.86953992 337.11138152 324.56060448 340.12567206 317.78759193 342.84777451 C314.2512328 344.30949604 311.13670613 346.11587326 307.8828125 348.12109375 C305.96389348 349.22717308 304.04463128 350.33265727 302.125 351.4375 C299.94009462 352.69659802 297.75519908 353.95571311 295.5703125 355.21484375 C294.48524414 355.83987793 293.40017578 356.46491211 292.28222656 357.10888672 C285.78152037 360.85438435 279.28374968 364.60497265 272.78564453 368.35498047 C267.76346298 371.25294889 262.74072934 374.14994287 257.71557617 377.04275513 C255.94954478 378.05947198 254.18372569 379.07655658 252.41796875 380.09375 C250.21265845 381.36400873 248.00695784 382.63359018 245.80078125 383.90234375 C244.79402344 384.48242188 243.78726563 385.0625 242.75 385.66015625 C241.78320312 386.2133252 240.81640625 386.76649414 239.8203125 387.33642578 C237.93512845 388.44841021 236.07494668 389.60387245 234.2421875 390.80029297 C233.37851562 391.35990723 232.51484375 391.91952148 231.625 392.49609375 C230.87476563 393.00197021 230.12453125 393.50784668 229.3515625 394.02905273 C226.14447624 395.35324107 224.3196102 394.90972646 221 394 C218.34472656 392.74755859 218.34472656 392.74755859 215.640625 391.1484375 C214.11115234 390.25415039 214.11115234 390.25415039 212.55078125 389.34179688 C211.46152344 388.69275391 210.37226562 388.04371094 209.25 387.375 C208.09302648 386.69497822 206.93546287 386.01595953 205.77734375 385.33789062 C203.37334852 383.92932676 200.97194227 382.51649359 198.57226562 381.10058594 C193.0716512 377.85983022 187.53396591 374.68333677 182 371.5 C179.83315966 370.25030108 177.6664935 369.00030011 175.5 367.75 C174.4275 367.13125 173.355 366.5125 172.25 365.875 C115.375 333.0625 115.375 333.0625 58.5 300.25 C56.88992065 299.3211499 56.88992065 299.3211499 55.24731445 298.37353516 C53.08950197 297.12858718 50.93178647 295.8834711 48.77416992 294.63818359 C43.22283408 291.43447349 37.66963459 288.2340637 32.11328125 285.0390625 C30.97439453 284.38357422 29.83550781 283.72808594 28.66210938 283.05273438 C26.52212512 281.8211516 24.38155774 280.59058114 22.24023438 279.36132812 C14.0958997 274.67184459 6.06301516 269.83780909 -2 265 C-2 307.9 -2 350.8 -2 395 C10.375 401.93 10.375 401.93 23 409 C35.67774682 416.3785828 35.67774682 416.3785828 40.76953125 419.3671875 C47.48461237 423.29477528 54.24057624 427.14951672 61 431 C86.12611457 445.31721303 86.12611457 445.31721303 96.06074142 451.32790279 C98.97774899 453.05136554 98.97774899 453.05136554 102.10811234 454.3817606 C110.33475339 458.30018362 110.33475339 458.30018362 112.08565521 462.77403069 C112.48140302 466.26746073 112.48577722 469.58150667 112.36230469 473.09545898 C112.36405701 474.40345963 112.36580933 475.71146027 112.36761475 477.05909729 C112.37104644 480.63081855 112.30072327 484.1976647 112.21672726 487.76825595 C112.14149829 491.50492251 112.13464658 495.24171219 112.12042236 498.97901917 C112.08318398 506.04888689 111.98480205 513.11651697 111.86422849 520.18540102 C111.72990524 528.23587899 111.66407392 536.28646624 111.60388327 544.33778656 C111.47858838 560.89316586 111.26764554 577.44629703 111 594 C110.48663841 594.28453946 109.97327682 594.56907892 109.44435883 594.86224079 C107.08956911 596.16781096 104.73521154 597.47415855 102.38085938 598.78051758 C101.57340271 599.22804634 100.76594604 599.6755751 99.934021 600.13666534 C93.74148782 603.57378095 87.60335161 607.09428245 81.5 610.6875 C79.44562799 611.89116363 77.39092877 613.09426893 75.3359375 614.296875 C74.2953418 614.90595703 73.25474609 615.51503906 72.18261719 616.14257812 C66.84108904 619.25997197 61.48351038 622.34941509 56.125 625.4375 C54.51322876 626.36647095 54.51322876 626.36647095 52.86889648 627.31420898 C50.68368855 628.57340672 48.49838543 629.83243927 46.31298828 631.09130859 C40.7282891 634.30878672 35.14540583 637.52941143 29.5625 640.75 C28.5823291 641.31517334 27.6021582 641.88034668 26.59228516 642.46264648 C24.6258325 643.59686423 22.67536577 644.75928646 20.74256897 645.94995117 C17.99163641 647.56066818 15.25378978 648.66854508 12.25325012 649.73707581 C6.72533579 651.93007015 1.80979063 654.30958098 -2 659 C-5.18556441 667.64862309 -4.10862958 677.43432821 -3.70030355 686.50652099 C-3.56017234 690.15065815 -3.53985658 693.79531049 -3.509552 697.44172668 C-3.42009439 705.90854026 -3.1883167 714.36852324 -2.94194794 722.83197784 C-2.63550239 733.61407658 -2.39812243 744.39646028 -2.28055298 755.18231565 C-2.23720446 758.80572703 -2.16365633 762.42354905 -2.02105331 766.04451561 C-1.15627944 788.04817241 -1.15627944 788.04817241 -4.22041512 792.95390511 C-7.61422208 796.31450359 -11.47597462 797.58338988 -16 799 C-18.04062136 800.13223384 -20.05983946 801.30499886 -22.04296875 802.53515625 C-24.09004474 803.71285349 -26.13825822 804.88857538 -28.1875 806.0625 C-29.89042782 807.04151113 -31.5933538 808.02052547 -33.2961731 808.99972534 C-35.04395461 810.00447299 -36.79220596 811.00839914 -38.54052734 812.01220703 C-44.03139212 815.16722616 -49.51552926 818.33388335 -55 821.5 C-61.54462543 825.27735864 -68.0903114 829.05282444 -74.640625 832.8203125 C-76.28272949 833.76583984 -76.28272949 833.76583984 -77.95800781 834.73046875 C-80.13334717 835.98236978 -82.30976158 837.23240483 -84.48730469 838.48046875 C-89.80800781 841.53942654 -95.08747157 844.64714972 -100.3125 847.8671875 C-101.3137793 848.47868652 -102.31505859 849.09018555 -103.34667969 849.72021484 C-105.23120359 850.87546032 -107.10746643 852.04433285 -108.97363281 853.22900391 C-109.81249023 853.74124512 -110.65134766 854.25348633 -111.515625 854.78125 C-112.24040039 855.23564453 -112.96517578 855.69003906 -113.71191406 856.15820312 C-116.85300553 857.31382448 -118.79025989 856.85161653 -122 856 C-124.47167969 854.83935547 -124.47167969 854.83935547 -126.921875 853.3671875 C-128.31575439 852.54069702 -128.31575439 852.54069702 -129.73779297 851.69750977 C-130.73182129 851.09608154 -131.72584961 850.49465332 -132.75 849.875 C-134.91360121 848.58906731 -137.07768002 847.3039379 -139.2421875 846.01953125 C-140.35819336 845.3538916 -141.47419922 844.68825195 -142.62402344 844.00244141 C-148.01253101 840.80627861 -153.44352595 837.68489786 -158.875 834.5625 C-161.05998436 833.30353904 -163.24487972 832.04442362 -165.4296875 830.78515625 C-166.51475586 830.16012207 -167.59982422 829.53508789 -168.71777344 828.89111328 C-171.98174327 827.01051894 -175.24494189 825.12859454 -178.5078125 823.24609375 C-180.11692505 822.31772705 -180.11692505 822.31772705 -181.75854492 821.37060547 C-183.90993435 820.12906402 -186.06114048 818.88720488 -188.2121582 817.64501953 C-193.24070909 814.74183646 -198.27124054 811.84230156 -203.31021118 808.95724487 C-205.08432545 807.94122816 -206.85769919 806.92393072 -208.63085938 805.90625 C-210.84815314 804.63417708 -213.06681075 803.36447715 -215.28710938 802.09765625 C-216.29708984 801.51757812 -217.30707031 800.9375 -218.34765625 800.33984375 C-219.66262085 799.58755493 -219.66262085 799.58755493 -221.00415039 798.82006836 C-221.99278076 798.2194458 -222.98141113 797.61882324 -224 797 C-224.73323673 796.69012473 -225.46647346 796.38024945 -226.22192949 796.06098402 C-229.05274031 794.64896451 -230.8953054 793.37933662 -233 791 C-234.38230122 785.80878456 -234.20141762 780.64778527 -234.12025452 775.32070923 C-234.12831112 773.69033609 -234.14031706 772.05997848 -234.15593141 770.4296602 C-234.18739911 765.95037393 -234.16281098 761.47287411 -234.12913358 756.99366832 C-234.10261313 752.16338099 -234.12798037 747.3333352 -234.14706421 742.50305176 C-234.17301637 734.13465532 -234.16605178 725.76680444 -234.13676643 717.39842606 C-234.0944726 705.29925047 -234.10176478 693.20050512 -234.12118178 681.10128979 C-234.15133621 661.47157737 -234.14135668 641.84209843 -234.10620117 622.21240234 C-234.07213556 603.14335559 -234.05693232 584.07444778 -234.06713867 565.00537109 C-234.0680724 563.24242122 -234.0680724 563.24242122 -234.06902499 561.44385619 C-234.07226429 555.54775572 -234.07587488 549.65165554 -234.07967007 543.75555539 C-234.11067752 494.83695125 -234.07657817 445.91854588 -234 397 C-235.07930786 397.62267761 -235.07930786 397.62267761 -236.18041992 398.25793457 C-254.95361328 409.08862305 -273.72680664 419.91931152 -292.5 430.75 C-293.57403076 431.36963623 -294.64806152 431.98927246 -295.75463867 432.62768555 C-297.90583224 433.86875254 -300.05703655 435.10980093 -302.20825195 436.35083008 C-307.25962999 439.26498344 -312.3109031 442.17931818 -317.36178589 445.09432983 C-319.15066918 446.12673478 -320.93958717 447.15907956 -322.72851562 448.19140625 C-324.97337636 449.48685948 -327.2181719 450.7824257 -329.46289062 452.078125 C-331.44738679 453.22326863 -333.43404541 454.36467699 -335.42333984 455.50146484 C-337.00353255 456.42047402 -338.57036614 457.36358369 -340.11181641 458.34619141 C-344.41959533 461.05841076 -344.41959533 461.05841076 -347.37255859 460.76123047 C-350.23660501 459.93145006 -352.51947841 458.80206943 -355.11328125 457.33203125 C-356.10126709 456.77588135 -357.08925293 456.21973145 -358.10717773 455.64672852 C-359.69381226 454.7387854 -359.69381226 454.7387854 -361.3125 453.8125 C-362.42117432 453.184646 -363.52984863 452.55679199 -364.67211914 451.90991211 C-374.12965658 446.53806301 -383.52701651 441.06304021 -392.91015625 435.5625 C-399.21570485 431.86786651 -405.54298913 428.21155188 -411.875 424.5625 C-412.94355225 423.94648926 -414.01210449 423.33047852 -415.11303711 422.69580078 C-419.5802062 420.12120456 -424.04811045 417.54788685 -428.51660156 414.97558594 C-430.87346291 413.61884742 -433.23006924 412.26166779 -435.58642578 410.90405273 C-437.79006869 409.63453881 -439.99413955 408.36576732 -442.19873047 407.09790039 C-443.20564941 406.5177417 -444.21256836 405.93758301 -445.25 405.33984375 C-446.12140625 404.83831787 -446.9928125 404.33679199 -447.890625 403.82006836 C-448.91671875 403.2194458 -449.9428125 402.61882324 -451 402 C-452.2086684 401.48548515 -452.2086684 401.48548515 -453.44175434 400.96057606 C-460.41169175 397.63125047 -460.41169175 397.63125047 -461.95880699 393.34143734 C-462.35602101 389.92219711 -462.43120792 386.61924648 -462.4050293 383.17675781 C-462.43379654 381.88496613 -462.46256378 380.59317444 -462.49220276 379.26223755 C-462.56752345 375.72835057 -462.57882828 372.1970392 -462.57377601 368.66245365 C-462.57436861 365.7053197 -462.60377736 362.74873135 -462.63228065 359.79175639 C-462.69807196 352.80937509 -462.70924081 345.828318 -462.68823242 338.84570312 C-462.66772784 331.66000811 -462.74674246 324.48019552 -462.87391728 317.29572797 C-462.97937266 311.11257668 -463.01850208 304.93131252 -463.00620776 298.74727893 C-462.99977128 295.05973732 -463.01860209 291.3768404 -463.10306358 287.69016266 C-463.57527382 265.38293911 -463.57527382 265.38293911 -459.33850288 259.81741905 C-455.37213836 256.37278385 -451.02160326 254.42009098 -446.08058167 252.75396538 C-442.97975274 251.63028074 -440.3693265 250.00064359 -437.56640625 248.26953125 C-435.56553379 247.11644169 -433.56422606 245.96410711 -431.5625 244.8125 C-429.31379049 243.5169472 -427.06509292 242.22137368 -424.81640625 240.92578125 C-423.12281982 239.9505249 -423.12281982 239.9505249 -421.39501953 238.95556641 C-415.92830025 235.80667949 -410.46422354 232.6532151 -405 229.5 C-398.47767561 225.73634635 -391.95486237 221.97355377 -385.4296875 218.21484375 C-374.97793801 212.19252671 -364.53700452 206.15330663 -354.125 200.0625 C-344.85500223 194.64078822 -335.54168248 189.29795085 -326.21154785 183.98077393 C-317.0871716 178.77954871 -307.99867226 173.51972122 -298.93310547 168.21655273 C-288.40915375 162.06233258 -277.84619863 155.97630004 -267.28222656 149.89111328 C-261.85340058 146.76319852 -256.42680719 143.63141552 -251 140.5 C-248.83334417 139.24998121 -246.6666775 137.99998122 -244.5 136.75 C-243.4275 136.13125 -242.355 135.5125 -241.25 134.875 C-75.5 39.25 -75.5 39.25 -72.24951172 37.37475586 C-70.08442929 36.12564482 -67.91939018 34.87645871 -65.75439453 33.62719727 C-60.31384294 30.48797691 -54.87252784 27.35009437 -49.4296875 24.21484375 C-47.80305176 23.27705078 -47.80305176 23.27705078 -46.14355469 22.3203125 C-43.98131792 21.07478143 -41.81792288 19.83125874 -39.65332031 18.58984375 C-34.14440551 15.42368511 -28.67221281 12.21003736 -23.2421875 8.91015625 C-22.15180176 8.254104 -21.06141602 7.59805176 -19.93798828 6.92211914 C-17.86278516 5.67092645 -15.79553372 4.40641759 -13.73779297 3.12670898 C-12.80854004 2.56927002 -11.87928711 2.01183105 -10.921875 1.4375 C-10.11331055 0.94121094 -9.30474609 0.44492187 -8.47167969 -0.06640625 C-5.18791485 -1.30673781 -3.36571714 -0.93128023 0 0 Z " fill="#ED8E24" transform="translate(461,1)"/>
<path d="M0 0 C2.87060547 1.36010742 2.87060547 1.36010742 5.8671875 3.10546875 C6.98738281 3.75193359 8.10757812 4.39839844 9.26171875 5.06445312 C10.46624802 5.77196148 11.67067243 6.47964836 12.875 7.1875 C14.1336436 7.91812966 15.39276536 8.64793618 16.65234375 9.37695312 C19.84234464 11.22622679 23.02601371 13.08608275 26.20739746 14.95013428 C28.86784844 16.50826901 31.53168463 18.06058534 34.1953125 19.61328125 C37.10381971 21.30954598 40.01169254 23.00684429 42.91748047 24.70776367 C50.58221669 29.19056507 58.28529845 33.60405339 66 38 C75.72124506 43.53985933 85.40894868 49.13374932 95.06689453 54.78344727 C105.59084625 60.93766742 116.15380137 67.02369996 126.71777344 73.10888672 C132.14659942 76.23680148 137.57319281 79.36858448 143 82.5 C145.16665583 83.75001879 147.3333225 85.00001878 149.5 86.25 C212.33333333 122.5 275.16666667 158.75 338 195 C338 195.99 338 196.98 338 198 C336.20947266 199.38769531 336.20947266 199.38769531 333.6640625 200.828125 C332.71547363 201.37267334 331.76688477 201.91722168 330.78955078 202.47827148 C329.74524902 203.06294189 328.70094727 203.6476123 327.625 204.25 C326.54589355 204.86625244 325.46678711 205.48250488 324.35498047 206.11743164 C322.06319851 207.42591191 319.76964258 208.7305369 317.47265625 210.02978516 C313.07879501 212.52264653 308.70584581 215.05071335 304.33349609 217.58105469 C301.08128425 219.46279406 297.82623499 221.33953298 294.5703125 223.21484375 C286.97319421 227.59102757 279.37927724 231.9727519 271.78564453 236.35498047 C266.76346298 239.25294889 261.74072934 242.14994287 256.71557617 245.04275513 C254.94954478 246.05947198 253.18372569 247.07655658 251.41796875 248.09375 C249.21265845 249.36400873 247.00695784 250.63359018 244.80078125 251.90234375 C243.79402344 252.48242188 242.78726563 253.0625 241.75 253.66015625 C240.29980469 254.48797607 240.29980469 254.48797607 238.8203125 255.33251953 C236.93033455 256.44994936 235.06998381 257.61896793 233.2421875 258.83544922 C226.81678614 263.0659047 226.81678614 263.0659047 223.046875 262.76171875 C221.53867188 261.88966797 221.53867188 261.88966797 220 261 C219.24525391 260.58443848 218.49050781 260.16887695 217.71289062 259.74072266 C214.86028248 258.14789309 212.05574718 256.48644269 209.25 254.8125 C207.08632451 253.53580222 204.92224834 252.25978329 202.7578125 250.984375 C201.64180664 250.32501953 200.52580078 249.66566406 199.37597656 248.98632812 C193.9787367 245.81074644 188.55236 242.6862344 183.125 239.5625 C180.94008624 238.30341652 178.75519051 237.04430177 176.5703125 235.78515625 C174.94270996 234.84760498 174.94270996 234.84760498 173.28222656 233.89111328 C167.85340058 230.76319852 162.42680719 227.63141552 157 224.5 C154.83334417 223.24998121 152.6666775 221.99998122 150.5 220.75 C128.83333333 208.25 107.16666667 195.75 85.5 183.25 C84.42733887 182.63116943 83.35467773 182.01233887 82.24951172 181.37475586 C80.08442929 180.12564482 77.91939018 178.87645871 75.75439453 177.62719727 C70.31384294 174.48797691 64.87252784 171.35009437 59.4296875 168.21484375 C49.81012081 162.67216488 40.19175189 157.12788685 30.60742188 151.52441406 C28.59859342 150.35377862 26.58563481 149.19019826 24.56835938 148.03417969 C19.84630526 145.31766155 15.25098641 142.53338757 10.76953125 139.43359375 C2.83646489 133.70708661 2.83646489 133.70708661 -6.44140625 132.390625 C-9.55656545 133.8751052 -12.13812176 135.50981117 -14.90966797 137.53857422 C-18.20764824 139.84431002 -21.71170313 141.77092747 -25.20581055 143.76171875 C-28.32820513 145.54465639 -31.42735757 147.36319479 -34.5234375 149.19140625 C-40.9517352 152.97898958 -47.40921373 156.71436108 -53.875 160.4375 C-54.95426758 161.05947266 -56.03353516 161.68144531 -57.14550781 162.32226562 C-59.33614966 163.5846694 -61.526905 164.84687623 -63.71777344 166.10888672 C-69.14659942 169.23680148 -74.57319281 172.36858448 -80 175.5 C-82.16665583 176.75001879 -84.3333225 178.00001878 -86.5 179.25 C-87.5725 179.86875 -88.645 180.4875 -89.75 181.125 C-99.49999999 186.75 -99.49999999 186.75 -102.75048828 188.62524414 C-104.91557071 189.87435518 -107.08060982 191.12354129 -109.24560547 192.37280273 C-114.68615706 195.51202309 -120.12747216 198.64990563 -125.5703125 201.78515625 C-136.02206279 207.80747375 -146.46293115 213.84680257 -156.875 219.9375 C-166.69138458 225.67753421 -176.55465494 231.33323337 -186.43261719 236.96630859 C-197.56868885 243.31762137 -208.67347797 249.72250856 -219.7734375 256.13671875 C-223.03524007 258.0203505 -226.29861844 259.90122321 -229.5625 261.78125 C-240.05738916 267.82747312 -250.54230539 273.88963481 -261 280 C-272.53992559 286.74270595 -284.11435521 293.42462525 -295.69580078 300.09570312 C-300.13684409 302.65519313 -304.57541242 305.21895523 -309.01342773 307.78369141 C-311.1924467 309.04114644 -313.37292316 310.29607957 -315.55493164 311.54833984 C-320.77462979 314.545269 -325.97038303 317.5719523 -331.125 320.6796875 C-332.56685669 321.53687378 -332.56685669 321.53687378 -334.0378418 322.41137695 C-335.83983785 323.48369541 -337.63358243 324.57004885 -339.41723633 325.67260742 C-340.21411865 326.14287354 -341.01100098 326.61313965 -341.83203125 327.09765625 C-342.86420776 327.72426147 -342.86420776 327.72426147 -343.91723633 328.36352539 C-346.91168645 329.27860351 -348.24299167 328.39869634 -351 327 C-352.93996512 325.96310728 -354.86188158 324.89208452 -356.76953125 323.796875 C-357.89294922 323.15363281 -359.01636719 322.51039063 -360.17382812 321.84765625 C-361.38678495 321.14855234 -362.59967384 320.44933056 -363.8125 319.75 C-365.07606103 319.02454649 -366.33973448 318.29928874 -367.60351562 317.57421875 C-376.39931183 312.52219693 -385.16379738 307.4170285 -393.91723633 302.29199219 C-401.58243986 297.80992023 -409.28547031 293.39631909 -417 289 C-426.146052 283.78585725 -435.27582083 278.54569983 -444.375 273.25 C-445.36113281 272.67765625 -446.34726562 272.1053125 -447.36328125 271.515625 C-452.00787148 268.80573785 -456.57136278 266.05116812 -461 263 C-458.60030318 260.34434213 -456.03555811 258.72001447 -452.93359375 256.953125 C-451.90427734 256.36337891 -450.87496094 255.77363281 -449.81445312 255.16601562 C-448.70005859 254.53373047 -447.58566406 253.90144531 -446.4375 253.25 C-445.26598539 252.58058653 -444.09476624 251.91065574 -442.92382812 251.24023438 C-440.49056166 249.84760003 -438.05603768 248.45720253 -435.62060547 247.06835938 C-430.06842407 243.89970234 -424.53519338 240.69820559 -419 237.5 C-416.83342291 236.24984475 -414.66675593 234.99984527 -412.5 233.75 C-411.4275 233.13125 -410.355 232.5125 -409.25 231.875 C-243.5 136.25 -243.5 136.25 -240.24951172 134.37475586 C-238.08442929 133.12564482 -235.91939018 131.87645871 -233.75439453 130.62719727 C-228.31384294 127.48797691 -222.87252784 124.35009437 -217.4296875 121.21484375 C-206.97793801 115.19252671 -196.53700452 109.15330663 -186.125 103.0625 C-176.85500223 97.64078822 -167.54168248 92.29795085 -158.21154785 86.98077393 C-149.0871716 81.77954871 -139.99867226 76.51972122 -130.93310547 71.21655273 C-120.40915375 65.06233258 -109.84619863 58.97630004 -99.28222656 52.89111328 C-93.85340058 49.76319852 -88.42680719 46.63141552 -83 43.5 C-80.83334417 42.24998121 -78.6666775 40.99998122 -76.5 39.75 C-75.4275 39.13125 -74.355 38.5125 -73.25 37.875 C-63.50000001 32.25 -63.50000001 32.25 -60.24658203 30.37304688 C-58.09128689 29.1295949 -55.93601327 27.88610564 -53.78076172 26.64257812 C-48.77662326 23.75537125 -43.7722948 20.8684957 -38.76715088 17.98303223 C-37.01658759 16.97380896 -35.26609589 15.96446164 -33.515625 14.95507812 C-31.33607835 13.6983234 -29.15640168 12.44179414 -26.9765625 11.18554688 C-25.47609375 10.32026367 -25.47609375 10.32026367 -23.9453125 9.4375 C-22.96852539 8.87933594 -21.99173828 8.32117187 -20.98535156 7.74609375 C-18.89766292 6.5250315 -16.8333069 5.26358928 -14.78808594 3.97265625 C-13.21849121 2.99619141 -13.21849121 2.99619141 -11.6171875 2 C-10.68245605 1.401875 -9.74772461 0.80375 -8.78466797 0.1875 C-5.27972775 -1.3071545 -3.63261137 -1.06196241 0 0 Z " fill="#F7BE3B" transform="translate(461,1)"/>
<path d="M0 0 C-0.01881289 0.66646577 -0.03762577 1.33293154 -0.05700874 2.01959324 C-0.50741613 18.29762331 -0.81136985 34.57131427 -0.95596504 50.85480595 C-1.02936624 58.73035269 -1.15077532 66.59948637 -1.38867188 74.47192383 C-1.5961178 81.34084943 -1.70996836 88.2041625 -1.71533382 95.0763225 C-1.7213434 98.71262192 -1.77147831 102.33524469 -1.9341774 105.96818733 C-2.59382018 119.32869863 -2.59382018 119.32869863 1 132 C7.37478461 138.65696312 15.59318016 142.27054882 24.00913811 145.7381773 C27.69363663 147.29264021 30.97721013 149.16664949 34.3828125 151.25390625 C35.34815918 151.81005615 36.31350586 152.36620605 37.30810547 152.93920898 C47.48846848 158.8058439 57.64799352 164.70645145 67.7878418 170.64282227 C73.31019029 173.86909155 78.8496611 177.06275302 84.41015625 180.22265625 C85.03748657 180.57947983 85.66481689 180.93630341 86.31115723 181.30393982 C89.36290937 183.03917034 92.4166985 184.77063019 95.47412109 186.49584961 C96.58480957 187.12628174 97.69549805 187.75671387 98.83984375 188.40625 C99.81300537 188.95603516 100.78616699 189.50582031 101.78881836 190.07226562 C102.8485083 190.70841797 103.90819824 191.34457031 105 192 C105.7413192 192.3478335 106.4826384 192.695667 107.24642181 193.05404091 C110.95732881 195.02914483 113.53456211 196.49787139 114.81762791 200.63876724 C115.11090591 204.02521044 115.11310218 207.30835566 115.02172852 210.70654297 C115.02304276 211.98513687 115.02435699 213.26373077 115.02571106 214.58106995 C115.02828702 218.07555332 114.97549343 221.56723996 114.91254544 225.06107473 C114.85616887 228.71644381 114.85098815 232.37188167 114.84031677 236.02761841 C114.81237606 242.94477358 114.73856876 249.86064404 114.64817137 256.7772342 C114.54747 264.65370412 114.49806493 272.53023638 114.45291245 280.40719008 C114.35891335 296.60554472 114.20067822 312.80260826 114 329 C111.04221486 327.83139604 108.19922484 326.65369481 105.41796875 325.109375 C104.41056641 324.55117065 104.41056641 324.55117065 103.3828125 323.98168945 C102.65835938 323.57523193 101.93390625 323.16877441 101.1875 322.75 C100.40761719 322.31453857 99.62773437 321.87907715 98.82421875 321.43041992 C90.26646158 316.62754585 81.80382282 311.66206012 73.3359375 306.703125 C66.94718032 302.96365425 60.53885675 299.25871898 54.125 295.5625 C52.51866699 294.63679199 52.51866699 294.63679199 50.87988281 293.69238281 C48.6983159 292.43541894 46.51667483 291.17858375 44.33496094 289.921875 C40.91246454 287.94955497 37.49116227 285.97517387 34.0703125 284 C32.35690674 283.01084595 32.35690674 283.01084595 30.60888672 282.00170898 C28.45676611 280.75921051 26.30473923 279.51654969 24.15283203 278.27368164 C16.44776432 273.82662481 8.72437864 269.41393065 1 265 C0.67 351.79 0.34 438.58 0 528 C-3.62806134 526.54877547 -6.74228784 525.12455815 -10.11328125 523.234375 C-11.10126709 522.68144775 -12.08925293 522.12852051 -13.10717773 521.55883789 C-14.16493408 520.96192139 -15.22269043 520.36500488 -16.3125 519.75 C-17.42117432 519.12665771 -18.52984863 518.50331543 -19.67211914 517.86108398 C-29.13940877 512.52126695 -38.53299965 507.05876975 -47.91015625 501.5625 C-54.21570657 497.86786551 -60.54310634 494.21175766 -66.875 490.5625 C-67.94282715 489.94648926 -69.0106543 489.33047852 -70.11083984 488.69580078 C-75.17649678 485.77473964 -80.24463472 482.85813565 -85.3192749 479.95271301 C-87.09184277 478.93749165 -88.86366231 477.92097661 -90.63525391 476.90405273 C-92.85088136 475.6327264 -95.06791074 474.36383879 -97.28662109 473.09790039 C-98.2967627 472.5177417 -99.3069043 471.93758301 -100.34765625 471.33984375 C-101.22429932 470.83831787 -102.10094238 470.33679199 -103.00415039 469.82006836 C-103.99278076 469.2194458 -104.98141113 468.61882324 -106 468 C-106.73180353 467.68991265 -107.46360706 467.3798253 -108.21758646 467.06034136 C-111.04485134 465.64750817 -112.89212276 464.37263479 -115 462 C-116.41615232 456.82173522 -116.28126492 451.6633145 -116.24378967 446.33898926 C-116.26490449 444.71031463 -116.28988828 443.08168634 -116.31840605 441.45312452 C-116.38513184 436.9783734 -116.39551291 432.5049928 -116.39640772 428.029809 C-116.40690986 423.20311053 -116.46875474 418.37702228 -116.52339172 413.55065918 C-116.6326755 402.99672867 -116.67452539 392.44317248 -116.70290303 381.88875771 C-116.72096701 375.29637536 -116.7532485 368.70411157 -116.78841972 362.11180115 C-116.88369958 343.85345684 -116.96380498 325.59521802 -116.9826746 307.33661652 C-116.98389601 306.16817506 -116.98511741 304.9997336 -116.98637583 303.79588482 C-116.98879891 301.42723052 -116.99121607 299.05857622 -116.99362738 296.68992192 C-116.99484411 295.51414221 -116.99606085 294.33836251 -116.99731445 293.12695312 C-116.99852039 291.94973503 -116.99972633 290.77251694 -117.00096881 289.55962557 C-117.02342925 270.4920568 -117.1568068 251.42703335 -117.33888669 232.36038452 C-117.52439756 212.77688844 -117.61975538 193.19465958 -117.62415689 173.61026716 C-117.6286573 162.61699423 -117.67122838 151.62685746 -117.81260872 140.63441467 C-117.93253018 131.2713022 -117.96947351 121.91240083 -117.89965183 112.54870278 C-117.86646519 107.77228323 -117.87146024 103.00422907 -117.98205566 98.22879028 C-118.59059231 70.35808459 -118.59059231 70.35808459 -112.62954021 63.12285233 C-106.94439544 58.40517559 -100.72839656 55.53384266 -93.81475246 53.05370712 C-90.05295176 51.64547096 -86.86027425 49.76434981 -83.4453125 47.66015625 C-81.3391042 46.45994979 -79.2323432 45.26071267 -77.125 44.0625 C-74.75472429 42.71178556 -72.38510251 41.3599266 -70.015625 40.0078125 C-69.13648941 39.50624886 -69.13648941 39.50624886 -68.23959351 38.99455261 C-58.90218354 33.66437967 -49.59715329 28.27789245 -40.28808594 22.8984375 C-36.84202544 20.90879045 -33.3939299 18.92271002 -29.9453125 16.9375 C-28.7709809 16.26117547 -27.59666435 15.58482481 -26.42236328 14.90844727 C-24.2153857 13.63744356 -22.00805524 12.36705229 -19.80029297 11.09741211 C-14.11276909 7.82028033 -8.4633851 4.49330817 -2.86328125 1.06860352 C-1 0 -1 0 0 0 Z " fill="#E55B2C" transform="translate(343,330)"/>
<path d="M0 0 C2.58855027 0.87746171 4.78499733 1.92940498 7.15551758 3.28979492 C8.50166138 4.05610229 8.50166138 4.05610229 9.875 4.83789062 C10.83768799 5.39565186 11.80037598 5.95341309 12.79223633 6.52807617 C13.80842041 7.10968506 14.82460449 7.69129395 15.87158203 8.29052734 C23.9882287 12.94704735 32.06857613 17.66683159 40.14306641 22.39599609 C47.89196832 26.93067717 55.67886817 31.39622333 63.47973633 35.84057617 C88.62129103 50.16713086 88.62129103 50.16713086 98.54047775 56.16847897 C101.45748531 57.89194171 101.45748531 57.89194171 104.58784866 59.22233677 C112.81448972 63.14075979 112.81448972 63.14075979 114.56539154 67.61460686 C114.96113934 71.10803691 114.96551355 74.42208284 114.84204102 77.93603516 C114.84466949 79.89803612 114.84466949 79.89803612 114.84735107 81.89967346 C114.85078277 85.47139473 114.78045959 89.03824087 114.69646358 92.60883212 C114.62123462 96.34549869 114.61438291 100.08228836 114.60015869 103.81959534 C114.56292031 110.88946306 114.46453838 117.95709315 114.34396482 125.02597719 C114.20964156 133.07645516 114.14381024 141.12704241 114.08361959 149.17836273 C113.9583247 165.73374203 113.74738187 182.2868732 113.47973633 198.84057617 C112.96637474 199.12511563 112.45301315 199.40965509 111.92409515 199.70281696 C109.56930544 201.00838713 107.21494787 202.31473472 104.8605957 203.62109375 C104.05313904 204.06862251 103.24568237 204.51615128 102.41375732 204.97724152 C96.22122415 208.41435712 90.08308794 211.93485862 83.97973633 215.52807617 C81.92536432 216.7317398 79.8706651 217.9348451 77.81567383 219.13745117 C76.77507812 219.7465332 75.73448242 220.35561523 74.66235352 220.9831543 C69.32082537 224.10054814 63.9632467 227.18999127 58.60473633 230.27807617 C57.53022217 230.89739014 56.45570801 231.5167041 55.34863281 232.15478516 C53.16342488 233.41398289 50.97812175 234.67301544 48.79272461 235.93188477 C43.20802543 239.1493629 37.62514215 242.3699876 32.04223633 245.59057617 C31.06206543 246.15574951 30.08189453 246.72092285 29.07202148 247.30322266 C27.10556883 248.4374404 25.1551021 249.59986263 23.2223053 250.79052734 C20.47137274 252.40124435 17.73352611 253.50912125 14.73298645 254.57765198 C9.20507211 256.77064633 4.28952696 259.15015715 0.47973633 263.84057617 C-2.70582808 272.48919926 -1.62889325 282.27490438 -1.22056723 291.34709716 C-1.08043601 294.99123432 -1.06012025 298.63588666 -1.02981567 302.28230286 C-0.94035806 310.74911643 -0.70858038 319.20909941 -0.46221161 327.67255402 C-0.15576607 338.45465275 0.0816139 349.23703645 0.19918334 360.02289182 C0.24253187 363.6463032 0.31607999 367.26412522 0.45868301 370.88509178 C1.32345688 392.88874858 1.32345688 392.88874858 -1.74067879 397.79448128 C-5.13448575 401.15507976 -8.9962383 402.42396606 -13.52026367 403.84057617 C-15.56088503 404.97281001 -17.58010313 406.14557503 -19.56323242 407.37573242 C-21.61030841 408.55342966 -23.65852189 409.72915155 -25.70776367 410.90307617 C-27.41069149 411.8820873 -29.11361747 412.86110165 -30.81643677 413.84030151 C-32.56421828 414.84504916 -34.31246963 415.84897532 -36.06079102 416.8527832 C-41.55165579 420.00780233 -47.03579293 423.17445952 -52.52026367 426.34057617 C-59.0648891 430.11793481 -65.61057507 433.89340061 -72.16088867 437.66088867 C-74.36410032 438.9289673 -76.56722605 440.19719524 -78.77026367 441.46557617 C-79.83567383 442.07860596 -80.90108398 442.69163574 -81.9987793 443.32324219 C-87.34425776 446.40588317 -92.67206326 449.5145598 -97.97338867 452.67260742 C-98.99271484 453.27959473 -100.01204102 453.88658203 -101.06225586 454.51196289 C-102.99245911 455.6644134 -104.92031219 456.82081196 -106.84545898 457.98168945 C-108.12308105 458.74521729 -108.12308105 458.74521729 -109.42651367 459.52416992 C-110.17223633 459.97332764 -110.91795898 460.42248535 -111.6862793 460.88525391 C-113.52026367 461.84057617 -113.52026367 461.84057617 -115.52026367 461.84057617 C-115.52026367 374.72057617 -115.52026367 287.60057617 -115.52026367 197.84057617 C-107.61137234 201.79502184 -99.97445543 205.78452258 -92.39526367 210.27807617 C-90.28624081 211.51825854 -88.17685306 212.75782055 -86.06713867 213.99682617 C-84.4496875 214.9481543 -84.4496875 214.9481543 -82.79956055 215.91870117 C-77.43031634 219.06541725 -72.03818176 222.17216237 -66.64526367 225.27807617 C-65.56615723 225.89996826 -64.48705078 226.52186035 -63.37524414 227.16259766 C-61.18443416 228.42507348 -58.99351607 229.68736173 -56.80249023 230.94946289 C-52.51430798 233.42017546 -48.22754647 235.8933461 -43.94094849 238.36680603 C-40.78663061 240.18687972 -37.63222954 242.00680912 -34.4777832 243.82666016 C-33.34865509 244.4780748 -32.21952698 245.12948944 -31.05618286 245.80064392 C-30.47406162 246.13647932 -29.89194038 246.47231472 -29.29217911 246.81832695 C-26.38252473 248.49695781 -23.47287896 250.1756036 -20.56323242 251.85424805 C-19.43208008 252.50683594 -18.30092773 253.15942383 -17.13549805 253.83178711 C-11.93041992 256.8347168 -6.7253418 259.83764648 -1.52026367 262.84057617 C-1.08879631 246.00238644 -0.79697839 229.16819405 -0.66792297 212.32510948 C-0.60478666 204.50271464 -0.49729245 196.68578805 -0.2824707 188.8659668 C-0.09516678 182.04362208 0.00596417 175.22613762 0.00689316 168.40113223 C0.01031148 164.78974749 0.05458788 161.19006035 0.20245361 157.58146286 C1.2494455 142.39956599 1.2494455 142.39956599 -4.88489151 129.27069664 C-10.66716574 124.77810241 -16.97814015 121.7477971 -23.73563004 119.00280952 C-27.26375052 117.53026418 -30.38491304 115.72072974 -33.63745117 113.71948242 C-35.55637019 112.61340309 -37.4756324 111.5079189 -39.39526367 110.40307617 C-41.58016905 109.14397816 -43.76506459 107.88486307 -45.94995117 106.62573242 C-47.57755371 105.68818115 -47.57755371 105.68818115 -49.23803711 104.73168945 C-55.73960966 100.98569265 -62.23865798 97.23531427 -68.73681641 93.48339844 C-73.74749924 90.59094204 -78.75973247 87.70131423 -83.77890015 84.8236084 C-85.53755116 83.81509303 -87.29559576 82.80552847 -89.0534668 81.7956543 C-91.24498598 80.53707099 -93.43760871 79.2804063 -95.6315918 78.02612305 C-102.3829877 74.14526285 -108.98617502 70.07698985 -115.52026367 65.84057617 C-112.59051145 63.55306658 -109.58026002 61.64078825 -106.35620117 59.79370117 C-105.33010742 59.20395508 -104.30401367 58.61420898 -103.24682617 58.0065918 C-101.58780273 57.05816406 -101.58780273 57.05816406 -99.89526367 56.09057617 C-98.72843745 55.42093224 -97.56177359 54.75100533 -96.39526367 54.08081055 C-93.97238855 52.68908848 -91.54882021 51.29858513 -89.12475586 49.90893555 C-83.5833634 46.73086587 -78.0523562 43.53479644 -72.52026367 40.34057617 C-70.35364586 39.09049149 -68.18697903 37.84049177 -66.02026367 36.59057617 C-64.94776367 35.97182617 -63.87526367 35.35307617 -62.77026367 34.71557617 C-53.02026367 29.09057617 -53.02026367 29.09057617 -49.76513672 27.21264648 C-47.61552733 25.97246856 -45.46595009 24.7322349 -43.31640625 23.49194336 C-38.24717155 20.56707387 -33.17761431 17.64276784 -28.10690308 14.72045898 C-25.7159977 13.3425068 -23.32527696 11.96423445 -20.93457031 10.5859375 C-19.25042404 9.61516635 -17.56601136 8.64485743 -15.8815918 7.67456055 C-14.34728516 6.78994141 -14.34728516 6.78994141 -12.78198242 5.88745117 C-11.88439209 5.37021484 -10.98680176 4.85297852 -10.06201172 4.32006836 C-7.48072312 2.86362705 -7.48072312 2.86362705 -5.00390625 1.08764648 C-2.52026367 -0.15942383 -2.52026367 -0.15942383 0 0 Z " fill="#ED8E23" transform="translate(458.520263671875,396.159423828125)"/>
<path d="M0 0 C1.76749051 0.96357255 3.53491953 1.92725789 5.30232239 2.89099121 C6.28656598 3.42763145 7.27080957 3.9642717 8.28487873 4.51717377 C23.63937937 12.90282365 38.81721087 21.59160618 53.91015625 30.4375 C60.21570465 34.13213337 66.54297534 37.7884724 72.875 41.4375 C74.49305542 42.37021729 74.49305542 42.37021729 76.14379883 43.32177734 C79.42892251 45.21499899 82.71439728 47.10760983 86 49 C98.64302999 56.28193508 111.28132332 63.57046042 123.875 70.9375 C133.14563931 76.35958699 142.45936699 81.70324012 151.79046631 87.02023315 C160.85894455 92.18874854 169.88820902 97.42104651 178.89550781 102.69555664 C187.96403392 107.99760949 197.08244798 113.21032167 206.2109375 118.40820312 C207.31179688 119.03533203 208.41265625 119.66246094 209.546875 120.30859375 C210.61744141 120.91300293 211.68800781 121.51741211 212.79101562 122.14013672 C214.99252112 123.41608535 217.1676657 124.73829598 219.31835938 126.09814453 C220.37345703 126.7579834 221.42855469 127.41782227 222.515625 128.09765625 C223.91989746 129.00463257 223.91989746 129.00463257 225.35253906 129.92993164 C227.93425818 131.27531152 227.93425818 131.27531152 230.48657227 130.37939453 C231.31600342 129.92419434 232.14543457 129.46899414 233 129 C233.89936279 128.51893799 234.79872559 128.03787598 235.7253418 127.54223633 C236.70672119 126.97786865 237.68810059 126.41350098 238.69921875 125.83203125 C239.81248535 125.19386475 240.92575195 124.55569824 242.07275391 123.89819336 C243.27771682 123.20304466 244.4826309 122.5078113 245.6875 121.8125 C246.94434799 121.09031382 248.20134912 120.3683941 249.45849609 119.64672852 C252.68637148 117.79256933 255.91189349 115.93436047 259.13653564 114.07458496 C261.99525204 112.42607817 264.85518454 110.77968312 267.71484375 109.1328125 C273.07278109 106.04520824 278.42792501 102.95279067 283.78222656 99.85888672 C290.25362979 96.1203993 296.72796191 92.38698507 303.20214844 88.65332031 C308.28273617 85.72298436 313.36246374 82.7911884 318.43914795 79.85409546 C320.83930101 78.46561973 323.23994361 77.07799167 325.640625 75.69042969 C327.33641618 74.7098117 329.03149776 73.72796691 330.7265625 72.74609375 C331.75265625 72.153125 332.77875 71.56015625 333.8359375 70.94921875 C334.73876465 70.42674561 335.6415918 69.90427246 336.57177734 69.3659668 C338.68835891 68.17530987 340.82429373 67.07668056 343 66 C343.56242807 83.09784216 343.98467399 100.19277419 344.24349213 117.29776955 C344.36690671 125.24170927 344.53485359 133.17988272 344.81054688 141.12011719 C345.05094782 148.04724348 345.20484687 154.97019668 345.25812387 161.90137804 C345.28925636 165.56908831 345.36139231 169.22487252 345.53752136 172.88872147 C346.56388516 195.08415087 346.56388516 195.08415087 340.64449692 201.58812904 C334.86891886 206.09934328 328.55798228 209.11688942 321.78815842 211.84481621 C318.25331094 213.30936661 315.1367866 215.1165162 311.8828125 217.12109375 C309.96389348 218.22717308 308.04463128 219.33265727 306.125 220.4375 C303.94009462 221.69659802 301.75519908 222.95571311 299.5703125 224.21484375 C298.48524414 224.83987793 297.40017578 225.46491211 296.28222656 226.10888672 C289.78152037 229.85438435 283.28374968 233.60497265 276.78564453 237.35498047 C271.76346298 240.25294889 266.74072934 243.14994287 261.71557617 246.04275513 C259.94954478 247.05947198 258.18372569 248.07655658 256.41796875 249.09375 C254.21265845 250.36400873 252.00695784 251.63359018 249.80078125 252.90234375 C248.79402344 253.48242188 247.78726563 254.0625 246.75 254.66015625 C245.78320312 255.2133252 244.81640625 255.76649414 243.8203125 256.33642578 C241.93512845 257.44841021 240.07494668 258.60387245 238.2421875 259.80029297 C237.37851562 260.35990723 236.51484375 260.91952148 235.625 261.49609375 C234.87476563 262.00197021 234.12453125 262.50784668 233.3515625 263.02905273 C230.14447624 264.35324107 228.3196102 263.90972646 225 263 C222.34472656 261.74755859 222.34472656 261.74755859 219.640625 260.1484375 C218.11115234 259.25415039 218.11115234 259.25415039 216.55078125 258.34179688 C215.46152344 257.69275391 214.37226562 257.04371094 213.25 256.375 C212.09302648 255.69497822 210.93546287 255.01595953 209.77734375 254.33789062 C207.37334852 252.92932676 204.97194227 251.51649359 202.57226562 250.10058594 C197.0716512 246.85983022 191.53396591 243.68333677 186 240.5 C183.83315966 239.25030108 181.6664935 238.00030011 179.5 236.75 C178.4275 236.13125 177.355 235.5125 176.25 234.875 C119.375 202.0625 119.375 202.0625 62.5 169.25 C61.4267749 168.63084717 60.3535498 168.01169434 59.24780273 167.3737793 C57.08840605 166.1279423 54.92906331 164.88201182 52.76977539 163.63598633 C47.24232403 160.44651047 41.71384879 157.25883115 36.18359375 154.07421875 C34.48879883 153.09775391 34.48879883 153.09775391 32.75976562 152.1015625 C30.64554146 150.88349096 28.53099381 149.6659806 26.41601562 148.44921875 C24.45343134 147.31819441 22.50727075 146.1580967 20.58029175 144.96742249 C18.02139403 143.46184225 15.52256276 142.45061792 12.71133423 141.50535583 C7.64083797 139.57132404 3.32467347 137.40865194 0 133 C-2.97787421 124.18243069 -2.03426243 114.32313713 -1.72369695 105.12949133 C-1.61681365 101.42914976 -1.60739341 97.72853287 -1.58726501 94.02688599 C-1.53459441 87.03037818 -1.39535738 80.0384308 -1.22432369 73.04392445 C-1.03375116 65.0759305 -0.94070491 57.10770873 -0.85550129 49.13800025 C-0.67819466 32.75600433 -0.37954674 16.37858552 0 0 Z " fill="#E55B2C" transform="translate(457,132)"/>
<path d="M0 0 C2.58855027 0.87746171 4.78499733 1.92940498 7.15551758 3.28979492 C8.50166138 4.05610229 8.50166138 4.05610229 9.875 4.83789062 C10.83768799 5.39565186 11.80037598 5.95341309 12.79223633 6.52807617 C13.80842041 7.10968506 14.82460449 7.69129395 15.87158203 8.29052734 C23.9882287 12.94704735 32.06857613 17.66683159 40.14306641 22.39599609 C47.89196832 26.93067717 55.67886817 31.39622333 63.47973633 35.84057617 C75.26121708 42.55408416 86.98998943 49.35480905 98.69067383 56.20825195 C103.61700953 59.09143477 108.5485654 61.9656734 113.47973633 64.84057617 C110.98588841 67.63621393 108.22758552 69.27311021 104.97583008 71.10620117 C103.29602051 72.05873779 103.29602051 72.05873779 101.58227539 73.03051758 C100.985802 73.36577454 100.38932861 73.70103149 99.77478027 74.04644775 C97.88844726 75.10675856 96.00544549 76.17276984 94.12329102 77.24047852 C92.17260487 78.34703511 90.22175475 79.45328714 88.26992798 80.55783081 C81.90404494 84.16071116 75.56382126 87.80705037 69.22973633 91.46557617 C68.16021729 92.08279541 67.09069824 92.70001465 65.98876953 93.3359375 C57.87648371 98.02222954 49.78691416 102.74682665 41.70019531 107.47705078 C32.38736236 112.91435219 23.02510508 118.26398539 13.65405273 123.60009766 C12.53047363 124.24019775 11.40689453 124.88029785 10.24926758 125.53979492 C9.25515869 126.10529053 8.2610498 126.67078613 7.23681641 127.25341797 C4.45704204 128.79205985 4.45704204 128.79205985 1.93164062 130.671875 C-0.52026367 131.84057617 -0.52026367 131.84057617 -2.9765625 131.22607422 C-3.81598389 130.76885986 -4.65540527 130.31164551 -5.52026367 129.84057617 C-6.41962646 129.35951416 -7.31898926 128.87845215 -8.24560547 128.3828125 C-9.22698486 127.81844482 -10.20836426 127.25407715 -11.21948242 126.67260742 C-12.33274902 126.03444092 -13.44601562 125.39627441 -14.59301758 124.73876953 C-15.7979805 124.04362083 -17.00289457 123.34838747 -18.20776367 122.65307617 C-19.46461166 121.93089 -20.72161279 121.20897027 -21.97875977 120.48730469 C-25.20663515 118.6331455 -28.43215716 116.77493664 -31.65679932 114.91516113 C-34.51551572 113.26665434 -37.37544821 111.6202593 -40.23510742 109.97338867 C-45.59023924 106.88746302 -50.942285 103.79622078 -56.29370117 100.70385742 C-59.55550374 98.82022567 -62.81888211 96.93935296 -66.08276367 95.05932617 C-76.98958763 88.77620553 -87.8889849 82.48035062 -98.77026367 76.15307617 C-99.76429199 75.57678467 -100.75832031 75.00049316 -101.7824707 74.40673828 C-106.46173676 71.68088527 -111.06159096 68.9152649 -115.52026367 65.84057617 C-112.59051145 63.55306658 -109.58026002 61.64078825 -106.35620117 59.79370117 C-105.33010742 59.20395508 -104.30401367 58.61420898 -103.24682617 58.0065918 C-101.58780273 57.05816406 -101.58780273 57.05816406 -99.89526367 56.09057617 C-98.72843745 55.42093224 -97.56177359 54.75100533 -96.39526367 54.08081055 C-93.97238855 52.68908848 -91.54882021 51.29858513 -89.12475586 49.90893555 C-83.5833634 46.73086587 -78.0523562 43.53479644 -72.52026367 40.34057617 C-70.35364586 39.09049149 -68.18697903 37.84049177 -66.02026367 36.59057617 C-64.94776367 35.97182617 -63.87526367 35.35307617 -62.77026367 34.71557617 C-53.02026367 29.09057617 -53.02026367 29.09057617 -49.76513672 27.21264648 C-47.61552733 25.97246856 -45.46595009 24.7322349 -43.31640625 23.49194336 C-38.24717155 20.56707387 -33.17761431 17.64276784 -28.10690308 14.72045898 C-25.7159977 13.3425068 -23.32527696 11.96423445 -20.93457031 10.5859375 C-19.25042404 9.61516635 -17.56601136 8.64485743 -15.8815918 7.67456055 C-14.34728516 6.78994141 -14.34728516 6.78994141 -12.78198242 5.88745117 C-11.88439209 5.37021484 -10.98680176 4.85297852 -10.06201172 4.32006836 C-7.48072312 2.86362705 -7.48072312 2.86362705 -5.00390625 1.08764648 C-2.52026367 -0.15942383 -2.52026367 -0.15942383 0 0 Z " fill="#F7BE3B" transform="translate(458.520263671875,396.159423828125)"/>
<path d="M0 0 C1.72389692 0.9384665 3.447566 1.87735154 5.17114258 2.81640625 C6.61098259 3.60059937 6.61098259 3.60059937 8.07991028 4.40063477 C12.63686577 6.89652937 17.16469293 9.44286678 21.6875 12 C22.67661377 12.55905029 23.66572754 13.11810059 24.68481445 13.6940918 C32.7180333 18.2474948 40.69742201 22.88924316 48.66479492 27.55664062 C56.41356753 32.09031786 64.19995977 36.55544726 72 41 C81.18614893 46.23752288 90.35793128 51.49825345 99.5 56.8125 C100.50289063 57.39322266 101.50578125 57.97394531 102.5390625 58.57226562 C103.46460937 59.11173828 104.39015625 59.65121094 105.34375 60.20703125 C106.15005859 60.6760083 106.95636719 61.14498535 107.78710938 61.62817383 C108.51736328 62.08087646 109.24761719 62.5335791 110 63 C111.04357981 63.61874481 111.04357981 63.61874481 112.10824203 64.24998951 C114 66 114 66 114.49219131 68.43063641 C114.48666056 69.88660842 114.48666056 69.88660842 114.48101807 71.37199402 C114.48651672 72.48678635 114.49201538 73.60157867 114.49768066 74.75015259 C114.48329956 75.97366425 114.46891846 77.1971759 114.45410156 78.45776367 C114.45468567 79.74567307 114.45526978 81.03358246 114.45587158 82.36051941 C114.45702058 85.89350955 114.43348199 89.42595793 114.40557575 92.95882201 C114.38059267 96.65036135 114.37822256 100.34191273 114.37347412 104.03352356 C114.36103518 111.02465556 114.32820136 118.01553774 114.28807616 125.00655967 C114.24338685 132.96533006 114.2213786 140.92411229 114.20129442 148.88297689 C114.15946935 165.25546423 114.08909971 181.62770025 114 198 C110.23283763 196.53028926 106.80946736 194.8497922 103.30078125 192.83203125 C102.18751465 192.19386475 101.07424805 191.55569824 99.92724609 190.89819336 C98.72228318 190.20304466 97.5173691 189.5078113 96.3125 188.8125 C95.05565201 188.09031382 93.79865088 187.3683941 92.54150391 186.64672852 C89.31362852 184.79256933 86.08810651 182.93436047 82.86346436 181.07458496 C80.00474796 179.42607817 77.14481546 177.77968312 74.28515625 176.1328125 C68.93002443 173.04688685 63.57797867 169.95564461 58.2265625 166.86328125 C54.96475993 164.9796495 51.70138156 163.09877679 48.4375 161.21875 C37.50603943 154.92109298 26.58504195 148.60620698 15.6875 142.25 C14.68509277 141.66532959 13.68268555 141.08065918 12.64990234 140.47827148 C7.42371619 137.42627631 7.42371619 137.42627631 5 136 C4.13876431 135.58795917 3.27752863 135.17591833 2.39019489 134.75139141 C0 133 0 133 -0.61523914 130.55374622 C-0.61063018 129.57572387 -0.60602121 128.59770151 -0.60127258 127.59004211 C-0.6081459 126.46683563 -0.61501923 125.34362915 -0.62210083 124.18638611 C-0.60412445 122.95352371 -0.58614807 121.72066132 -0.56762695 120.45043945 C-0.56835709 119.15277649 -0.56908722 117.85511353 -0.56983948 116.51812744 C-0.57127582 112.9581561 -0.54185238 109.39902476 -0.50696969 105.8392489 C-0.47574165 102.11969766 -0.47277829 98.40012779 -0.46684265 94.6804657 C-0.45129363 87.6361437 -0.41025127 80.59220906 -0.3600952 73.54805773 C-0.30423432 65.52884847 -0.27672351 57.50962084 -0.25161803 49.49026549 C-0.19933598 32.99328345 -0.11137364 16.49669114 0 0 Z " fill="#E55B2D" transform="translate(0,264)"/>
<path d="M0 0 C0.56242807 17.09784216 0.98467399 34.19277419 1.24349213 51.29776955 C1.36690671 59.24170927 1.53485359 67.17988272 1.81054688 75.12011719 C2.05094782 82.04724348 2.20484687 88.97019668 2.25812387 95.90137804 C2.28925636 99.56908831 2.36139231 103.22487252 2.53752136 106.88872147 C3.56388516 129.08415087 3.56388516 129.08415087 -2.35550308 135.58812904 C-8.13108114 140.09934328 -14.44201772 143.11688942 -21.21184158 145.84481621 C-24.74668906 147.30936661 -27.8632134 149.1165162 -31.1171875 151.12109375 C-33.03610652 152.22717308 -34.95536872 153.33265727 -36.875 154.4375 C-39.05990538 155.69659802 -41.24480092 156.95571311 -43.4296875 158.21484375 C-44.51475586 158.83987793 -45.59982422 159.46491211 -46.71777344 160.10888672 C-53.21847963 163.85438435 -59.71625032 167.60497265 -66.21435547 171.35498047 C-71.23653702 174.25294889 -76.25927066 177.14994287 -81.28442383 180.04275513 C-83.05045522 181.05947198 -84.81627431 182.07655658 -86.58203125 183.09375 C-88.78734155 184.36400873 -90.99304216 185.63359018 -93.19921875 186.90234375 C-98.86414009 190.16638294 -104.48323534 193.48428892 -110.0390625 196.93139648 C-112 198 -112 198 -114 198 C-114.21032707 180.89315935 -114.36898928 163.78672264 -114.46630955 146.67888451 C-114.51270031 138.73519014 -114.57593382 130.79229952 -114.67895508 122.84912109 C-114.76871605 115.92503561 -114.82673629 109.00153218 -114.84679645 102.07688105 C-114.858522 98.41060169 -114.88603154 94.74598725 -114.95157051 91.08024216 C-115.02418378 86.98552681 -115.02590618 82.89369696 -115.02172852 78.79833984 C-115.054086 77.58561401 -115.08644348 76.37288818 -115.11978149 75.12341309 C-115.03082366 67.07810594 -115.03082366 67.07810594 -112.03089809 63.94057846 C-109.74432736 62.39348358 -107.49978971 61.16330772 -105 60 C-104.03118896 59.42443359 -103.06237793 58.84886719 -102.06420898 58.25585938 C-101.21673096 57.78986328 -100.36925293 57.32386719 -99.49609375 56.84375 C-98.52099854 56.30371338 -97.54590332 55.76367676 -96.54125977 55.20727539 C-95.51701904 54.64387451 -94.49277832 54.08047363 -93.4375 53.5 C-84.92564082 48.77594016 -76.46123888 43.98498361 -68.0625 39.0625 C-59.76612615 34.20075271 -51.45650042 29.36385178 -43.125 24.5625 C-42.06152344 23.94938965 -40.99804688 23.3362793 -39.90234375 22.70458984 C-34.77793486 19.751109 -29.65230659 16.79975061 -24.52600098 13.8495636 C-22.11782525 12.46340262 -19.71009301 11.07647251 -17.3024292 9.68942261 C-15.59741766 8.70760702 -13.8917333 7.72696016 -12.18603516 6.74633789 C-11.15655762 6.15328857 -10.12708008 5.56023926 -9.06640625 4.94921875 C-8.15834229 4.42674561 -7.25027832 3.90427246 -6.31469727 3.3659668 C-0.61090259 0 -0.61090259 0 0 0 Z " fill="#ED8E23" transform="translate(800,198)"/>
</svg>
